<svg width="689" height="563" viewBox="0 0 689 563" fill="none" xmlns="http://www.w3.org/2000/svg">
<rect y="57" width="127" height="52" rx="26" fill="#B91BFF"/>
<path d="M11.928 22.808H5.256L4.152 26H0.624L6.648 9.224H10.56L16.584 26H13.032L11.928 22.808ZM11.016 20.12L8.592 13.112L6.168 20.12H11.016ZM22.1957 14.768C22.6277 14.064 23.1877 13.512 23.8757 13.112C24.5797 12.712 25.3797 12.512 26.2757 12.512V16.04H25.3877C24.3317 16.04 23.5317 16.288 22.9877 16.784C22.4597 17.28 22.1957 18.144 22.1957 19.376V26H18.8357V12.704H22.1957V14.768ZM27.6748 19.352C27.6748 17.976 27.9548 16.776 28.5148 15.752C29.0748 14.712 29.8508 13.912 30.8428 13.352C31.8348 12.776 32.9708 12.488 34.2508 12.488C35.8988 12.488 37.2588 12.904 38.3308 13.736C39.4188 14.552 40.1468 15.704 40.5148 17.192H36.8908C36.6988 16.616 36.3708 16.168 35.9068 15.848C35.4588 15.512 34.8988 15.344 34.2268 15.344C33.2668 15.344 32.5068 15.696 31.9468 16.4C31.3868 17.088 31.1068 18.072 31.1068 19.352C31.1068 20.616 31.3868 21.6 31.9468 22.304C32.5068 22.992 33.2668 23.336 34.2268 23.336C35.5868 23.336 36.4748 22.728 36.8908 21.512H40.5148C40.1468 22.952 39.4188 24.096 38.3308 24.944C37.2428 25.792 35.8828 26.216 34.2508 26.216C32.9708 26.216 31.8348 25.936 30.8428 25.376C29.8508 24.8 29.0748 24 28.5148 22.976C27.9548 21.936 27.6748 20.728 27.6748 19.352ZM50.4643 12.512C51.4723 12.512 52.3683 12.736 53.1523 13.184C53.9363 13.616 54.5443 14.264 54.9763 15.128C55.4243 15.976 55.6483 17 55.6483 18.2V26H52.2883V18.656C52.2883 17.6 52.0243 16.792 51.4963 16.232C50.9683 15.656 50.2483 15.368 49.3363 15.368C48.4083 15.368 47.6723 15.656 47.1283 16.232C46.6003 16.792 46.3363 17.6 46.3363 18.656V26H42.9763V8.24H46.3363V14.36C46.7683 13.784 47.3443 13.336 48.0643 13.016C48.7843 12.68 49.5843 12.512 50.4643 12.512ZM71.2035 19.064C71.2035 19.544 71.1715 19.976 71.1075 20.36H61.3875C61.4675 21.32 61.8035 22.072 62.3955 22.616C62.9875 23.16 63.7155 23.432 64.5795 23.432C65.8275 23.432 66.7155 22.896 67.2435 21.824H70.8675C70.4835 23.104 69.7475 24.16 68.6595 24.992C67.5715 25.808 66.2355 26.216 64.6515 26.216C63.3715 26.216 62.2195 25.936 61.1955 25.376C60.1875 24.8 59.3955 23.992 58.8195 22.952C58.2595 21.912 57.9795 20.712 57.9795 19.352C57.9795 17.976 58.2595 16.768 58.8195 15.728C59.3795 14.688 60.1635 13.888 61.1715 13.328C62.1795 12.768 63.3395 12.488 64.6515 12.488C65.9155 12.488 67.0435 12.76 68.0355 13.304C69.0435 13.848 69.8195 14.624 70.3635 15.632C70.9235 16.624 71.2035 17.768 71.2035 19.064ZM67.7235 18.104C67.7075 17.24 67.3955 16.552 66.7875 16.04C66.1795 15.512 65.4355 15.248 64.5555 15.248C63.7235 15.248 63.0195 15.504 62.4435 16.016C61.8835 16.512 61.5395 17.208 61.4115 18.104H67.7235ZM77.568 15.464V21.896C77.568 22.344 77.672 22.672 77.88 22.88C78.104 23.072 78.472 23.168 78.984 23.168H80.544V26H78.432C75.6 26 74.184 24.624 74.184 21.872V15.464H72.6V12.704H74.184V9.416H77.568V12.704H80.544V15.464H77.568ZM95.6807 12.704L87.4487 32.288H83.8727L86.7527 25.664L81.4247 12.704H85.1927L88.6247 21.992L92.1047 12.704H95.6807ZM100.852 14.624C101.284 14.016 101.876 13.512 102.628 13.112C103.396 12.696 104.268 12.488 105.244 12.488C106.38 12.488 107.404 12.768 108.316 13.328C109.244 13.888 109.972 14.688 110.5 15.728C111.044 16.752 111.316 17.944 111.316 19.304C111.316 20.664 111.044 21.872 110.5 22.928C109.972 23.968 109.244 24.776 108.316 25.352C107.404 25.928 106.38 26.216 105.244 26.216C104.268 26.216 103.404 26.016 102.652 25.616C101.916 25.216 101.316 24.712 100.852 24.104V32.336H97.4919V12.704H100.852V14.624ZM107.884 19.304C107.884 18.504 107.716 17.816 107.38 17.24C107.06 16.648 106.628 16.2 106.084 15.896C105.556 15.592 104.98 15.44 104.356 15.44C103.748 15.44 103.172 15.6 102.628 15.92C102.1 16.224 101.668 16.672 101.332 17.264C101.012 17.856 100.852 18.552 100.852 19.352C100.852 20.152 101.012 20.848 101.332 21.44C101.668 22.032 102.1 22.488 102.628 22.808C103.172 23.112 103.748 23.264 104.356 23.264C104.98 23.264 105.556 23.104 106.084 22.784C106.628 22.464 107.06 22.008 107.38 21.416C107.716 20.824 107.884 20.12 107.884 19.304ZM126.118 19.064C126.118 19.544 126.086 19.976 126.022 20.36H116.302C116.382 21.32 116.718 22.072 117.31 22.616C117.902 23.16 118.63 23.432 119.494 23.432C120.742 23.432 121.63 22.896 122.158 21.824H125.782C125.398 23.104 124.662 24.16 123.574 24.992C122.486 25.808 121.15 26.216 119.566 26.216C118.286 26.216 117.134 25.936 116.11 25.376C115.102 24.8 114.31 23.992 113.734 22.952C113.174 21.912 112.894 20.712 112.894 19.352C112.894 17.976 113.174 16.768 113.734 15.728C114.294 14.688 115.078 13.888 116.086 13.328C117.094 12.768 118.254 12.488 119.566 12.488C120.83 12.488 121.958 12.76 122.95 13.304C123.958 13.848 124.734 14.624 125.278 15.632C125.838 16.624 126.118 17.768 126.118 19.064ZM122.638 18.104C122.622 17.24 122.31 16.552 121.702 16.04C121.094 15.512 120.35 15.248 119.47 15.248C118.638 15.248 117.934 15.504 117.358 16.016C116.798 16.512 116.454 17.208 116.326 18.104H122.638Z" fill="#2D2D2D"/>
<rect y="245" width="689" height="15" rx="7.5" fill="#F3F3F3"/>
<circle cx="272" cy="253" r="16" fill="#B91BFF"/>
<path d="M16.032 206.832L12.912 218H10.272L8.176 210.048L5.984 218L3.36 218.016L0.352 206.832H2.752L4.72 215.504L6.992 206.832H9.488L11.632 215.456L13.616 206.832H16.032ZM24.3426 215.872H19.8946L19.1586 218H16.8066L20.8226 206.816H23.4306L27.4466 218H25.0786L24.3426 215.872ZM23.7346 214.08L22.1186 209.408L20.5026 214.08H23.7346ZM34.7078 218L32.2438 213.648H31.1878V218H28.9478V206.832H33.1398C34.0038 206.832 34.7398 206.987 35.3478 207.296C35.9558 207.595 36.4091 208.005 36.7078 208.528C37.0171 209.04 37.1718 209.616 37.1718 210.256C37.1718 210.992 36.9584 211.659 36.5318 212.256C36.1051 212.843 35.4704 213.248 34.6278 213.472L37.2998 218H34.7078ZM31.1878 211.968H33.0598C33.6678 211.968 34.1211 211.824 34.4198 211.536C34.7184 211.237 34.8678 210.827 34.8678 210.304C34.8678 209.792 34.7184 209.397 34.4198 209.12C34.1211 208.832 33.6678 208.688 33.0598 208.688H31.1878V211.968ZM51.3738 206.832V218H49.1338V210.736L46.1418 218H44.4458L41.4378 210.736V218H39.1978V206.832H41.7418L45.2938 215.136L48.8458 206.832H51.3738Z" fill="black"/>
<path d="M644.81 212.4C644.81 211.301 645.055 210.32 645.546 209.456C646.047 208.581 646.725 207.904 647.578 207.424C648.442 206.933 649.407 206.688 650.474 206.688C651.722 206.688 652.815 207.008 653.754 207.648C654.693 208.288 655.349 209.173 655.722 210.304H653.146C652.89 209.771 652.527 209.371 652.058 209.104C651.599 208.837 651.066 208.704 650.458 208.704C649.807 208.704 649.226 208.859 648.714 209.168C648.213 209.467 647.818 209.893 647.53 210.448C647.253 211.003 647.114 211.653 647.114 212.4C647.114 213.136 647.253 213.787 647.53 214.352C647.818 214.907 648.213 215.339 648.714 215.648C649.226 215.947 649.807 216.096 650.458 216.096C651.066 216.096 651.599 215.963 652.058 215.696C652.527 215.419 652.89 215.013 653.146 214.48H655.722C655.349 215.621 654.693 216.512 653.754 217.152C652.826 217.781 651.733 218.096 650.474 218.096C649.407 218.096 648.442 217.856 647.578 217.376C646.725 216.885 646.047 216.208 645.546 215.344C645.055 214.48 644.81 213.499 644.81 212.4ZM662.819 218.112C661.774 218.112 660.814 217.867 659.939 217.376C659.065 216.885 658.371 216.208 657.859 215.344C657.347 214.469 657.091 213.483 657.091 212.384C657.091 211.296 657.347 210.32 657.859 209.456C658.371 208.581 659.065 207.899 659.939 207.408C660.814 206.917 661.774 206.672 662.819 206.672C663.875 206.672 664.835 206.917 665.699 207.408C666.574 207.899 667.262 208.581 667.763 209.456C668.275 210.32 668.531 211.296 668.531 212.384C668.531 213.483 668.275 214.469 667.763 215.344C667.262 216.208 666.574 216.885 665.699 217.376C664.825 217.867 663.865 218.112 662.819 218.112ZM662.819 216.112C663.491 216.112 664.083 215.963 664.595 215.664C665.107 215.355 665.507 214.917 665.795 214.352C666.083 213.787 666.227 213.131 666.227 212.384C666.227 211.637 666.083 210.987 665.795 210.432C665.507 209.867 665.107 209.435 664.595 209.136C664.083 208.837 663.491 208.688 662.819 208.688C662.147 208.688 661.55 208.837 661.027 209.136C660.515 209.435 660.115 209.867 659.827 210.432C659.539 210.987 659.395 211.637 659.395 212.384C659.395 213.131 659.539 213.787 659.827 214.352C660.115 214.917 660.515 215.355 661.027 215.664C661.55 215.963 662.147 216.112 662.819 216.112ZM675.382 218.112C674.336 218.112 673.376 217.867 672.502 217.376C671.627 216.885 670.934 216.208 670.422 215.344C669.91 214.469 669.654 213.483 669.654 212.384C669.654 211.296 669.91 210.32 670.422 209.456C670.934 208.581 671.627 207.899 672.502 207.408C673.376 206.917 674.336 206.672 675.382 206.672C676.438 206.672 677.398 206.917 678.262 207.408C679.136 207.899 679.824 208.581 680.326 209.456C680.838 210.32 681.094 211.296 681.094 212.384C681.094 213.483 680.838 214.469 680.326 215.344C679.824 216.208 679.136 216.885 678.262 217.376C677.387 217.867 676.427 218.112 675.382 218.112ZM675.382 216.112C676.054 216.112 676.646 215.963 677.158 215.664C677.67 215.355 678.07 214.917 678.358 214.352C678.646 213.787 678.79 213.131 678.79 212.384C678.79 211.637 678.646 210.987 678.358 210.432C678.07 209.867 677.67 209.435 677.158 209.136C676.646 208.837 676.054 208.688 675.382 208.688C674.71 208.688 674.112 208.837 673.59 209.136C673.078 209.435 672.678 209.867 672.39 210.432C672.102 210.987 671.958 211.637 671.958 212.384C671.958 213.131 672.102 213.787 672.39 214.352C672.678 214.917 673.078 215.355 673.59 215.664C674.112 215.963 674.71 216.112 675.382 216.112ZM685 216.224H688.68V218H682.76V206.832H685V216.224Z" fill="black"/>
<rect y="343" width="689" height="15" rx="7.5" fill="#F3F3F3"/>
<circle cx="313" cy="350" r="16" fill="#B91BFF"/>
<path d="M8 304.832V306.64H3.344V309.504H6.912V311.28H3.344V316H1.104V304.832H8ZM11.7964 304.832V311.744C11.7964 312.501 11.9937 313.083 12.3884 313.488C12.783 313.883 13.3377 314.08 14.0524 314.08C14.7777 314.08 15.3377 313.883 15.7324 313.488C16.127 313.083 16.3244 312.501 16.3244 311.744V304.832H18.5804V311.728C18.5804 312.677 18.3724 313.483 17.9564 314.144C17.551 314.795 17.0017 315.285 16.3084 315.616C15.6257 315.947 14.863 316.112 14.0204 316.112C13.1884 316.112 12.431 315.947 11.7484 315.616C11.0764 315.285 10.543 314.795 10.1484 314.144C9.75371 313.483 9.55638 312.677 9.55638 311.728V304.832H11.7964ZM30.2966 316H28.0566L22.9846 308.336V316H20.7446V304.816H22.9846L28.0566 312.496V304.816H30.2966V316Z" fill="black"/>
<path d="M627.523 316.112C626.744 316.112 626.04 315.979 625.411 315.712C624.792 315.445 624.301 315.061 623.939 314.56C623.576 314.059 623.389 313.467 623.379 312.784H625.779C625.811 313.243 625.971 313.605 626.259 313.872C626.557 314.139 626.963 314.272 627.475 314.272C627.997 314.272 628.408 314.149 628.707 313.904C629.005 313.648 629.155 313.317 629.155 312.912C629.155 312.581 629.053 312.309 628.851 312.096C628.648 311.883 628.392 311.717 628.083 311.6C627.784 311.472 627.368 311.333 626.835 311.184C626.109 310.971 625.517 310.763 625.059 310.56C624.611 310.347 624.221 310.032 623.891 309.616C623.571 309.189 623.411 308.624 623.411 307.92C623.411 307.259 623.576 306.683 623.907 306.192C624.237 305.701 624.701 305.328 625.299 305.072C625.896 304.805 626.579 304.672 627.347 304.672C628.499 304.672 629.432 304.955 630.147 305.52C630.872 306.075 631.272 306.853 631.347 307.856H628.883C628.861 307.472 628.696 307.157 628.387 306.912C628.088 306.656 627.688 306.528 627.187 306.528C626.749 306.528 626.397 306.64 626.131 306.864C625.875 307.088 625.747 307.413 625.747 307.84C625.747 308.139 625.843 308.389 626.035 308.592C626.237 308.784 626.483 308.944 626.771 309.072C627.069 309.189 627.485 309.328 628.019 309.488C628.744 309.701 629.336 309.915 629.795 310.128C630.253 310.341 630.648 310.661 630.979 311.088C631.309 311.515 631.475 312.075 631.475 312.768C631.475 313.365 631.32 313.92 631.01 314.432C630.701 314.944 630.248 315.355 629.651 315.664C629.053 315.963 628.344 316.112 627.523 316.112ZM635.657 306.64V309.44H639.417V311.216H635.657V314.176H639.897V316H633.417V304.816H639.897V306.64H635.657ZM647.692 316L645.228 311.648H644.172V316H641.932V304.832H646.124C646.988 304.832 647.724 304.987 648.332 305.296C648.94 305.595 649.393 306.005 649.692 306.528C650.001 307.04 650.156 307.616 650.156 308.256C650.156 308.992 649.943 309.659 649.516 310.256C649.089 310.843 648.455 311.248 647.612 311.472L650.284 316H647.692ZM644.172 309.968H646.044C646.652 309.968 647.105 309.824 647.404 309.536C647.703 309.237 647.852 308.827 647.852 308.304C647.852 307.792 647.703 307.397 647.404 307.12C647.105 306.832 646.652 306.688 646.044 306.688H644.172V309.968ZM654.422 304.832V316H652.182V304.832H654.422ZM661.819 316.112C660.774 316.112 659.814 315.867 658.939 315.376C658.065 314.885 657.371 314.208 656.859 313.344C656.347 312.469 656.091 311.483 656.091 310.384C656.091 309.296 656.347 308.32 656.859 307.456C657.371 306.581 658.065 305.899 658.939 305.408C659.814 304.917 660.774 304.672 661.819 304.672C662.875 304.672 663.835 304.917 664.699 305.408C665.574 305.899 666.262 306.581 666.763 307.456C667.275 308.32 667.531 309.296 667.531 310.384C667.531 311.483 667.275 312.469 666.763 313.344C666.262 314.208 665.574 314.885 664.699 315.376C663.825 315.867 662.865 316.112 661.819 316.112ZM661.819 314.112C662.491 314.112 663.083 313.963 663.595 313.664C664.107 313.355 664.507 312.917 664.795 312.352C665.083 311.787 665.227 311.131 665.227 310.384C665.227 309.637 665.083 308.987 664.795 308.432C664.507 307.867 664.107 307.435 663.595 307.136C663.083 306.837 662.491 306.688 661.819 306.688C661.147 306.688 660.55 306.837 660.027 307.136C659.515 307.435 659.115 307.867 658.827 308.432C658.539 308.987 658.395 309.637 658.395 310.384C658.395 311.131 658.539 311.787 658.827 312.352C659.115 312.917 659.515 313.355 660.027 313.664C660.55 313.963 661.147 314.112 661.819 314.112ZM671.406 304.832V311.744C671.406 312.501 671.603 313.083 671.998 313.488C672.392 313.883 672.947 314.08 673.662 314.08C674.387 314.08 674.947 313.883 675.342 313.488C675.736 313.083 675.934 312.501 675.934 311.744V304.832H678.19V311.728C678.19 312.677 677.982 313.483 677.566 314.144C677.16 314.795 676.611 315.285 675.918 315.616C675.235 315.947 674.472 316.112 673.63 316.112C672.798 316.112 672.04 315.947 671.358 315.616C670.686 315.285 670.152 314.795 669.758 314.144C669.363 313.483 669.166 312.677 669.166 311.728V304.832H671.406ZM684.21 316.112C683.431 316.112 682.727 315.979 682.098 315.712C681.479 315.445 680.989 315.061 680.626 314.56C680.263 314.059 680.077 313.467 680.066 312.784H682.466C682.498 313.243 682.658 313.605 682.946 313.872C683.245 314.139 683.65 314.272 684.162 314.272C684.685 314.272 685.095 314.149 685.394 313.904C685.693 313.648 685.842 313.317 685.842 312.912C685.842 312.581 685.741 312.309 685.538 312.096C685.335 311.883 685.079 311.717 684.77 311.6C684.471 311.472 684.055 311.333 683.522 311.184C682.797 310.971 682.205 310.763 681.746 310.56C681.298 310.347 680.909 310.032 680.578 309.616C680.258 309.189 680.098 308.624 680.098 307.92C680.098 307.259 680.263 306.683 680.594 306.192C680.925 305.701 681.389 305.328 681.986 305.072C682.583 304.805 683.266 304.672 684.034 304.672C685.186 304.672 686.119 304.955 686.834 305.52C687.559 306.075 687.959 306.853 688.034 307.856H685.57C685.549 307.472 685.383 307.157 685.074 306.912C684.775 306.656 684.375 306.528 683.874 306.528C683.437 306.528 683.085 306.64 682.818 306.864C682.562 307.088 682.434 307.413 682.434 307.84C682.434 308.139 682.53 308.389 682.722 308.592C682.925 308.784 683.17 308.944 683.458 309.072C683.757 309.189 684.173 309.328 684.706 309.488C685.431 309.701 686.023 309.915 686.482 310.128C686.941 310.341 687.335 310.661 687.666 311.088C687.997 311.515 688.162 312.075 688.162 312.768C688.162 313.365 688.007 313.92 687.698 314.432C687.389 314.944 686.935 315.355 686.338 315.664C685.741 315.963 685.031 316.112 684.21 316.112Z" fill="black"/>
<rect y="441" width="689" height="15" rx="7.5" fill="#F3F3F3"/>
<rect y="539" width="689" height="15" rx="7.5" fill="#F3F3F3"/>
<circle cx="93" cy="449" r="16" fill="#B91BFF"/>
<circle cx="125" cy="547" r="16" fill="#B91BFF"/>
<path d="M13.28 402.832V414H11.04V406.736L8.048 414H6.352L3.344 406.736V414H1.104V402.832H3.648L7.2 411.136L10.752 402.832H13.28ZM20.6786 414.112C19.6333 414.112 18.6733 413.867 17.7986 413.376C16.924 412.885 16.2306 412.208 15.7186 411.344C15.2066 410.469 14.9506 409.483 14.9506 408.384C14.9506 407.296 15.2066 406.32 15.7186 405.456C16.2306 404.581 16.924 403.899 17.7986 403.408C18.6733 402.917 19.6333 402.672 20.6786 402.672C21.7346 402.672 22.6946 402.917 23.5586 403.408C24.4333 403.899 25.1213 404.581 25.6226 405.456C26.1346 406.32 26.3906 407.296 26.3906 408.384C26.3906 409.483 26.1346 410.469 25.6226 411.344C25.1213 412.208 24.4333 412.885 23.5586 413.376C22.684 413.867 21.724 414.112 20.6786 414.112ZM20.6786 412.112C21.3506 412.112 21.9426 411.963 22.4546 411.664C22.9666 411.355 23.3666 410.917 23.6546 410.352C23.9426 409.787 24.0866 409.131 24.0866 408.384C24.0866 407.637 23.9426 406.987 23.6546 406.432C23.3666 405.867 22.9666 405.435 22.4546 405.136C21.9426 404.837 21.3506 404.688 20.6786 404.688C20.0066 404.688 19.4093 404.837 18.8866 405.136C18.3746 405.435 17.9746 405.867 17.6866 406.432C17.3986 406.987 17.2546 407.637 17.2546 408.384C17.2546 409.131 17.3986 409.787 17.6866 410.352C17.9746 410.917 18.3746 411.355 18.8866 411.664C19.4093 411.963 20.0066 412.112 20.6786 412.112ZM31.9611 402.832C33.1345 402.832 34.1638 403.061 35.0491 403.52C35.9451 403.979 36.6331 404.635 37.1131 405.488C37.6038 406.331 37.8491 407.312 37.8491 408.432C37.8491 409.552 37.6038 410.533 37.1131 411.376C36.6331 412.208 35.9451 412.853 35.0491 413.312C34.1638 413.771 33.1345 414 31.9611 414H28.0571V402.832H31.9611ZM31.8811 412.096C33.0545 412.096 33.9611 411.776 34.6011 411.136C35.2411 410.496 35.5611 409.595 35.5611 408.432C35.5611 407.269 35.2411 406.363 34.6011 405.712C33.9611 405.051 33.0545 404.72 31.8811 404.72H30.2971V412.096H31.8811ZM41.7659 404.64V407.44H45.5259V409.216H41.7659V412.176H46.0059V414H39.5259V402.816H46.0059V404.64H41.7659ZM53.8015 414L51.3375 409.648H50.2815V414H48.0415V402.832H52.2335C53.0975 402.832 53.8335 402.987 54.4415 403.296C55.0495 403.595 55.5028 404.005 55.8015 404.528C56.1108 405.04 56.2655 405.616 56.2655 406.256C56.2655 406.992 56.0522 407.659 55.6255 408.256C55.1988 408.843 54.5642 409.248 53.7215 409.472L56.3935 414H53.8015ZM50.2815 407.968H52.1535C52.7615 407.968 53.2148 407.824 53.5135 407.536C53.8122 407.237 53.9615 406.827 53.9615 406.304C53.9615 405.792 53.8122 405.397 53.5135 405.12C53.2148 404.832 52.7615 404.688 52.1535 404.688H50.2815V407.968ZM67.8435 414H65.6035L60.5315 406.336V414H58.2915V402.816H60.5315L65.6035 410.496V402.816H67.8435V414Z" fill="black"/>
<path d="M0.56 506.4C0.56 505.301 0.805333 504.32 1.296 503.456C1.79733 502.581 2.47467 501.904 3.328 501.424C4.192 500.933 5.15733 500.688 6.224 500.688C7.472 500.688 8.56533 501.008 9.504 501.648C10.4427 502.288 11.0987 503.173 11.472 504.304H8.896C8.64 503.771 8.27733 503.371 7.808 503.104C7.34933 502.837 6.816 502.704 6.208 502.704C5.55733 502.704 4.976 502.859 4.464 503.168C3.96267 503.467 3.568 503.893 3.28 504.448C3.00267 505.003 2.864 505.653 2.864 506.4C2.864 507.136 3.00267 507.787 3.28 508.352C3.568 508.907 3.96267 509.339 4.464 509.648C4.976 509.947 5.55733 510.096 6.208 510.096C6.816 510.096 7.34933 509.963 7.808 509.696C8.27733 509.419 8.64 509.013 8.896 508.48H11.472C11.0987 509.621 10.4427 510.512 9.504 511.152C8.576 511.781 7.48267 512.096 6.224 512.096C5.15733 512.096 4.192 511.856 3.328 511.376C2.47467 510.885 1.79733 510.208 1.296 509.344C0.805333 508.48 0.56 507.499 0.56 506.4ZM18.5693 512.112C17.5239 512.112 16.5639 511.867 15.6893 511.376C14.8146 510.885 14.1213 510.208 13.6093 509.344C13.0973 508.469 12.8413 507.483 12.8413 506.384C12.8413 505.296 13.0973 504.32 13.6093 503.456C14.1213 502.581 14.8146 501.899 15.6893 501.408C16.5639 500.917 17.5239 500.672 18.5693 500.672C19.6253 500.672 20.5853 500.917 21.4493 501.408C22.3239 501.899 23.0119 502.581 23.5133 503.456C24.0253 504.32 24.2813 505.296 24.2813 506.384C24.2813 507.483 24.0253 508.469 23.5133 509.344C23.0119 510.208 22.3239 510.885 21.4493 511.376C20.5746 511.867 19.6146 512.112 18.5693 512.112ZM18.5693 510.112C19.2413 510.112 19.8333 509.963 20.3453 509.664C20.8573 509.355 21.2573 508.917 21.5453 508.352C21.8333 507.787 21.9773 507.131 21.9773 506.384C21.9773 505.637 21.8333 504.987 21.5453 504.432C21.2573 503.867 20.8573 503.435 20.3453 503.136C19.8333 502.837 19.2413 502.688 18.5693 502.688C17.8973 502.688 17.2999 502.837 16.7773 503.136C16.2653 503.435 15.8653 503.867 15.5773 504.432C15.2893 504.987 15.1453 505.637 15.1453 506.384C15.1453 507.131 15.2893 507.787 15.5773 508.352C15.8653 508.917 16.2653 509.355 16.7773 509.664C17.2999 509.963 17.8973 510.112 18.5693 510.112ZM28.1878 510.224H31.8678V512H25.9478V500.832H28.1878V510.224ZM35.5315 510.224H39.2115V512H33.2915V500.832H35.5315V510.224ZM47.4833 509.872H43.0353L42.2993 512H39.9473L43.9633 500.816H46.5713L50.5873 512H48.2193L47.4833 509.872ZM46.8753 508.08L45.2593 503.408L43.6432 508.08H46.8753ZM58.4244 506.272C59.0537 506.389 59.571 506.704 59.9764 507.216C60.3817 507.728 60.5844 508.315 60.5844 508.976C60.5844 509.573 60.435 510.101 60.1364 510.56C59.8484 511.008 59.427 511.36 58.8724 511.616C58.3177 511.872 57.6617 512 56.9044 512H52.0884V500.832H56.6964C57.4537 500.832 58.1044 500.955 58.6484 501.2C59.203 501.445 59.619 501.787 59.8964 502.224C60.1844 502.661 60.3284 503.157 60.3284 503.712C60.3284 504.363 60.1524 504.907 59.8004 505.344C59.459 505.781 59.0004 506.091 58.4244 506.272ZM54.3284 505.44H56.3764C56.9097 505.44 57.3204 505.323 57.6084 505.088C57.8964 504.843 58.0404 504.496 58.0404 504.048C58.0404 503.6 57.8964 503.253 57.6084 503.008C57.3204 502.763 56.9097 502.64 56.3764 502.64H54.3284V505.44ZM56.5844 510.176C57.1284 510.176 57.5497 510.048 57.8484 509.792C58.1577 509.536 58.3124 509.173 58.3124 508.704C58.3124 508.224 58.1524 507.851 57.8324 507.584C57.5124 507.307 57.0804 507.168 56.5364 507.168H54.3284V510.176H56.5844ZM67.5536 512.112C66.5083 512.112 65.5483 511.867 64.6736 511.376C63.799 510.885 63.1056 510.208 62.5936 509.344C62.0816 508.469 61.8256 507.483 61.8256 506.384C61.8256 505.296 62.0816 504.32 62.5936 503.456C63.1056 502.581 63.799 501.899 64.6736 501.408C65.5483 500.917 66.5083 500.672 67.5536 500.672C68.6096 500.672 69.5696 500.917 70.4336 501.408C71.3083 501.899 71.9963 502.581 72.4976 503.456C73.0096 504.32 73.2656 505.296 73.2656 506.384C73.2656 507.483 73.0096 508.469 72.4976 509.344C71.9963 510.208 71.3083 510.885 70.4336 511.376C69.559 511.867 68.599 512.112 67.5536 512.112ZM67.5536 510.112C68.2256 510.112 68.8176 509.963 69.3296 509.664C69.8416 509.355 70.2416 508.917 70.5296 508.352C70.8176 507.787 70.9616 507.131 70.9616 506.384C70.9616 505.637 70.8176 504.987 70.5296 504.432C70.2416 503.867 69.8416 503.435 69.3296 503.136C68.8176 502.837 68.2256 502.688 67.5536 502.688C66.8816 502.688 66.2843 502.837 65.7616 503.136C65.2496 503.435 64.8496 503.867 64.5616 504.432C64.2736 504.987 64.1296 505.637 64.1296 506.384C64.1296 507.131 64.2736 507.787 64.5616 508.352C64.8496 508.917 65.2496 509.355 65.7616 509.664C66.2843 509.963 66.8816 510.112 67.5536 510.112ZM80.6921 512L78.2281 507.648H77.1721V512H74.9321V500.832H79.1241C79.9881 500.832 80.7241 500.987 81.3321 501.296C81.9401 501.595 82.3935 502.005 82.6921 502.528C83.0015 503.04 83.1561 503.616 83.1561 504.256C83.1561 504.992 82.9428 505.659 82.5161 506.256C82.0895 506.843 81.4548 507.248 80.6121 507.472L83.2841 512H80.6921ZM77.1721 505.968H79.0441C79.6521 505.968 80.1055 505.824 80.4041 505.536C80.7028 505.237 80.8521 504.827 80.8521 504.304C80.8521 503.792 80.7028 503.397 80.4041 503.12C80.1055 502.832 79.6521 502.688 79.0441 502.688H77.1721V505.968ZM92.0301 509.872H87.5821L86.8461 512H84.4941L88.5101 500.816H91.1181L95.1341 512H92.7661L92.0301 509.872ZM91.4221 508.08L89.8061 503.408L88.1901 508.08H91.4221ZM104.235 500.832V502.64H101.259V512H99.0193V502.64H96.0433V500.832H104.235ZM108.11 500.832V512H105.87V500.832H108.11ZM120.355 500.832L116.259 512H113.539L109.443 500.832H111.843L114.915 509.712L117.971 500.832H120.355ZM123.938 502.64V505.44H127.698V507.216H123.938V510.176H128.178V512H121.698V500.816H128.178V502.64H123.938Z" fill="black"/>
<path d="M594.032 402.832V404.64H591.056V414H588.816V404.64H585.84V402.832H594.032ZM601.427 414L598.963 409.648H597.907V414H595.667V402.832H599.859C600.723 402.832 601.459 402.987 602.067 403.296C602.675 403.595 603.128 404.005 603.427 404.528C603.736 405.04 603.891 405.616 603.891 406.256C603.891 406.992 603.677 407.659 603.251 408.256C602.824 408.843 602.189 409.248 601.347 409.472L604.019 414H601.427ZM597.907 407.968H599.779C600.387 407.968 600.84 407.824 601.139 407.536C601.437 407.237 601.587 406.827 601.587 406.304C601.587 405.792 601.437 405.397 601.139 405.12C600.84 404.832 600.387 404.688 599.779 404.688H597.907V407.968ZM612.765 411.872H608.317L607.581 414H605.229L609.245 402.816H611.853L615.869 414H613.501L612.765 411.872ZM612.157 410.08L610.541 405.408L608.924 410.08H612.157ZM621.274 402.832C622.447 402.832 623.476 403.061 624.362 403.52C625.258 403.979 625.946 404.635 626.426 405.488C626.916 406.331 627.162 407.312 627.162 408.432C627.162 409.552 626.916 410.533 626.426 411.376C625.946 412.208 625.258 412.853 624.362 413.312C623.476 413.771 622.447 414 621.274 414H617.37V402.832H621.274ZM621.194 412.096C622.367 412.096 623.274 411.776 623.914 411.136C624.554 410.496 624.874 409.595 624.874 408.432C624.874 407.269 624.554 406.363 623.914 405.712C623.274 405.051 622.367 404.72 621.194 404.72H619.61V412.096H621.194ZM631.078 402.832V414H628.838V402.832H631.078ZM640.892 402.832V404.64H637.916V414H635.676V404.64H632.7V402.832H640.892ZM644.766 402.832V414H642.526V402.832H644.766ZM652.163 414.112C651.118 414.112 650.158 413.867 649.283 413.376C648.408 412.885 647.715 412.208 647.203 411.344C646.691 410.469 646.435 409.483 646.435 408.384C646.435 407.296 646.691 406.32 647.203 405.456C647.715 404.581 648.408 403.899 649.283 403.408C650.158 402.917 651.118 402.672 652.163 402.672C653.219 402.672 654.179 402.917 655.043 403.408C655.918 403.899 656.606 404.581 657.107 405.456C657.619 406.32 657.875 407.296 657.875 408.384C657.875 409.483 657.619 410.469 657.107 411.344C656.606 412.208 655.918 412.885 655.043 413.376C654.168 413.867 653.208 414.112 652.163 414.112ZM652.163 412.112C652.835 412.112 653.427 411.963 653.939 411.664C654.451 411.355 654.851 410.917 655.139 410.352C655.427 409.787 655.571 409.131 655.571 408.384C655.571 407.637 655.427 406.987 655.139 406.432C654.851 405.867 654.451 405.435 653.939 405.136C653.427 404.837 652.835 404.688 652.163 404.688C651.491 404.688 650.894 404.837 650.371 405.136C649.859 405.435 649.459 405.867 649.171 406.432C648.883 406.987 648.739 407.637 648.739 408.384C648.739 409.131 648.883 409.787 649.171 410.352C649.459 410.917 649.859 411.355 650.371 411.664C650.894 411.963 651.491 412.112 652.163 412.112ZM669.094 414H666.854L661.782 406.336V414H659.542V402.816H661.782L666.854 410.496V402.816H669.094V414ZM678.155 411.872H673.707L672.971 414H670.619L674.635 402.816H677.243L681.259 414H678.891L678.155 411.872ZM677.547 410.08L675.931 405.408L674.315 410.08H677.547ZM685 412.224H688.68V414H682.76V402.832H685V412.224Z" fill="black"/>
<path d="M568.78 509.872H564.332L563.596 512H561.244L565.26 500.816H567.868L571.884 512H569.516L568.78 509.872ZM568.172 508.08L566.556 503.408L564.94 508.08H568.172ZM575.593 500.832V507.744C575.593 508.501 575.791 509.083 576.185 509.488C576.58 509.883 577.135 510.08 577.849 510.08C578.575 510.08 579.135 509.883 579.529 509.488C579.924 509.083 580.121 508.501 580.121 507.744V500.832H582.377V507.728C582.377 508.677 582.169 509.483 581.753 510.144C581.348 510.795 580.799 511.285 580.105 511.616C579.423 511.947 578.66 512.112 577.817 512.112C576.985 512.112 576.228 511.947 575.545 511.616C574.873 511.285 574.34 510.795 573.945 510.144C573.551 509.483 573.353 508.677 573.353 507.728V500.832H575.593ZM592.142 500.832V502.64H589.166V512H586.926V502.64H583.95V500.832H592.142ZM603.04 500.832V512H600.8V507.248H596.016V512H593.776V500.832H596.016V505.424H600.8V500.832H603.04ZM610.429 512.112C609.383 512.112 608.423 511.867 607.549 511.376C606.674 510.885 605.981 510.208 605.469 509.344C604.957 508.469 604.701 507.483 604.701 506.384C604.701 505.296 604.957 504.32 605.469 503.456C605.981 502.581 606.674 501.899 607.549 501.408C608.423 500.917 609.383 500.672 610.429 500.672C611.485 500.672 612.445 500.917 613.309 501.408C614.183 501.899 614.871 502.581 615.373 503.456C615.885 504.32 616.141 505.296 616.141 506.384C616.141 507.483 615.885 508.469 615.373 509.344C614.871 510.208 614.183 510.885 613.309 511.376C612.434 511.867 611.474 512.112 610.429 512.112ZM610.429 510.112C611.101 510.112 611.693 509.963 612.205 509.664C612.717 509.355 613.117 508.917 613.405 508.352C613.693 507.787 613.837 507.131 613.837 506.384C613.837 505.637 613.693 504.987 613.405 504.432C613.117 503.867 612.717 503.435 612.205 503.136C611.693 502.837 611.101 502.688 610.429 502.688C609.757 502.688 609.159 502.837 608.637 503.136C608.125 503.435 607.725 503.867 607.437 504.432C607.149 504.987 607.005 505.637 607.005 506.384C607.005 507.131 607.149 507.787 607.437 508.352C607.725 508.917 608.125 509.355 608.637 509.664C609.159 509.963 609.757 510.112 610.429 510.112ZM623.567 512L621.103 507.648H620.047V512H617.807V500.832H621.999C622.863 500.832 623.599 500.987 624.207 501.296C624.815 501.595 625.268 502.005 625.567 502.528C625.876 503.04 626.031 503.616 626.031 504.256C626.031 504.992 625.818 505.659 625.391 506.256C624.964 506.843 624.33 507.248 623.487 507.472L626.159 512H623.567ZM620.047 505.968H621.919C622.527 505.968 622.98 505.824 623.279 505.536C623.578 505.237 623.727 504.827 623.727 504.304C623.727 503.792 623.578 503.397 623.279 503.12C622.98 502.832 622.527 502.688 621.919 502.688H620.047V505.968ZM630.297 500.832V512H628.057V500.832H630.297ZM640.11 500.832V502.64H637.134V512H634.894V502.64H631.918V500.832H640.11ZM648.593 509.872H644.145L643.409 512H641.057L645.073 500.816H647.681L651.697 512H649.329L648.593 509.872ZM647.985 508.08L646.369 503.408L644.753 508.08H647.985ZM660.798 500.832V502.64H657.822V512H655.582V502.64H652.606V500.832H660.798ZM664.672 500.832V512H662.432V500.832H664.672ZM673.733 509.872H669.285L668.549 512H666.197L670.213 500.816H672.821L676.837 512H674.469L673.733 509.872ZM673.125 508.08L671.509 503.408L669.893 508.08H673.125ZM687.89 512H685.65L680.578 504.336V512H678.338V500.816H680.578L685.65 508.496V500.816H687.89V512Z" fill="black"/>
<path d="M24.7 83C24.7 81.6267 25.0067 80.4 25.62 79.32C26.2467 78.2267 27.0933 77.38 28.16 76.78C29.24 76.1667 30.4467 75.86 31.78 75.86C33.34 75.86 34.7067 76.26 35.88 77.06C37.0533 77.86 37.8733 78.9667 38.34 80.38H35.12C34.8 79.7133 34.3467 79.2133 33.76 78.88C33.1867 78.5467 32.52 78.38 31.76 78.38C30.9467 78.38 30.22 78.5733 29.58 78.96C28.9533 79.3333 28.46 79.8667 28.1 80.56C27.7533 81.2533 27.58 82.0667 27.58 83C27.58 83.92 27.7533 84.7333 28.1 85.44C28.46 86.1333 28.9533 86.6733 29.58 87.06C30.22 87.4333 30.9467 87.62 31.76 87.62C32.52 87.62 33.1867 87.4533 33.76 87.12C34.3467 86.7733 34.8 86.2667 35.12 85.6H38.34C37.8733 87.0267 37.0533 88.14 35.88 88.94C34.72 89.7267 33.3533 90.12 31.78 90.12C30.4467 90.12 29.24 89.82 28.16 89.22C27.0933 88.6067 26.2467 87.76 25.62 86.68C25.0067 85.6 24.7 84.3733 24.7 83ZM43.5316 80.64C43.8916 80.0533 44.3582 79.5933 44.9316 79.26C45.5182 78.9267 46.1849 78.76 46.9316 78.76V81.7H46.1916C45.3116 81.7 44.6449 81.9067 44.1916 82.32C43.7516 82.7333 43.5316 83.4533 43.5316 84.48V90H40.7316V78.92H43.5316V80.64ZM59.1175 84.22C59.1175 84.62 59.0908 84.98 59.0375 85.3H50.9375C51.0042 86.1 51.2842 86.7267 51.7775 87.18C52.2708 87.6333 52.8775 87.86 53.5975 87.86C54.6375 87.86 55.3775 87.4133 55.8175 86.52H58.8375C58.5175 87.5867 57.9042 88.4667 56.9975 89.16C56.0908 89.84 54.9775 90.18 53.6575 90.18C52.5908 90.18 51.6308 89.9467 50.7775 89.48C49.9375 89 49.2775 88.3267 48.7975 87.46C48.3308 86.5933 48.0975 85.5933 48.0975 84.46C48.0975 83.3133 48.3308 82.3067 48.7975 81.44C49.2642 80.5733 49.9175 79.9067 50.7575 79.44C51.5975 78.9733 52.5642 78.74 53.6575 78.74C54.7108 78.74 55.6508 78.9667 56.4775 79.42C57.3175 79.8733 57.9642 80.52 58.4175 81.36C58.8842 82.1867 59.1175 83.14 59.1175 84.22ZM56.2175 83.42C56.2042 82.7 55.9442 82.1267 55.4375 81.7C54.9308 81.26 54.3108 81.04 53.5775 81.04C52.8842 81.04 52.2975 81.2533 51.8175 81.68C51.3508 82.0933 51.0642 82.6733 50.9575 83.42H56.2175ZM60.4412 84.42C60.4412 83.3 60.6612 82.3067 61.1012 81.44C61.5546 80.5733 62.1613 79.9067 62.9213 79.44C63.6946 78.9733 64.5546 78.74 65.5013 78.74C66.3279 78.74 67.0479 78.9067 67.6613 79.24C68.2879 79.5733 68.7879 79.9933 69.1613 80.5V78.92H71.9813V90H69.1613V88.38C68.8013 88.9 68.3013 89.3333 67.6613 89.68C67.0346 90.0133 66.3079 90.18 65.4813 90.18C64.5479 90.18 63.6946 89.94 62.9213 89.46C62.1613 88.98 61.5546 88.3067 61.1012 87.44C60.6612 86.56 60.4412 85.5533 60.4412 84.42ZM69.1613 84.46C69.1613 83.78 69.0279 83.2 68.7613 82.72C68.4946 82.2267 68.1346 81.8533 67.6813 81.6C67.2279 81.3333 66.7413 81.2 66.2213 81.2C65.7013 81.2 65.2213 81.3267 64.7812 81.58C64.3413 81.8333 63.9813 82.2067 63.7013 82.7C63.4346 83.18 63.3013 83.7533 63.3013 84.42C63.3013 85.0867 63.4346 85.6733 63.7013 86.18C63.9813 86.6733 64.3413 87.0533 64.7812 87.32C65.2346 87.5867 65.7146 87.72 66.2213 87.72C66.7413 87.72 67.2279 87.5933 67.6813 87.34C68.1346 87.0733 68.4946 86.7 68.7613 86.22C69.0279 85.7267 69.1613 85.14 69.1613 84.46ZM77.9759 81.22V86.58C77.9759 86.9533 78.0626 87.2267 78.2359 87.4C78.4226 87.56 78.7293 87.64 79.1559 87.64H80.4559V90H78.6959C76.3359 90 75.1559 88.8533 75.1559 86.56V81.22H73.8359V78.92H75.1559V76.18H77.9759V78.92H80.4559V81.22H77.9759ZM87.3898 90.18C86.3232 90.18 85.3632 89.9467 84.5098 89.48C83.6565 89 82.9832 88.3267 82.4898 87.46C82.0098 86.5933 81.7698 85.5933 81.7698 84.46C81.7698 83.3267 82.0165 82.3267 82.5098 81.46C83.0165 80.5933 83.7032 79.9267 84.5698 79.46C85.4365 78.98 86.4032 78.74 87.4698 78.74C88.5365 78.74 89.5032 78.98 90.3698 79.46C91.2365 79.9267 91.9165 80.5933 92.4098 81.46C92.9165 82.3267 93.1698 83.3267 93.1698 84.46C93.1698 85.5933 92.9098 86.5933 92.3898 87.46C91.8832 88.3267 91.1898 89 90.3098 89.48C89.4432 89.9467 88.4698 90.18 87.3898 90.18ZM87.3898 87.74C87.8965 87.74 88.3698 87.62 88.8098 87.38C89.2632 87.1267 89.6232 86.7533 89.8898 86.26C90.1565 85.7667 90.2898 85.1667 90.2898 84.46C90.2898 83.4067 90.0098 82.6 89.4498 82.04C88.9032 81.4667 88.2298 81.18 87.4298 81.18C86.6298 81.18 85.9565 81.4667 85.4098 82.04C84.8765 82.6 84.6098 83.4067 84.6098 84.46C84.6098 85.5133 84.8698 86.3267 85.3898 86.9C85.9232 87.46 86.5898 87.74 87.3898 87.74ZM98.0238 80.64C98.3838 80.0533 98.8504 79.5933 99.4238 79.26C100.01 78.9267 100.677 78.76 101.424 78.76V81.7H100.684C99.8038 81.7 99.1371 81.9067 98.6838 82.32C98.2438 82.7333 98.0238 83.4533 98.0238 84.48V90H95.2238V78.92H98.0238V80.64Z" fill="white"/>
</svg>
