<svg width="789" height="563" viewBox="0 0 789 563" fill="none" xmlns="http://www.w3.org/2000/svg">
<rect y="57" width="127" height="52" rx="26" fill="#B91BFF"/>
<path d="M11.928 22.808H5.256L4.152 26H0.624L6.648 9.224H10.56L16.584 26H13.032L11.928 22.808ZM11.016 20.12L8.592 13.112L6.168 20.12H11.016ZM22.1957 14.768C22.6277 14.064 23.1877 13.512 23.8757 13.112C24.5797 12.712 25.3797 12.512 26.2757 12.512V16.04H25.3877C24.3317 16.04 23.5317 16.288 22.9877 16.784C22.4597 17.28 22.1957 18.144 22.1957 19.376V26H18.8357V12.704H22.1957V14.768ZM27.6748 19.352C27.6748 17.976 27.9548 16.776 28.5148 15.752C29.0748 14.712 29.8508 13.912 30.8428 13.352C31.8348 12.776 32.9708 12.488 34.2508 12.488C35.8988 12.488 37.2588 12.904 38.3308 13.736C39.4188 14.552 40.1468 15.704 40.5148 17.192H36.8908C36.6988 16.616 36.3708 16.168 35.9068 15.848C35.4588 15.512 34.8988 15.344 34.2268 15.344C33.2668 15.344 32.5068 15.696 31.9468 16.4C31.3868 17.088 31.1068 18.072 31.1068 19.352C31.1068 20.616 31.3868 21.6 31.9468 22.304C32.5068 22.992 33.2668 23.336 34.2268 23.336C35.5868 23.336 36.4748 22.728 36.8908 21.512H40.5148C40.1468 22.952 39.4188 24.096 38.3308 24.944C37.2428 25.792 35.8828 26.216 34.2508 26.216C32.9708 26.216 31.8348 25.936 30.8428 25.376C29.8508 24.8 29.0748 24 28.5148 22.976C27.9548 21.936 27.6748 20.728 27.6748 19.352ZM50.4643 12.512C51.4723 12.512 52.3683 12.736 53.1523 13.184C53.9363 13.616 54.5443 14.264 54.9763 15.128C55.4243 15.976 55.6483 17 55.6483 18.2V26H52.2883V18.656C52.2883 17.6 52.0243 16.792 51.4963 16.232C50.9683 15.656 50.2483 15.368 49.3363 15.368C48.4083 15.368 47.6723 15.656 47.1283 16.232C46.6003 16.792 46.3363 17.6 46.3363 18.656V26H42.9763V8.24H46.3363V14.36C46.7683 13.784 47.3443 13.336 48.0643 13.016C48.7843 12.68 49.5843 12.512 50.4643 12.512ZM71.2035 19.064C71.2035 19.544 71.1715 19.976 71.1075 20.36H61.3875C61.4675 21.32 61.8035 22.072 62.3955 22.616C62.9875 23.16 63.7155 23.432 64.5795 23.432C65.8275 23.432 66.7155 22.896 67.2435 21.824H70.8675C70.4835 23.104 69.7475 24.16 68.6595 24.992C67.5715 25.808 66.2355 26.216 64.6515 26.216C63.3715 26.216 62.2195 25.936 61.1955 25.376C60.1875 24.8 59.3955 23.992 58.8195 22.952C58.2595 21.912 57.9795 20.712 57.9795 19.352C57.9795 17.976 58.2595 16.768 58.8195 15.728C59.3795 14.688 60.1635 13.888 61.1715 13.328C62.1795 12.768 63.3395 12.488 64.6515 12.488C65.9155 12.488 67.0435 12.76 68.0355 13.304C69.0435 13.848 69.8195 14.624 70.3635 15.632C70.9235 16.624 71.2035 17.768 71.2035 19.064ZM67.7235 18.104C67.7075 17.24 67.3955 16.552 66.7875 16.04C66.1795 15.512 65.4355 15.248 64.5555 15.248C63.7235 15.248 63.0195 15.504 62.4435 16.016C61.8835 16.512 61.5395 17.208 61.4115 18.104H67.7235ZM77.568 15.464V21.896C77.568 22.344 77.672 22.672 77.88 22.88C78.104 23.072 78.472 23.168 78.984 23.168H80.544V26H78.432C75.6 26 74.184 24.624 74.184 21.872V15.464H72.6V12.704H74.184V9.416H77.568V12.704H80.544V15.464H77.568ZM95.6807 12.704L87.4487 32.288H83.8727L86.7527 25.664L81.4247 12.704H85.1927L88.6247 21.992L92.1047 12.704H95.6807ZM100.852 14.624C101.284 14.016 101.876 13.512 102.628 13.112C103.396 12.696 104.268 12.488 105.244 12.488C106.38 12.488 107.404 12.768 108.316 13.328C109.244 13.888 109.972 14.688 110.5 15.728C111.044 16.752 111.316 17.944 111.316 19.304C111.316 20.664 111.044 21.872 110.5 22.928C109.972 23.968 109.244 24.776 108.316 25.352C107.404 25.928 106.38 26.216 105.244 26.216C104.268 26.216 103.404 26.016 102.652 25.616C101.916 25.216 101.316 24.712 100.852 24.104V32.336H97.4919V12.704H100.852V14.624ZM107.884 19.304C107.884 18.504 107.716 17.816 107.38 17.24C107.06 16.648 106.628 16.2 106.084 15.896C105.556 15.592 104.98 15.44 104.356 15.44C103.748 15.44 103.172 15.6 102.628 15.92C102.1 16.224 101.668 16.672 101.332 17.264C101.012 17.856 100.852 18.552 100.852 19.352C100.852 20.152 101.012 20.848 101.332 21.44C101.668 22.032 102.1 22.488 102.628 22.808C103.172 23.112 103.748 23.264 104.356 23.264C104.98 23.264 105.556 23.104 106.084 22.784C106.628 22.464 107.06 22.008 107.38 21.416C107.716 20.824 107.884 20.12 107.884 19.304ZM126.118 19.064C126.118 19.544 126.086 19.976 126.022 20.36H116.302C116.382 21.32 116.718 22.072 117.31 22.616C117.902 23.16 118.63 23.432 119.494 23.432C120.742 23.432 121.63 22.896 122.158 21.824H125.782C125.398 23.104 124.662 24.16 123.574 24.992C122.486 25.808 121.15 26.216 119.566 26.216C118.286 26.216 117.134 25.936 116.11 25.376C115.102 24.8 114.31 23.992 113.734 22.952C113.174 21.912 112.894 20.712 112.894 19.352C112.894 17.976 113.174 16.768 113.734 15.728C114.294 14.688 115.078 13.888 116.086 13.328C117.094 12.768 118.254 12.488 119.566 12.488C120.83 12.488 121.958 12.76 122.95 13.304C123.958 13.848 124.734 14.624 125.278 15.632C125.838 16.624 126.118 17.768 126.118 19.064ZM122.638 18.104C122.622 17.24 122.31 16.552 121.702 16.04C121.094 15.512 120.35 15.248 119.47 15.248C118.638 15.248 117.934 15.504 117.358 16.016C116.798 16.512 116.454 17.208 116.326 18.104H122.638Z" fill="#2D2D2D"/>
<rect x="100" y="245" width="689" height="15" rx="7.5" fill="#F3F3F3"/>
<circle cx="372" cy="253" r="16" fill="#B91BFF"/>
<path d="M116.032 206.832L112.912 218H110.272L108.176 210.048L105.984 218L103.36 218.016L100.352 206.832H102.752L104.72 215.504L106.992 206.832H109.488L111.632 215.456L113.616 206.832H116.032ZM124.343 215.872H119.895L119.159 218H116.807L120.823 206.816H123.431L127.447 218H125.079L124.343 215.872ZM123.735 214.08L122.119 209.408L120.503 214.08H123.735ZM134.708 218L132.244 213.648H131.188V218H128.948V206.832H133.14C134.004 206.832 134.74 206.987 135.348 207.296C135.956 207.595 136.409 208.005 136.708 208.528C137.017 209.04 137.172 209.616 137.172 210.256C137.172 210.992 136.958 211.659 136.532 212.256C136.105 212.843 135.47 213.248 134.628 213.472L137.3 218H134.708ZM131.188 211.968H133.06C133.668 211.968 134.121 211.824 134.42 211.536C134.718 211.237 134.868 210.827 134.868 210.304C134.868 209.792 134.718 209.397 134.42 209.12C134.121 208.832 133.668 208.688 133.06 208.688H131.188V211.968ZM151.374 206.832V218H149.134V210.736L146.142 218H144.446L141.438 210.736V218H139.198V206.832H141.742L145.294 215.136L148.846 206.832H151.374Z" fill="black"/>
<path d="M744.81 212.4C744.81 211.301 745.055 210.32 745.546 209.456C746.047 208.581 746.725 207.904 747.578 207.424C748.442 206.933 749.407 206.688 750.474 206.688C751.722 206.688 752.815 207.008 753.754 207.648C754.693 208.288 755.349 209.173 755.722 210.304H753.146C752.89 209.771 752.527 209.371 752.058 209.104C751.599 208.837 751.066 208.704 750.458 208.704C749.807 208.704 749.226 208.859 748.714 209.168C748.213 209.467 747.818 209.893 747.53 210.448C747.253 211.003 747.114 211.653 747.114 212.4C747.114 213.136 747.253 213.787 747.53 214.352C747.818 214.907 748.213 215.339 748.714 215.648C749.226 215.947 749.807 216.096 750.458 216.096C751.066 216.096 751.599 215.963 752.058 215.696C752.527 215.419 752.89 215.013 753.146 214.48H755.722C755.349 215.621 754.693 216.512 753.754 217.152C752.826 217.781 751.733 218.096 750.474 218.096C749.407 218.096 748.442 217.856 747.578 217.376C746.725 216.885 746.047 216.208 745.546 215.344C745.055 214.48 744.81 213.499 744.81 212.4ZM762.819 218.112C761.774 218.112 760.814 217.867 759.939 217.376C759.065 216.885 758.371 216.208 757.859 215.344C757.347 214.469 757.091 213.483 757.091 212.384C757.091 211.296 757.347 210.32 757.859 209.456C758.371 208.581 759.065 207.899 759.939 207.408C760.814 206.917 761.774 206.672 762.819 206.672C763.875 206.672 764.835 206.917 765.699 207.408C766.574 207.899 767.262 208.581 767.763 209.456C768.275 210.32 768.531 211.296 768.531 212.384C768.531 213.483 768.275 214.469 767.763 215.344C767.262 216.208 766.574 216.885 765.699 217.376C764.825 217.867 763.865 218.112 762.819 218.112ZM762.819 216.112C763.491 216.112 764.083 215.963 764.595 215.664C765.107 215.355 765.507 214.917 765.795 214.352C766.083 213.787 766.227 213.131 766.227 212.384C766.227 211.637 766.083 210.987 765.795 210.432C765.507 209.867 765.107 209.435 764.595 209.136C764.083 208.837 763.491 208.688 762.819 208.688C762.147 208.688 761.55 208.837 761.027 209.136C760.515 209.435 760.115 209.867 759.827 210.432C759.539 210.987 759.395 211.637 759.395 212.384C759.395 213.131 759.539 213.787 759.827 214.352C760.115 214.917 760.515 215.355 761.027 215.664C761.55 215.963 762.147 216.112 762.819 216.112ZM775.382 218.112C774.336 218.112 773.376 217.867 772.502 217.376C771.627 216.885 770.934 216.208 770.422 215.344C769.91 214.469 769.654 213.483 769.654 212.384C769.654 211.296 769.91 210.32 770.422 209.456C770.934 208.581 771.627 207.899 772.502 207.408C773.376 206.917 774.336 206.672 775.382 206.672C776.438 206.672 777.398 206.917 778.262 207.408C779.136 207.899 779.824 208.581 780.326 209.456C780.838 210.32 781.094 211.296 781.094 212.384C781.094 213.483 780.838 214.469 780.326 215.344C779.824 216.208 779.136 216.885 778.262 217.376C777.387 217.867 776.427 218.112 775.382 218.112ZM775.382 216.112C776.054 216.112 776.646 215.963 777.158 215.664C777.67 215.355 778.07 214.917 778.358 214.352C778.646 213.787 778.79 213.131 778.79 212.384C778.79 211.637 778.646 210.987 778.358 210.432C778.07 209.867 777.67 209.435 777.158 209.136C776.646 208.837 776.054 208.688 775.382 208.688C774.71 208.688 774.112 208.837 773.59 209.136C773.078 209.435 772.678 209.867 772.39 210.432C772.102 210.987 771.958 211.637 771.958 212.384C771.958 213.131 772.102 213.787 772.39 214.352C772.678 214.917 773.078 215.355 773.59 215.664C774.112 215.963 774.71 216.112 775.382 216.112ZM785 216.224H788.68V218H782.76V206.832H785V216.224Z" fill="black"/>
<rect x="100" y="343" width="689" height="15" rx="7.5" fill="#F3F3F3"/>
<circle cx="413" cy="350" r="16" fill="#B91BFF"/>
<path d="M108 304.832V306.64H103.344V309.504H106.912V311.28H103.344V316H101.104V304.832H108ZM111.796 304.832V311.744C111.796 312.501 111.994 313.083 112.388 313.488C112.783 313.883 113.338 314.08 114.052 314.08C114.778 314.08 115.338 313.883 115.732 313.488C116.127 313.083 116.324 312.501 116.324 311.744V304.832H118.58V311.728C118.58 312.677 118.372 313.483 117.956 314.144C117.551 314.795 117.002 315.285 116.308 315.616C115.626 315.947 114.863 316.112 114.02 316.112C113.188 316.112 112.431 315.947 111.748 315.616C111.076 315.285 110.543 314.795 110.148 314.144C109.754 313.483 109.556 312.677 109.556 311.728V304.832H111.796ZM130.297 316H128.057L122.985 308.336V316H120.745V304.816H122.985L128.057 312.496V304.816H130.297V316Z" fill="black"/>
<path d="M727.523 316.112C726.744 316.112 726.04 315.979 725.411 315.712C724.792 315.445 724.301 315.061 723.939 314.56C723.576 314.059 723.389 313.467 723.379 312.784H725.779C725.811 313.243 725.971 313.605 726.259 313.872C726.557 314.139 726.963 314.272 727.475 314.272C727.997 314.272 728.408 314.149 728.707 313.904C729.005 313.648 729.155 313.317 729.155 312.912C729.155 312.581 729.053 312.309 728.851 312.096C728.648 311.883 728.392 311.717 728.083 311.6C727.784 311.472 727.368 311.333 726.835 311.184C726.109 310.971 725.517 310.763 725.059 310.56C724.611 310.347 724.221 310.032 723.891 309.616C723.571 309.189 723.411 308.624 723.411 307.92C723.411 307.259 723.576 306.683 723.907 306.192C724.237 305.701 724.701 305.328 725.299 305.072C725.896 304.805 726.579 304.672 727.347 304.672C728.499 304.672 729.432 304.955 730.147 305.52C730.872 306.075 731.272 306.853 731.347 307.856H728.883C728.861 307.472 728.696 307.157 728.387 306.912C728.088 306.656 727.688 306.528 727.187 306.528C726.749 306.528 726.397 306.64 726.131 306.864C725.875 307.088 725.747 307.413 725.747 307.84C725.747 308.139 725.843 308.389 726.035 308.592C726.237 308.784 726.483 308.944 726.771 309.072C727.069 309.189 727.485 309.328 728.019 309.488C728.744 309.701 729.336 309.915 729.795 310.128C730.253 310.341 730.648 310.661 730.979 311.088C731.309 311.515 731.475 312.075 731.475 312.768C731.475 313.365 731.32 313.92 731.01 314.432C730.701 314.944 730.248 315.355 729.651 315.664C729.053 315.963 728.344 316.112 727.523 316.112ZM735.657 306.64V309.44H739.417V311.216H735.657V314.176H739.897V316H733.417V304.816H739.897V306.64H735.657ZM747.692 316L745.228 311.648H744.172V316H741.932V304.832H746.124C746.988 304.832 747.724 304.987 748.332 305.296C748.94 305.595 749.393 306.005 749.692 306.528C750.001 307.04 750.156 307.616 750.156 308.256C750.156 308.992 749.943 309.659 749.516 310.256C749.089 310.843 748.455 311.248 747.612 311.472L750.284 316H747.692ZM744.172 309.968H746.044C746.652 309.968 747.105 309.824 747.404 309.536C747.703 309.237 747.852 308.827 747.852 308.304C747.852 307.792 747.703 307.397 747.404 307.12C747.105 306.832 746.652 306.688 746.044 306.688H744.172V309.968ZM754.422 304.832V316H752.182V304.832H754.422ZM761.819 316.112C760.774 316.112 759.814 315.867 758.939 315.376C758.065 314.885 757.371 314.208 756.859 313.344C756.347 312.469 756.091 311.483 756.091 310.384C756.091 309.296 756.347 308.32 756.859 307.456C757.371 306.581 758.065 305.899 758.939 305.408C759.814 304.917 760.774 304.672 761.819 304.672C762.875 304.672 763.835 304.917 764.699 305.408C765.574 305.899 766.262 306.581 766.763 307.456C767.275 308.32 767.531 309.296 767.531 310.384C767.531 311.483 767.275 312.469 766.763 313.344C766.262 314.208 765.574 314.885 764.699 315.376C763.825 315.867 762.865 316.112 761.819 316.112ZM761.819 314.112C762.491 314.112 763.083 313.963 763.595 313.664C764.107 313.355 764.507 312.917 764.795 312.352C765.083 311.787 765.227 311.131 765.227 310.384C765.227 309.637 765.083 308.987 764.795 308.432C764.507 307.867 764.107 307.435 763.595 307.136C763.083 306.837 762.491 306.688 761.819 306.688C761.147 306.688 760.55 306.837 760.027 307.136C759.515 307.435 759.115 307.867 758.827 308.432C758.539 308.987 758.395 309.637 758.395 310.384C758.395 311.131 758.539 311.787 758.827 312.352C759.115 312.917 759.515 313.355 760.027 313.664C760.55 313.963 761.147 314.112 761.819 314.112ZM771.406 304.832V311.744C771.406 312.501 771.603 313.083 771.998 313.488C772.392 313.883 772.947 314.08 773.662 314.08C774.387 314.08 774.947 313.883 775.342 313.488C775.736 313.083 775.934 312.501 775.934 311.744V304.832H778.19V311.728C778.19 312.677 777.982 313.483 777.566 314.144C777.16 314.795 776.611 315.285 775.918 315.616C775.235 315.947 774.472 316.112 773.63 316.112C772.798 316.112 772.04 315.947 771.358 315.616C770.686 315.285 770.152 314.795 769.758 314.144C769.363 313.483 769.166 312.677 769.166 311.728V304.832H771.406ZM784.21 316.112C783.431 316.112 782.727 315.979 782.098 315.712C781.479 315.445 780.989 315.061 780.626 314.56C780.263 314.059 780.077 313.467 780.066 312.784H782.466C782.498 313.243 782.658 313.605 782.946 313.872C783.245 314.139 783.65 314.272 784.162 314.272C784.685 314.272 785.095 314.149 785.394 313.904C785.693 313.648 785.842 313.317 785.842 312.912C785.842 312.581 785.741 312.309 785.538 312.096C785.335 311.883 785.079 311.717 784.77 311.6C784.471 311.472 784.055 311.333 783.522 311.184C782.797 310.971 782.205 310.763 781.746 310.56C781.298 310.347 780.909 310.032 780.578 309.616C780.258 309.189 780.098 308.624 780.098 307.92C780.098 307.259 780.263 306.683 780.594 306.192C780.925 305.701 781.389 305.328 781.986 305.072C782.583 304.805 783.266 304.672 784.034 304.672C785.186 304.672 786.119 304.955 786.834 305.52C787.559 306.075 787.959 306.853 788.034 307.856H785.57C785.549 307.472 785.383 307.157 785.074 306.912C784.775 306.656 784.375 306.528 783.874 306.528C783.437 306.528 783.085 306.64 782.818 306.864C782.562 307.088 782.434 307.413 782.434 307.84C782.434 308.139 782.53 308.389 782.722 308.592C782.925 308.784 783.17 308.944 783.458 309.072C783.757 309.189 784.173 309.328 784.706 309.488C785.431 309.701 786.023 309.915 786.482 310.128C786.941 310.341 787.335 310.661 787.666 311.088C787.997 311.515 788.162 312.075 788.162 312.768C788.162 313.365 788.007 313.92 787.698 314.432C787.389 314.944 786.935 315.355 786.338 315.664C785.741 315.963 785.031 316.112 784.21 316.112Z" fill="black"/>
<rect x="100" y="441" width="689" height="15" rx="7.5" fill="#F3F3F3"/>
<rect x="100" y="539" width="689" height="15" rx="7.5" fill="#F3F3F3"/>
<circle cx="193" cy="449" r="16" fill="#B91BFF"/>
<circle cx="225" cy="547" r="16" fill="#B91BFF"/>
<path d="M113.28 402.832V414H111.04V406.736L108.048 414H106.352L103.344 406.736V414H101.104V402.832H103.648L107.2 411.136L110.752 402.832H113.28ZM120.679 414.112C119.633 414.112 118.673 413.867 117.799 413.376C116.924 412.885 116.231 412.208 115.719 411.344C115.207 410.469 114.951 409.483 114.951 408.384C114.951 407.296 115.207 406.32 115.719 405.456C116.231 404.581 116.924 403.899 117.799 403.408C118.673 402.917 119.633 402.672 120.679 402.672C121.735 402.672 122.695 402.917 123.559 403.408C124.433 403.899 125.121 404.581 125.623 405.456C126.135 406.32 126.391 407.296 126.391 408.384C126.391 409.483 126.135 410.469 125.623 411.344C125.121 412.208 124.433 412.885 123.559 413.376C122.684 413.867 121.724 414.112 120.679 414.112ZM120.679 412.112C121.351 412.112 121.943 411.963 122.455 411.664C122.967 411.355 123.367 410.917 123.655 410.352C123.943 409.787 124.087 409.131 124.087 408.384C124.087 407.637 123.943 406.987 123.655 406.432C123.367 405.867 122.967 405.435 122.455 405.136C121.943 404.837 121.351 404.688 120.679 404.688C120.007 404.688 119.409 404.837 118.887 405.136C118.375 405.435 117.975 405.867 117.687 406.432C117.399 406.987 117.255 407.637 117.255 408.384C117.255 409.131 117.399 409.787 117.687 410.352C117.975 410.917 118.375 411.355 118.887 411.664C119.409 411.963 120.007 412.112 120.679 412.112ZM131.961 402.832C133.134 402.832 134.164 403.061 135.049 403.52C135.945 403.979 136.633 404.635 137.113 405.488C137.604 406.331 137.849 407.312 137.849 408.432C137.849 409.552 137.604 410.533 137.113 411.376C136.633 412.208 135.945 412.853 135.049 413.312C134.164 413.771 133.134 414 131.961 414H128.057V402.832H131.961ZM131.881 412.096C133.054 412.096 133.961 411.776 134.601 411.136C135.241 410.496 135.561 409.595 135.561 408.432C135.561 407.269 135.241 406.363 134.601 405.712C133.961 405.051 133.054 404.72 131.881 404.72H130.297V412.096H131.881ZM141.766 404.64V407.44H145.526V409.216H141.766V412.176H146.006V414H139.526V402.816H146.006V404.64H141.766ZM153.802 414L151.338 409.648H150.282V414H148.042V402.832H152.234C153.098 402.832 153.834 402.987 154.442 403.296C155.05 403.595 155.503 404.005 155.802 404.528C156.111 405.04 156.266 405.616 156.266 406.256C156.266 406.992 156.052 407.659 155.626 408.256C155.199 408.843 154.564 409.248 153.722 409.472L156.394 414H153.802ZM150.282 407.968H152.154C152.762 407.968 153.215 407.824 153.514 407.536C153.812 407.237 153.962 406.827 153.962 406.304C153.962 405.792 153.812 405.397 153.514 405.12C153.215 404.832 152.762 404.688 152.154 404.688H150.282V407.968ZM167.844 414H165.604L160.532 406.336V414H158.292V402.816H160.532L165.604 410.496V402.816H167.844V414Z" fill="black"/>
<path d="M100.56 506.4C100.56 505.301 100.805 504.32 101.296 503.456C101.797 502.581 102.475 501.904 103.328 501.424C104.192 500.933 105.157 500.688 106.224 500.688C107.472 500.688 108.565 501.008 109.504 501.648C110.443 502.288 111.099 503.173 111.472 504.304H108.896C108.64 503.771 108.277 503.371 107.808 503.104C107.349 502.837 106.816 502.704 106.208 502.704C105.557 502.704 104.976 502.859 104.464 503.168C103.963 503.467 103.568 503.893 103.28 504.448C103.003 505.003 102.864 505.653 102.864 506.4C102.864 507.136 103.003 507.787 103.28 508.352C103.568 508.907 103.963 509.339 104.464 509.648C104.976 509.947 105.557 510.096 106.208 510.096C106.816 510.096 107.349 509.963 107.808 509.696C108.277 509.419 108.64 509.013 108.896 508.48H111.472C111.099 509.621 110.443 510.512 109.504 511.152C108.576 511.781 107.483 512.096 106.224 512.096C105.157 512.096 104.192 511.856 103.328 511.376C102.475 510.885 101.797 510.208 101.296 509.344C100.805 508.48 100.56 507.499 100.56 506.4ZM118.569 512.112C117.524 512.112 116.564 511.867 115.689 511.376C114.815 510.885 114.121 510.208 113.609 509.344C113.097 508.469 112.841 507.483 112.841 506.384C112.841 505.296 113.097 504.32 113.609 503.456C114.121 502.581 114.815 501.899 115.689 501.408C116.564 500.917 117.524 500.672 118.569 500.672C119.625 500.672 120.585 500.917 121.449 501.408C122.324 501.899 123.012 502.581 123.513 503.456C124.025 504.32 124.281 505.296 124.281 506.384C124.281 507.483 124.025 508.469 123.513 509.344C123.012 510.208 122.324 510.885 121.449 511.376C120.575 511.867 119.615 512.112 118.569 512.112ZM118.569 510.112C119.241 510.112 119.833 509.963 120.345 509.664C120.857 509.355 121.257 508.917 121.545 508.352C121.833 507.787 121.977 507.131 121.977 506.384C121.977 505.637 121.833 504.987 121.545 504.432C121.257 503.867 120.857 503.435 120.345 503.136C119.833 502.837 119.241 502.688 118.569 502.688C117.897 502.688 117.3 502.837 116.777 503.136C116.265 503.435 115.865 503.867 115.577 504.432C115.289 504.987 115.145 505.637 115.145 506.384C115.145 507.131 115.289 507.787 115.577 508.352C115.865 508.917 116.265 509.355 116.777 509.664C117.3 509.963 117.897 510.112 118.569 510.112ZM128.188 510.224H131.868V512H125.948V500.832H128.188V510.224ZM135.532 510.224H139.212V512H133.292V500.832H135.532V510.224ZM147.483 509.872H143.035L142.299 512H139.947L143.963 500.816H146.571L150.587 512H148.219L147.483 509.872ZM146.875 508.08L145.259 503.408L143.643 508.08H146.875ZM158.424 506.272C159.054 506.389 159.571 506.704 159.976 507.216C160.382 507.728 160.584 508.315 160.584 508.976C160.584 509.573 160.435 510.101 160.136 510.56C159.848 511.008 159.427 511.36 158.872 511.616C158.318 511.872 157.662 512 156.904 512H152.088V500.832H156.696C157.454 500.832 158.104 500.955 158.648 501.2C159.203 501.445 159.619 501.787 159.896 502.224C160.184 502.661 160.328 503.157 160.328 503.712C160.328 504.363 160.152 504.907 159.8 505.344C159.459 505.781 159 506.091 158.424 506.272ZM154.328 505.44H156.376C156.91 505.44 157.32 505.323 157.608 505.088C157.896 504.843 158.04 504.496 158.04 504.048C158.04 503.6 157.896 503.253 157.608 503.008C157.32 502.763 156.91 502.64 156.376 502.64H154.328V505.44ZM156.584 510.176C157.128 510.176 157.55 510.048 157.848 509.792C158.158 509.536 158.312 509.173 158.312 508.704C158.312 508.224 158.152 507.851 157.832 507.584C157.512 507.307 157.08 507.168 156.536 507.168H154.328V510.176H156.584ZM167.554 512.112C166.508 512.112 165.548 511.867 164.674 511.376C163.799 510.885 163.106 510.208 162.594 509.344C162.082 508.469 161.826 507.483 161.826 506.384C161.826 505.296 162.082 504.32 162.594 503.456C163.106 502.581 163.799 501.899 164.674 501.408C165.548 500.917 166.508 500.672 167.554 500.672C168.61 500.672 169.57 500.917 170.434 501.408C171.308 501.899 171.996 502.581 172.498 503.456C173.01 504.32 173.266 505.296 173.266 506.384C173.266 507.483 173.01 508.469 172.498 509.344C171.996 510.208 171.308 510.885 170.434 511.376C169.559 511.867 168.599 512.112 167.554 512.112ZM167.554 510.112C168.226 510.112 168.818 509.963 169.33 509.664C169.842 509.355 170.242 508.917 170.53 508.352C170.818 507.787 170.962 507.131 170.962 506.384C170.962 505.637 170.818 504.987 170.53 504.432C170.242 503.867 169.842 503.435 169.33 503.136C168.818 502.837 168.226 502.688 167.554 502.688C166.882 502.688 166.284 502.837 165.762 503.136C165.25 503.435 164.85 503.867 164.562 504.432C164.274 504.987 164.13 505.637 164.13 506.384C164.13 507.131 164.274 507.787 164.562 508.352C164.85 508.917 165.25 509.355 165.762 509.664C166.284 509.963 166.882 510.112 167.554 510.112ZM180.692 512L178.228 507.648H177.172V512H174.932V500.832H179.124C179.988 500.832 180.724 500.987 181.332 501.296C181.94 501.595 182.393 502.005 182.692 502.528C183.001 503.04 183.156 503.616 183.156 504.256C183.156 504.992 182.943 505.659 182.516 506.256C182.089 506.843 181.455 507.248 180.612 507.472L183.284 512H180.692ZM177.172 505.968H179.044C179.652 505.968 180.105 505.824 180.404 505.536C180.703 505.237 180.852 504.827 180.852 504.304C180.852 503.792 180.703 503.397 180.404 503.12C180.105 502.832 179.652 502.688 179.044 502.688H177.172V505.968ZM192.03 509.872H187.582L186.846 512H184.494L188.51 500.816H191.118L195.134 512H192.766L192.03 509.872ZM191.422 508.08L189.806 503.408L188.19 508.08H191.422ZM204.235 500.832V502.64H201.259V512H199.019V502.64H196.043V500.832H204.235ZM208.11 500.832V512H205.87V500.832H208.11ZM220.355 500.832L216.259 512H213.539L209.443 500.832H211.843L214.915 509.712L217.971 500.832H220.355ZM223.938 502.64V505.44H227.698V507.216H223.938V510.176H228.178V512H221.698V500.816H228.178V502.64H223.938Z" fill="black"/>
<path d="M694.032 402.832V404.64H691.056V414H688.816V404.64H685.84V402.832H694.032ZM701.427 414L698.963 409.648H697.907V414H695.667V402.832H699.859C700.723 402.832 701.459 402.987 702.067 403.296C702.675 403.595 703.128 404.005 703.427 404.528C703.736 405.04 703.891 405.616 703.891 406.256C703.891 406.992 703.677 407.659 703.251 408.256C702.824 408.843 702.189 409.248 701.347 409.472L704.019 414H701.427ZM697.907 407.968H699.779C700.387 407.968 700.84 407.824 701.139 407.536C701.437 407.237 701.587 406.827 701.587 406.304C701.587 405.792 701.437 405.397 701.139 405.12C700.84 404.832 700.387 404.688 699.779 404.688H697.907V407.968ZM712.765 411.872H708.317L707.581 414H705.229L709.245 402.816H711.853L715.869 414H713.501L712.765 411.872ZM712.157 410.08L710.541 405.408L708.924 410.08H712.157ZM721.274 402.832C722.447 402.832 723.476 403.061 724.362 403.52C725.258 403.979 725.946 404.635 726.426 405.488C726.916 406.331 727.162 407.312 727.162 408.432C727.162 409.552 726.916 410.533 726.426 411.376C725.946 412.208 725.258 412.853 724.362 413.312C723.476 413.771 722.447 414 721.274 414H717.37V402.832H721.274ZM721.194 412.096C722.367 412.096 723.274 411.776 723.914 411.136C724.554 410.496 724.874 409.595 724.874 408.432C724.874 407.269 724.554 406.363 723.914 405.712C723.274 405.051 722.367 404.72 721.194 404.72H719.61V412.096H721.194ZM731.078 402.832V414H728.838V402.832H731.078ZM740.892 402.832V404.64H737.916V414H735.676V404.64H732.7V402.832H740.892ZM744.766 402.832V414H742.526V402.832H744.766ZM752.163 414.112C751.118 414.112 750.158 413.867 749.283 413.376C748.408 412.885 747.715 412.208 747.203 411.344C746.691 410.469 746.435 409.483 746.435 408.384C746.435 407.296 746.691 406.32 747.203 405.456C747.715 404.581 748.408 403.899 749.283 403.408C750.158 402.917 751.118 402.672 752.163 402.672C753.219 402.672 754.179 402.917 755.043 403.408C755.918 403.899 756.606 404.581 757.107 405.456C757.619 406.32 757.875 407.296 757.875 408.384C757.875 409.483 757.619 410.469 757.107 411.344C756.606 412.208 755.918 412.885 755.043 413.376C754.168 413.867 753.208 414.112 752.163 414.112ZM752.163 412.112C752.835 412.112 753.427 411.963 753.939 411.664C754.451 411.355 754.851 410.917 755.139 410.352C755.427 409.787 755.571 409.131 755.571 408.384C755.571 407.637 755.427 406.987 755.139 406.432C754.851 405.867 754.451 405.435 753.939 405.136C753.427 404.837 752.835 404.688 752.163 404.688C751.491 404.688 750.894 404.837 750.371 405.136C749.859 405.435 749.459 405.867 749.171 406.432C748.883 406.987 748.739 407.637 748.739 408.384C748.739 409.131 748.883 409.787 749.171 410.352C749.459 410.917 749.859 411.355 750.371 411.664C750.894 411.963 751.491 412.112 752.163 412.112ZM769.094 414H766.854L761.782 406.336V414H759.542V402.816H761.782L766.854 410.496V402.816H769.094V414ZM778.155 411.872H773.707L772.971 414H770.619L774.635 402.816H777.243L781.259 414H778.891L778.155 411.872ZM777.547 410.08L775.931 405.408L774.315 410.08H777.547ZM785 412.224H788.68V414H782.76V402.832H785V412.224Z" fill="black"/>
<path d="M668.78 509.872H664.332L663.596 512H661.244L665.26 500.816H667.868L671.884 512H669.516L668.78 509.872ZM668.172 508.08L666.556 503.408L664.94 508.08H668.172ZM675.593 500.832V507.744C675.593 508.501 675.791 509.083 676.185 509.488C676.58 509.883 677.135 510.08 677.849 510.08C678.575 510.08 679.135 509.883 679.529 509.488C679.924 509.083 680.121 508.501 680.121 507.744V500.832H682.377V507.728C682.377 508.677 682.169 509.483 681.753 510.144C681.348 510.795 680.799 511.285 680.105 511.616C679.423 511.947 678.66 512.112 677.817 512.112C676.985 512.112 676.228 511.947 675.545 511.616C674.873 511.285 674.34 510.795 673.945 510.144C673.551 509.483 673.353 508.677 673.353 507.728V500.832H675.593ZM692.142 500.832V502.64H689.166V512H686.926V502.64H683.95V500.832H692.142ZM703.04 500.832V512H700.8V507.248H696.016V512H693.776V500.832H696.016V505.424H700.8V500.832H703.04ZM710.429 512.112C709.383 512.112 708.423 511.867 707.549 511.376C706.674 510.885 705.981 510.208 705.469 509.344C704.957 508.469 704.701 507.483 704.701 506.384C704.701 505.296 704.957 504.32 705.469 503.456C705.981 502.581 706.674 501.899 707.549 501.408C708.423 500.917 709.383 500.672 710.429 500.672C711.485 500.672 712.445 500.917 713.309 501.408C714.183 501.899 714.871 502.581 715.373 503.456C715.885 504.32 716.141 505.296 716.141 506.384C716.141 507.483 715.885 508.469 715.373 509.344C714.871 510.208 714.183 510.885 713.309 511.376C712.434 511.867 711.474 512.112 710.429 512.112ZM710.429 510.112C711.101 510.112 711.693 509.963 712.205 509.664C712.717 509.355 713.117 508.917 713.405 508.352C713.693 507.787 713.837 507.131 713.837 506.384C713.837 505.637 713.693 504.987 713.405 504.432C713.117 503.867 712.717 503.435 712.205 503.136C711.693 502.837 711.101 502.688 710.429 502.688C709.757 502.688 709.159 502.837 708.637 503.136C708.125 503.435 707.725 503.867 707.437 504.432C707.149 504.987 707.005 505.637 707.005 506.384C707.005 507.131 707.149 507.787 707.437 508.352C707.725 508.917 708.125 509.355 708.637 509.664C709.159 509.963 709.757 510.112 710.429 510.112ZM723.567 512L721.103 507.648H720.047V512H717.807V500.832H721.999C722.863 500.832 723.599 500.987 724.207 501.296C724.815 501.595 725.268 502.005 725.567 502.528C725.876 503.04 726.031 503.616 726.031 504.256C726.031 504.992 725.818 505.659 725.391 506.256C724.964 506.843 724.33 507.248 723.487 507.472L726.159 512H723.567ZM720.047 505.968H721.919C722.527 505.968 722.98 505.824 723.279 505.536C723.578 505.237 723.727 504.827 723.727 504.304C723.727 503.792 723.578 503.397 723.279 503.12C722.98 502.832 722.527 502.688 721.919 502.688H720.047V505.968ZM730.297 500.832V512H728.057V500.832H730.297ZM740.11 500.832V502.64H737.134V512H734.894V502.64H731.918V500.832H740.11ZM748.593 509.872H744.145L743.409 512H741.057L745.073 500.816H747.681L751.697 512H749.329L748.593 509.872ZM747.985 508.08L746.369 503.408L744.753 508.08H747.985ZM760.798 500.832V502.64H757.822V512H755.582V502.64H752.606V500.832H760.798ZM764.672 500.832V512H762.432V500.832H764.672ZM773.733 509.872H769.285L768.549 512H766.197L770.213 500.816H772.821L776.837 512H774.469L773.733 509.872ZM773.125 508.08L771.509 503.408L769.893 508.08H773.125ZM787.89 512H785.65L780.578 504.336V512H778.338V500.816H780.578L785.65 508.496V500.816H787.89V512Z" fill="black"/>
<path d="M24.7 83C24.7 81.6267 25.0067 80.4 25.62 79.32C26.2467 78.2267 27.0933 77.38 28.16 76.78C29.24 76.1667 30.4467 75.86 31.78 75.86C33.34 75.86 34.7067 76.26 35.88 77.06C37.0533 77.86 37.8733 78.9667 38.34 80.38H35.12C34.8 79.7133 34.3467 79.2133 33.76 78.88C33.1867 78.5467 32.52 78.38 31.76 78.38C30.9467 78.38 30.22 78.5733 29.58 78.96C28.9533 79.3333 28.46 79.8667 28.1 80.56C27.7533 81.2533 27.58 82.0667 27.58 83C27.58 83.92 27.7533 84.7333 28.1 85.44C28.46 86.1333 28.9533 86.6733 29.58 87.06C30.22 87.4333 30.9467 87.62 31.76 87.62C32.52 87.62 33.1867 87.4533 33.76 87.12C34.3467 86.7733 34.8 86.2667 35.12 85.6H38.34C37.8733 87.0267 37.0533 88.14 35.88 88.94C34.72 89.7267 33.3533 90.12 31.78 90.12C30.4467 90.12 29.24 89.82 28.16 89.22C27.0933 88.6067 26.2467 87.76 25.62 86.68C25.0067 85.6 24.7 84.3733 24.7 83ZM43.5316 80.64C43.8916 80.0533 44.3582 79.5933 44.9316 79.26C45.5182 78.9267 46.1849 78.76 46.9316 78.76V81.7H46.1916C45.3116 81.7 44.6449 81.9067 44.1916 82.32C43.7516 82.7333 43.5316 83.4533 43.5316 84.48V90H40.7316V78.92H43.5316V80.64ZM59.1175 84.22C59.1175 84.62 59.0908 84.98 59.0375 85.3H50.9375C51.0042 86.1 51.2842 86.7267 51.7775 87.18C52.2708 87.6333 52.8775 87.86 53.5975 87.86C54.6375 87.86 55.3775 87.4133 55.8175 86.52H58.8375C58.5175 87.5867 57.9042 88.4667 56.9975 89.16C56.0908 89.84 54.9775 90.18 53.6575 90.18C52.5908 90.18 51.6308 89.9467 50.7775 89.48C49.9375 89 49.2775 88.3267 48.7975 87.46C48.3308 86.5933 48.0975 85.5933 48.0975 84.46C48.0975 83.3133 48.3308 82.3067 48.7975 81.44C49.2642 80.5733 49.9175 79.9067 50.7575 79.44C51.5975 78.9733 52.5642 78.74 53.6575 78.74C54.7108 78.74 55.6508 78.9667 56.4775 79.42C57.3175 79.8733 57.9642 80.52 58.4175 81.36C58.8842 82.1867 59.1175 83.14 59.1175 84.22ZM56.2175 83.42C56.2042 82.7 55.9442 82.1267 55.4375 81.7C54.9308 81.26 54.3108 81.04 53.5775 81.04C52.8842 81.04 52.2975 81.2533 51.8175 81.68C51.3508 82.0933 51.0642 82.6733 50.9575 83.42H56.2175ZM60.4412 84.42C60.4412 83.3 60.6612 82.3067 61.1012 81.44C61.5546 80.5733 62.1613 79.9067 62.9213 79.44C63.6946 78.9733 64.5546 78.74 65.5013 78.74C66.3279 78.74 67.0479 78.9067 67.6613 79.24C68.2879 79.5733 68.7879 79.9933 69.1613 80.5V78.92H71.9813V90H69.1613V88.38C68.8013 88.9 68.3013 89.3333 67.6613 89.68C67.0346 90.0133 66.3079 90.18 65.4813 90.18C64.5479 90.18 63.6946 89.94 62.9213 89.46C62.1613 88.98 61.5546 88.3067 61.1012 87.44C60.6612 86.56 60.4412 85.5533 60.4412 84.42ZM69.1613 84.46C69.1613 83.78 69.0279 83.2 68.7613 82.72C68.4946 82.2267 68.1346 81.8533 67.6813 81.6C67.2279 81.3333 66.7413 81.2 66.2213 81.2C65.7013 81.2 65.2213 81.3267 64.7812 81.58C64.3413 81.8333 63.9813 82.2067 63.7013 82.7C63.4346 83.18 63.3013 83.7533 63.3013 84.42C63.3013 85.0867 63.4346 85.6733 63.7013 86.18C63.9813 86.6733 64.3413 87.0533 64.7812 87.32C65.2346 87.5867 65.7146 87.72 66.2213 87.72C66.7413 87.72 67.2279 87.5933 67.6813 87.34C68.1346 87.0733 68.4946 86.7 68.7613 86.22C69.0279 85.7267 69.1613 85.14 69.1613 84.46ZM77.9759 81.22V86.58C77.9759 86.9533 78.0626 87.2267 78.2359 87.4C78.4226 87.56 78.7293 87.64 79.1559 87.64H80.4559V90H78.6959C76.3359 90 75.1559 88.8533 75.1559 86.56V81.22H73.8359V78.92H75.1559V76.18H77.9759V78.92H80.4559V81.22H77.9759ZM87.3898 90.18C86.3232 90.18 85.3632 89.9467 84.5098 89.48C83.6565 89 82.9832 88.3267 82.4898 87.46C82.0098 86.5933 81.7698 85.5933 81.7698 84.46C81.7698 83.3267 82.0165 82.3267 82.5098 81.46C83.0165 80.5933 83.7032 79.9267 84.5698 79.46C85.4365 78.98 86.4032 78.74 87.4698 78.74C88.5365 78.74 89.5032 78.98 90.3698 79.46C91.2365 79.9267 91.9165 80.5933 92.4098 81.46C92.9165 82.3267 93.1698 83.3267 93.1698 84.46C93.1698 85.5933 92.9098 86.5933 92.3898 87.46C91.8832 88.3267 91.1898 89 90.3098 89.48C89.4432 89.9467 88.4698 90.18 87.3898 90.18ZM87.3898 87.74C87.8965 87.74 88.3698 87.62 88.8098 87.38C89.2632 87.1267 89.6232 86.7533 89.8898 86.26C90.1565 85.7667 90.2898 85.1667 90.2898 84.46C90.2898 83.4067 90.0098 82.6 89.4498 82.04C88.9032 81.4667 88.2298 81.18 87.4298 81.18C86.6298 81.18 85.9565 81.4667 85.4098 82.04C84.8765 82.6 84.6098 83.4067 84.6098 84.46C84.6098 85.5133 84.8698 86.3267 85.3898 86.9C85.9232 87.46 86.5898 87.74 87.3898 87.74ZM98.0238 80.64C98.3838 80.0533 98.8504 79.5933 99.4238 79.26C100.01 78.9267 100.677 78.76 101.424 78.76V81.7H100.684C99.8038 81.7 99.1371 81.9067 98.6838 82.32C98.2438 82.7333 98.0238 83.4533 98.0238 84.48V90H95.2238V78.92H98.0238V80.64Z" fill="white"/>
</svg>
