<?xml version="1.0" encoding="utf-8"?>
<!-- Generator: Adobe Illustrator 22.1.0, SVG Export Plug-In . SVG Version: 6.00 Build 0)  -->
<svg version="1.1" id="Layer_1" xmlns="http://www.w3.org/2000/svg" xmlns:xlink="http://www.w3.org/1999/xlink" x="0px" y="0px"
	 viewBox="0 0 250.8 45.9" style="enable-background:new 0 0 250.8 45.9;" xml:space="preserve">
<style type="text/css">
	.st0{clip-path:url(#SVGID_1_);fill:url(#SVGID_2_);}
	.st1{fill:#FFFFFF;}
</style>
<g>
	<g>
		<defs>
			<path id="SVGID_4_" d="M1.5,20.2c-1.6,0.6-1.9,2.2-1.1,4.7c0.8,2.4,2.5,3.2,3.8,3.1c1.3-0.1,2.3-1.8,1.8-4
				c-0.4-1.9-2.1-3.9-3.7-3.9C2,20.1,1.8,20.1,1.5,20.2 M8.4,14.7c-1.3,0.8-1.6,2.5-0.8,3.5c2.4,3.3,3.6,7.7,2.2,13.1
				c-0.3,1.1-0.2,2.1,0.6,2.6c0.8,0.5,2.2,0.4,2.5-0.6c2.2-6.8,3.3-12.1-1-18.1c-0.5-0.6-1.2-1-1.9-1C9.5,14.3,8.9,14.4,8.4,14.7
				 M18.2,8.8c-1.6,1.2-2.4,3.7-1.1,5.8c4.7,7.3,1.5,12.8-0.5,19.6c-0.5,1.7-0.1,3.7,1.2,4.5c1.3,0.8,2.8,0.1,3.2-1.6
				c2.1-9.1,10-18,3-27.2c-1-1.3-2.2-1.8-3.4-1.8C19.7,8.1,18.9,8.3,18.2,8.8 M31.3,1c-2.2,1.6-3.2,4.5-1.1,7.5
				c7,10.4-5.1,21-5.6,30.8c0,0.2,0,0.4,0,0.6c0.1,3.3,2.7,6,6.1,6c0.1,0,0.1,0,0.2,0c1.1,0,2-0.9,2-2c0-0.3-0.1-0.7-0.2-1
				c-6.9-12.5,19.3-26,6.2-40.8C37.6,0.8,35.9,0,34.3,0C33.3,0,32.2,0.3,31.3,1"/>
		</defs>
		<clipPath id="SVGID_1_">
			<use xlink:href="#SVGID_4_"  style="overflow:visible;"/>
		</clipPath>
		
			<linearGradient id="SVGID_2_" gradientUnits="userSpaceOnUse" x1="-673.0762" y1="2056.8999" x2="-672.0762" y2="2056.8999" gradientTransform="matrix(43.4155 -9.2283 -9.2283 -43.4155 48204.6133 83118.2734)">
			<stop  offset="0" style="stop-color:#00C3B2"/>
			<stop  offset="1" style="stop-color:#97D700"/>
		</linearGradient>
		<polygon class="st0" points="-9.7,2 49.6,-10.6 61.2,43.9 1.9,56.5 		"/>
	</g>
	<g>
		<rect x="55" y="10.5" class="st1" width="5.7" height="26.6"/>
		<path class="st1" d="M83.1,24.3v12.8h-5.4V24.6c0-2.1-1-3.2-3-3.2c-1.3,0-2.3,0.2-3.4,0.5v15.2H66V18.5c2.8-1.1,6-1.7,9-1.7
			c2.3,0,4.3,0.6,5.5,1.6c1.8-0.8,3.8-1.6,6.8-1.6c4.7,0,7.7,1.8,7.7,7.7v12.7h-5.4V24.6c0-2.1-0.9-3.2-3-3.2
			c-1.4,0-2.9,0.3-3.8,0.8C82.9,22.7,83.1,23.3,83.1,24.3"/>
		<path class="st1" d="M109.8,24c0-1.9-1.6-2.7-3.6-2.7c-2.4,0-4.2,0.7-5.8,1.7v-4.6c1.8-1,4.2-1.6,6.7-1.6c4.6,0,8,1.8,8,7.1v12.9
			c-1.9,0.4-5,0.8-7.5,0.8c-5.1,0-8.9-1.5-8.9-6.1c0-4.2,3.4-6.1,8.9-6.1h2.2V24z M109.8,28.7H108c-2.5,0-4,0.7-4,2.4
			c0,1.7,1.4,2.5,3.5,2.5c0.6,0,1.5,0,2.2-0.2V28.7z"/>
		<path class="st1" d="M132.5,36.2c-0.7,0.4-2.1,0.7-3.7,0.7c-6,0-10.2-3.5-10.2-10c0-6.3,4.2-10.2,11.2-10.2c3.1,0,5.9,0.6,8.1,1.5
			v18.6c0,6.8-5.5,8.8-10,8.8c-2.5,0-4.8-0.5-6.8-1.5v-5c2.4,1.4,4.4,2,6.8,2c2.6,0,4.6-1.4,4.6-4.4V36.2z M132.5,21.8
			c-0.7-0.2-1.7-0.4-2.7-0.4c-3.6,0-5.8,1.8-5.8,5.5c0,3.4,2.1,5.5,5.4,5.5c1.2,0,2.1-0.3,3-0.6V21.8z"/>
		<path class="st1" d="M142.4,11.1c0-1.8,1.4-3.2,3.2-3.2c1.7,0,3.2,1.4,3.2,3.2c0,1.7-1.5,3.2-3.2,3.2
			C143.8,14.3,142.4,12.9,142.4,11.1 M148.3,37.1h-5.4V17.2h5.4V37.1z"/>
		<path class="st1" d="M153.3,18.5c2.8-1.1,6.5-1.7,9.5-1.7c5.2,0,8.5,1.9,8.5,7.9v12.5H166V24.9c0-2.2-1.2-3.4-3.5-3.4
			c-1.3,0-2.6,0.2-3.8,0.6v15h-5.4V18.5z"/>
		<path class="st1" d="M180.2,28.6L180.2,28.6c0.4,2.9,3.2,4.3,5.9,4.3c2.7,0,4.7-0.6,6.7-1.8v4.6c-1.8,1.3-4.5,1.8-7.2,1.8
			c-6.5,0-10.6-4-10.6-10.2c0-6.6,4.2-10.6,9.7-10.6c6.2,0,8.6,4.1,8.6,9.4v2.5H180.2z M180.3,25.4h8.1c0-2.5-1.2-4.2-3.8-4.2
			C182.3,21.1,180.8,22.8,180.3,25.4"/>
		<path class="st1" d="M201.5,28.6L201.5,28.6c0.4,2.9,3.2,4.3,5.9,4.3c2.7,0,4.7-0.6,6.7-1.8v4.6c-1.8,1.3-4.5,1.8-7.2,1.8
			c-6.5,0-10.6-4-10.6-10.2c0-6.6,4.2-10.6,9.7-10.6c6.2,0,8.6,4.1,8.6,9.4v2.5H201.5z M201.6,25.4h8.1c0-2.5-1.2-4.2-3.8-4.2
			C203.6,21.1,202,22.8,201.6,25.4"/>
		<path class="st1" d="M228.6,24c0-1.9-1.6-2.7-3.6-2.7c-2.4,0-4.2,0.7-5.8,1.7v-4.6c1.8-1,4.2-1.6,6.7-1.6c4.6,0,8,1.8,8,7.1v12.9
			c-1.9,0.4-5,0.8-7.5,0.8c-5.1,0-8.9-1.5-8.9-6.1c0-4.2,3.4-6.1,8.9-6.1h2.2V24z M228.6,28.7h-1.8c-2.5,0-4,0.7-4,2.4
			c0,1.7,1.4,2.5,3.5,2.5c0.6,0,1.5,0,2.2-0.2V28.7z"/>
		<path class="st1" d="M244.1,37.1h-5.4V18.7c2.2-1.2,5.1-1.8,8-1.8c1.6,0,2.7,0.1,4.2,0.5v5.2c-1.3-0.5-2.7-0.7-4-0.7
			c-1,0-1.9,0.2-2.7,0.4V37.1z"/>
	</g>
</g>
</svg>
