<svg width="20" height="18" viewBox="0 0 20 18" fill="none" xmlns="http://www.w3.org/2000/svg">
<path d="M7.5 13.624L14.5 8.99997L7.5 4.37591V13.624ZM2 17.2205C1.45 17.2205 0.979333 17.0195 0.588 16.6173C0.196 16.2145 0 15.7305 0 15.1654V2.83456C0 2.26939 0.196 1.78575 0.588 1.38363C0.979333 0.980822 1.45 0.779419 2 0.779419H18C18.55 0.779419 19.021 0.980822 19.413 1.38363C19.8043 1.78575 20 2.26939 20 2.83456V15.1654C20 15.7305 19.8043 16.2145 19.413 16.6173C19.021 17.0195 18.55 17.2205 18 17.2205H2ZM2 15.1654H18V2.83456H2V15.1654Z" fill="#2F2F2F"/>
</svg>
