<svg width="16" height="20" viewBox="0 0 16 20" fill="none" xmlns="http://www.w3.org/2000/svg">
<path d="M7 19.7619C6.45 19.7619 5.97933 19.5608 5.588 19.1587C5.196 18.7559 5 18.2719 5 17.7068V13.5965H2C1.45 13.5965 0.979333 13.3951 0.588 12.9923C0.196 12.5902 0 12.1065 0 11.5414V4.34837C0 3.21805 0.391667 2.25042 1.175 1.44549C1.95833 0.640563 2.9 0.238098 4 0.238098H16V11.5414C16 12.1065 15.8043 12.5902 15.413 12.9923C15.021 13.3951 14.55 13.5965 14 13.5965H11V17.7068C11 18.2719 10.8043 18.7559 10.413 19.1587C10.021 19.5608 9.55 19.7619 9 19.7619H7ZM2 7.43108H14V2.29324H13V6.40351H11V2.29324H10V4.34837H8V2.29324H4C3.45 2.29324 2.97933 2.49464 2.588 2.89745C2.196 3.29957 2 3.78321 2 4.34837V7.43108ZM2 11.5414H14V9.48622H2V11.5414Z" fill="#2F2F2F"/>
</svg>
