<svg width="18" height="20" viewBox="0 0 18 20" fill="none" xmlns="http://www.w3.org/2000/svg">
<path d="M2 19.2481C1.45 19.2481 0.979 19.0471 0.587 18.645C0.195667 18.2421 0 17.7582 0 17.193V2.80703C0 2.24187 0.195667 1.75788 0.587 1.35507C0.979 0.952953 1.45 0.751892 2 0.751892H16C16.55 0.751892 17.021 0.952953 17.413 1.35507C17.8043 1.75788 18 2.24187 18 2.80703V17.193C18 17.7582 17.8043 18.2421 17.413 18.645C17.021 19.0471 16.55 19.2481 16 19.2481H2ZM2 17.193H16V4.86217H2V17.193ZM4 10V7.94487H14V10H4ZM4 14.1103V12.0552H10V14.1103H4Z" fill="#2F2F2F"/>
</svg>
