<svg width="1248" height="791" viewBox="0 0 1248 791" fill="none" xmlns="http://www.w3.org/2000/svg">
<line x1="1247.5" y1="0.337677" x2="1247.5" y2="789.662" stroke="#CECECE"/>
<line x1="1186.73" y1="0.337677" x2="1186.73" y2="789.662" stroke="#CECECE"/>
<line x1="1125.96" y1="0.337677" x2="1125.96" y2="789.662" stroke="#CECECE"/>
<line x1="1065.19" y1="0.337677" x2="1065.19" y2="789.662" stroke="#CECECE"/>
<line x1="1004.42" y1="0.337677" x2="1004.42" y2="789.662" stroke="#CECECE"/>
<line x1="943.654" y1="0.337677" x2="943.654" y2="789.662" stroke="#CECECE"/>
<line x1="882.885" y1="0.337677" x2="882.885" y2="789.662" stroke="#CECECE"/>
<line x1="822.115" y1="0.337677" x2="822.115" y2="789.662" stroke="#CECECE"/>
<line x1="761.346" y1="0.337677" x2="761.346" y2="789.662" stroke="#CECECE"/>
<line x1="700.577" y1="0.337677" x2="700.577" y2="789.662" stroke="#CECECE"/>
<line x1="639.808" y1="0.337677" x2="639.808" y2="789.662" stroke="#CECECE"/>
<line x1="579.038" y1="0.337677" x2="579.038" y2="789.662" stroke="#CECECE"/>
<line x1="518.269" y1="0.337677" x2="518.269" y2="789.662" stroke="#CECECE"/>
<line x1="457.5" y1="0.337677" x2="457.5" y2="789.662" stroke="#CECECE"/>
<line x1="1246.66" y1="790.5" x2="457.338" y2="790.5" stroke="#CECECE"/>
<line x1="1246.66" y1="729.731" x2="457.338" y2="729.731" stroke="#CECECE"/>
<line x1="1246.66" y1="668.962" x2="457.338" y2="668.961" stroke="#CECECE"/>
<line x1="1246.66" y1="608.192" x2="457.338" y2="608.192" stroke="#CECECE"/>
<line x1="1246.66" y1="547.423" x2="457.338" y2="547.423" stroke="#CECECE"/>
<line x1="1246.66" y1="486.654" x2="457.338" y2="486.654" stroke="#CECECE"/>
<line x1="1246.66" y1="425.885" x2="457.338" y2="425.885" stroke="#CECECE"/>
<line x1="1246.66" y1="365.115" x2="457.338" y2="365.115" stroke="#CECECE"/>
<line x1="1246.66" y1="304.346" x2="457.338" y2="304.346" stroke="#CECECE"/>
<line x1="1246.66" y1="243.577" x2="457.338" y2="243.577" stroke="#CECECE"/>
<line x1="1246.66" y1="182.808" x2="457.338" y2="182.808" stroke="#CECECE"/>
<line x1="1246.66" y1="122.039" x2="457.338" y2="122.038" stroke="#CECECE"/>
<line x1="1246.66" y1="61.2693" x2="457.338" y2="61.2692" stroke="#CECECE"/>
<line x1="1246.66" y1="0.500092" x2="457.338" y2="0.500023" stroke="#CECECE"/>
<path d="M537.392 547L534.96 544.6C532.891 546.456 530.363 547.384 527.376 547.384C525.733 547.384 524.283 547.107 523.024 546.552C521.787 545.976 520.827 545.176 520.144 544.152C519.461 543.107 519.12 541.901 519.12 540.536C519.12 539.064 519.536 537.741 520.368 536.568C521.2 535.395 522.427 534.445 524.048 533.72C523.472 533.016 523.056 532.344 522.8 531.704C522.544 531.043 522.416 530.339 522.416 529.592C522.416 528.568 522.683 527.651 523.216 526.84C523.749 526.008 524.507 525.357 525.488 524.888C526.491 524.419 527.653 524.184 528.976 524.184C530.32 524.184 531.472 524.44 532.432 524.952C533.392 525.464 534.107 526.147 534.576 527C535.045 527.853 535.248 528.803 535.184 529.848H530.832C530.853 529.144 530.683 528.611 530.32 528.248C529.957 527.864 529.467 527.672 528.848 527.672C528.251 527.672 527.749 527.853 527.344 528.216C526.96 528.557 526.768 529.005 526.768 529.56C526.768 530.093 526.928 530.627 527.248 531.16C527.568 531.672 528.091 532.312 528.816 533.08L534.448 538.648C534.491 538.605 534.523 538.563 534.544 538.52C534.565 538.477 534.587 538.435 534.608 538.392L536.432 535.352H541.104L538.864 539.288C538.437 540.12 537.979 540.909 537.488 541.656L542.896 547H537.392ZM527.504 543.672C529.253 543.672 530.8 543.053 532.144 541.816L526.64 536.376C524.571 537.293 523.536 538.595 523.536 540.28C523.536 541.24 523.899 542.051 524.624 542.712C525.349 543.352 526.309 543.672 527.504 543.672ZM571.267 524.664V547H566.787V537.496H557.219V547H552.739V524.664H557.219V533.848H566.787V524.664H571.267ZM586.045 547.224C583.954 547.224 582.034 546.733 580.285 545.752C578.535 544.771 577.149 543.416 576.125 541.688C575.101 539.939 574.589 537.965 574.589 535.768C574.589 533.592 575.101 531.64 576.125 529.912C577.149 528.163 578.535 526.797 580.285 525.816C582.034 524.835 583.954 524.344 586.045 524.344C588.157 524.344 590.077 524.835 591.805 525.816C593.554 526.797 594.93 528.163 595.933 529.912C596.957 531.64 597.469 533.592 597.469 535.768C597.469 537.965 596.957 539.939 595.933 541.688C594.93 543.416 593.554 544.771 591.805 545.752C590.055 546.733 588.135 547.224 586.045 547.224ZM586.045 543.224C587.389 543.224 588.573 542.925 589.597 542.328C590.621 541.709 591.421 540.835 591.997 539.704C592.573 538.573 592.861 537.261 592.861 535.768C592.861 534.275 592.573 532.973 591.997 531.864C591.421 530.733 590.621 529.869 589.597 529.272C588.573 528.675 587.389 528.376 586.045 528.376C584.701 528.376 583.506 528.675 582.461 529.272C581.437 529.869 580.637 530.733 580.061 531.864C579.485 532.973 579.197 534.275 579.197 535.768C579.197 537.261 579.485 538.573 580.061 539.704C580.637 540.835 581.437 541.709 582.461 542.328C583.506 542.925 584.701 543.224 586.045 543.224ZM613.474 535.544C614.732 535.779 615.767 536.408 616.578 537.432C617.388 538.456 617.794 539.629 617.794 540.952C617.794 542.147 617.495 543.203 616.898 544.12C616.322 545.016 615.479 545.72 614.37 546.232C613.26 546.744 611.948 547 610.434 547H600.802V524.664H610.018C611.532 524.664 612.834 524.909 613.922 525.4C615.031 525.891 615.863 526.573 616.418 527.448C616.994 528.323 617.282 529.315 617.282 530.424C617.282 531.725 616.93 532.813 616.226 533.688C615.543 534.563 614.626 535.181 613.474 535.544ZM605.282 533.88H609.378C610.444 533.88 611.266 533.645 611.842 533.176C612.418 532.685 612.706 531.992 612.706 531.096C612.706 530.2 612.418 529.507 611.842 529.016C611.266 528.525 610.444 528.28 609.378 528.28H605.282V533.88ZM609.794 543.352C610.882 543.352 611.724 543.096 612.322 542.584C612.94 542.072 613.25 541.347 613.25 540.408C613.25 539.448 612.93 538.701 612.29 538.168C611.65 537.613 610.786 537.336 609.698 537.336H605.282V543.352H609.794ZM634.036 535.544C635.295 535.779 636.33 536.408 637.14 537.432C637.951 538.456 638.356 539.629 638.356 540.952C638.356 542.147 638.058 543.203 637.46 544.12C636.884 545.016 636.042 545.72 634.932 546.232C633.823 546.744 632.511 547 630.996 547H621.364V524.664H630.58C632.095 524.664 633.396 524.909 634.484 525.4C635.594 525.891 636.426 526.573 636.98 527.448C637.556 528.323 637.844 529.315 637.844 530.424C637.844 531.725 637.492 532.813 636.788 533.688C636.106 534.563 635.188 535.181 634.036 535.544ZM625.844 533.88H629.94C631.007 533.88 631.828 533.645 632.404 533.176C632.98 532.685 633.268 531.992 633.268 531.096C633.268 530.2 632.98 529.507 632.404 529.016C631.828 528.525 631.007 528.28 629.94 528.28H625.844V533.88ZM630.356 543.352C631.444 543.352 632.287 543.096 632.884 542.584C633.503 542.072 633.812 541.347 633.812 540.408C633.812 539.448 633.492 538.701 632.852 538.168C632.212 537.613 631.348 537.336 630.26 537.336H625.844V543.352H630.356ZM659.687 524.664L652.135 539.224V547H647.655V539.224L640.071 524.664H645.127L649.927 534.872L654.695 524.664H659.687ZM666.751 524.664V547H662.271V524.664H666.751ZM678.889 547.224C677.331 547.224 675.923 546.957 674.665 546.424C673.427 545.891 672.446 545.123 671.721 544.12C670.995 543.117 670.622 541.933 670.601 540.568H675.401C675.465 541.485 675.785 542.211 676.361 542.744C676.958 543.277 677.769 543.544 678.793 543.544C679.838 543.544 680.659 543.299 681.257 542.808C681.854 542.296 682.153 541.635 682.153 540.824C682.153 540.163 681.95 539.619 681.545 539.192C681.139 538.765 680.627 538.435 680.009 538.2C679.411 537.944 678.579 537.667 677.513 537.368C676.062 536.941 674.878 536.525 673.961 536.12C673.065 535.693 672.286 535.064 671.625 534.232C670.985 533.379 670.665 532.248 670.665 530.84C670.665 529.517 670.995 528.365 671.657 527.384C672.318 526.403 673.246 525.656 674.441 525.144C675.635 524.611 677.001 524.344 678.537 524.344C680.841 524.344 682.707 524.909 684.137 526.04C685.587 527.149 686.387 528.707 686.537 530.712H681.609C681.566 529.944 681.235 529.315 680.617 528.824C680.019 528.312 679.219 528.056 678.217 528.056C677.342 528.056 676.638 528.28 676.105 528.728C675.593 529.176 675.337 529.827 675.337 530.68C675.337 531.277 675.529 531.779 675.913 532.184C676.318 532.568 676.809 532.888 677.385 533.144C677.982 533.379 678.814 533.656 679.881 533.976C681.331 534.403 682.515 534.829 683.433 535.256C684.35 535.683 685.139 536.323 685.801 537.176C686.462 538.029 686.793 539.149 686.793 540.536C686.793 541.731 686.483 542.84 685.865 543.864C685.246 544.888 684.339 545.709 683.145 546.328C681.95 546.925 680.531 547.224 678.889 547.224ZM705.877 524.664V528.28H699.925V547H695.445V528.28H689.493V524.664H705.877ZM724.579 524.664C726.925 524.664 728.984 525.123 730.755 526.04C732.547 526.957 733.923 528.269 734.883 529.976C735.864 531.661 736.355 533.624 736.355 535.864C736.355 538.104 735.864 540.067 734.883 541.752C733.923 543.416 732.547 544.707 730.755 545.624C728.984 546.541 726.925 547 724.579 547H716.771V524.664H724.579ZM724.419 543.192C726.765 543.192 728.579 542.552 729.859 541.272C731.139 539.992 731.779 538.189 731.779 535.864C731.779 533.539 731.139 531.725 729.859 530.424C728.579 529.101 726.765 528.44 724.419 528.44H721.251V543.192H724.419ZM744.188 528.28V533.88H751.708V537.432H744.188V543.352H752.668V547H739.708V524.632H752.668V528.28H744.188ZM776.803 524.664L768.611 547H763.171L754.979 524.664H759.779L765.923 542.424L772.035 524.664H776.803ZM783.969 528.28V533.88H791.489V537.432H783.969V543.352H792.449V547H779.489V524.632H792.449V528.28H783.969ZM801.001 543.448H808.361V547H796.521V524.664H801.001V543.448ZM821.576 547.224C819.485 547.224 817.565 546.733 815.816 545.752C814.067 544.771 812.68 543.416 811.656 541.688C810.632 539.939 810.12 537.965 810.12 535.768C810.12 533.592 810.632 531.64 811.656 529.912C812.68 528.163 814.067 526.797 815.816 525.816C817.565 524.835 819.485 524.344 821.576 524.344C823.688 524.344 825.608 524.835 827.336 525.816C829.085 526.797 830.461 528.163 831.464 529.912C832.488 531.64 833 533.592 833 535.768C833 537.965 832.488 539.939 831.464 541.688C830.461 543.416 829.085 544.771 827.336 545.752C825.587 546.733 823.667 547.224 821.576 547.224ZM821.576 543.224C822.92 543.224 824.104 542.925 825.128 542.328C826.152 541.709 826.952 540.835 827.528 539.704C828.104 538.573 828.392 537.261 828.392 535.768C828.392 534.275 828.104 532.973 827.528 531.864C826.952 530.733 826.152 529.869 825.128 529.272C824.104 528.675 822.92 528.376 821.576 528.376C820.232 528.376 819.037 528.675 817.992 529.272C816.968 529.869 816.168 530.733 815.592 531.864C815.016 532.973 814.728 534.275 814.728 535.768C814.728 537.261 815.016 538.573 815.592 539.704C816.168 540.835 816.968 541.709 817.992 542.328C819.037 542.925 820.232 543.224 821.576 543.224ZM852.621 531.576C852.621 532.771 852.333 533.891 851.757 534.936C851.202 535.981 850.317 536.824 849.101 537.464C847.906 538.104 846.392 538.424 844.557 538.424H840.813V547H836.333V524.664H844.557C846.285 524.664 847.757 524.963 848.973 525.56C850.189 526.157 851.096 526.979 851.693 528.024C852.312 529.069 852.621 530.253 852.621 531.576ZM844.365 534.808C845.602 534.808 846.52 534.531 847.117 533.976C847.714 533.4 848.013 532.6 848.013 531.576C848.013 529.4 846.797 528.312 844.365 528.312H840.813V534.808H844.365ZM860.282 528.28V533.88H867.802V537.432H860.282V543.352H868.762V547H855.802V524.632H868.762V528.28H860.282ZM884.353 547L879.425 538.296H877.313V547H872.833V524.664H881.217C882.945 524.664 884.417 524.973 885.633 525.592C886.849 526.189 887.756 527.011 888.353 528.056C888.972 529.08 889.281 530.232 889.281 531.512C889.281 532.984 888.854 534.317 888.001 535.512C887.148 536.685 885.878 537.496 884.193 537.944L889.537 547H884.353ZM877.313 534.936H881.057C882.273 534.936 883.18 534.648 883.777 534.072C884.374 533.475 884.673 532.653 884.673 531.608C884.673 530.584 884.374 529.795 883.777 529.24C883.18 528.664 882.273 528.376 881.057 528.376H877.313V534.936ZM895.317 547.224C894.506 547.224 893.834 546.979 893.301 546.488C892.789 545.976 892.533 545.347 892.533 544.6C892.533 543.853 892.789 543.235 893.301 542.744C893.834 542.232 894.506 541.976 895.317 541.976C896.106 541.976 896.757 542.232 897.269 542.744C897.781 543.235 898.037 543.853 898.037 544.6C898.037 545.347 897.781 545.976 897.269 546.488C896.757 546.979 896.106 547.224 895.317 547.224Z" fill="black"/>
<rect y="61" width="822" height="426" fill="#060742"/>
<path d="M108.326 153.232L102.358 149.184V148.192L108.326 144.144V145.408L103.51 148.656V148.72L108.326 151.968V153.232ZM111.343 154V143.504H112.815L116.175 150.096L117.183 152.272H117.215C117.194 151.749 117.157 151.205 117.103 150.64C117.061 150.064 117.039 149.499 117.039 148.944V143.504H118.319V154H116.847L113.487 147.408L112.479 145.232H112.447C112.469 145.765 112.501 146.309 112.543 146.864C112.597 147.419 112.623 147.968 112.623 148.512V154H111.343ZM123.561 154.192C123.081 154.192 122.638 154.107 122.233 153.936C121.828 153.755 121.508 153.499 121.273 153.168C121.038 152.837 120.921 152.443 120.921 151.984C120.921 151.109 121.358 150.448 122.233 150C123.108 149.541 124.548 149.232 126.553 149.072C126.542 148.72 126.468 148.395 126.329 148.096C126.201 147.797 125.988 147.563 125.689 147.392C125.39 147.211 124.99 147.12 124.489 147.12C124.158 147.12 123.828 147.168 123.497 147.264C123.177 147.349 122.868 147.467 122.569 147.616C122.281 147.755 122.014 147.899 121.769 148.048L121.257 147.152C121.513 146.981 121.822 146.811 122.185 146.64C122.558 146.459 122.958 146.315 123.385 146.208C123.812 146.091 124.254 146.032 124.713 146.032C125.428 146.032 126.014 146.165 126.473 146.432C126.942 146.699 127.289 147.072 127.513 147.552C127.748 148.021 127.865 148.581 127.865 149.232V154H126.793L126.681 152.944H126.633C126.206 153.285 125.726 153.579 125.193 153.824C124.66 154.069 124.116 154.192 123.561 154.192ZM123.913 153.136C124.361 153.136 124.804 153.035 125.241 152.832C125.678 152.629 126.116 152.347 126.553 151.984V149.936C125.444 150.032 124.569 150.165 123.929 150.336C123.3 150.507 122.852 150.725 122.585 150.992C122.329 151.248 122.201 151.547 122.201 151.888C122.201 152.176 122.281 152.416 122.441 152.608C122.601 152.789 122.809 152.923 123.065 153.008C123.332 153.093 123.614 153.136 123.913 153.136ZM130.147 154V146.224H131.203L131.315 147.248H131.347C131.549 146.885 131.784 146.592 132.051 146.368C132.317 146.144 132.675 146.032 133.123 146.032C133.507 146.032 133.821 146.144 134.067 146.368C134.312 146.592 134.488 146.928 134.595 147.376C134.819 146.96 135.064 146.635 135.331 146.4C135.608 146.155 135.971 146.032 136.419 146.032C136.963 146.032 137.384 146.24 137.683 146.656C137.992 147.061 138.147 147.653 138.147 148.432V154H136.835V148.528C136.835 147.621 136.557 147.168 136.003 147.168C135.736 147.168 135.512 147.269 135.331 147.472C135.16 147.664 134.968 147.963 134.755 148.368V154H133.539V148.528C133.539 148.08 133.475 147.744 133.347 147.52C133.229 147.285 133.027 147.168 132.739 147.168C132.472 147.168 132.237 147.269 132.035 147.472C131.843 147.664 131.651 147.963 131.459 148.368V154H130.147ZM144.093 154.192C143.314 154.192 142.605 154.032 141.965 153.712C141.335 153.392 140.834 152.928 140.461 152.32C140.087 151.701 139.901 150.96 139.901 150.096C139.901 149.253 140.087 148.528 140.461 147.92C140.834 147.312 141.319 146.848 141.917 146.528C142.525 146.197 143.175 146.032 143.869 146.032C144.615 146.032 145.25 146.187 145.773 146.496C146.306 146.795 146.711 147.216 146.989 147.76C147.277 148.304 147.421 148.944 147.421 149.68C147.421 149.829 147.415 149.973 147.405 150.112C147.394 150.251 147.378 150.373 147.357 150.48H140.781V149.456H146.573L146.237 149.824C146.237 148.907 146.023 148.219 145.597 147.76C145.181 147.301 144.615 147.072 143.901 147.072C143.421 147.072 142.973 147.189 142.557 147.424C142.151 147.659 141.826 148 141.581 148.448C141.335 148.896 141.213 149.445 141.213 150.096C141.213 150.768 141.346 151.328 141.613 151.776C141.879 152.224 142.242 152.565 142.701 152.8C143.159 153.024 143.677 153.136 144.253 153.136C144.722 153.136 145.143 153.072 145.517 152.944C145.901 152.805 146.269 152.624 146.621 152.4L147.101 153.264C146.717 153.52 146.274 153.739 145.773 153.92C145.282 154.101 144.722 154.192 144.093 154.192ZM150.118 153.232V151.968L154.934 148.72V148.656L150.118 145.408V144.144L156.086 148.192V149.184L150.118 153.232Z" fill="#5C5C8A"/>
<path d="M201.456 170L191.6 152.592H187.376V170H178.416V125.328H195.184C198.64 125.328 201.584 125.947 204.016 127.184C206.448 128.379 208.261 130.021 209.456 132.112C210.693 134.16 211.312 136.464 211.312 139.024C211.312 141.968 210.459 144.635 208.752 147.024C207.045 149.371 204.507 150.992 201.136 151.888L211.824 170H201.456ZM187.376 145.872H194.864C197.296 145.872 199.109 145.296 200.304 144.144C201.499 142.949 202.096 141.307 202.096 139.216C202.096 137.168 201.499 135.589 200.304 134.48C199.109 133.328 197.296 132.752 194.864 132.752H187.376V145.872ZM235.16 170.576C231.747 170.576 228.675 169.829 225.944 168.336C223.213 166.8 221.059 164.645 219.48 161.872C217.944 159.099 217.176 155.899 217.176 152.272C217.176 148.645 217.965 145.445 219.544 142.672C221.165 139.899 223.363 137.765 226.136 136.272C228.909 134.736 232.003 133.968 235.416 133.968C238.829 133.968 241.923 134.736 244.696 136.272C247.469 137.765 249.645 139.899 251.224 142.672C252.845 145.445 253.656 148.645 253.656 152.272C253.656 155.899 252.824 159.099 251.16 161.872C249.539 164.645 247.32 166.8 244.504 168.336C241.731 169.829 238.616 170.576 235.16 170.576ZM235.16 162.768C236.781 162.768 238.296 162.384 239.704 161.616C241.155 160.805 242.307 159.611 243.16 158.032C244.013 156.453 244.44 154.533 244.44 152.272C244.44 148.901 243.544 146.32 241.752 144.528C240.003 142.693 237.848 141.776 235.288 141.776C232.728 141.776 230.573 142.693 228.824 144.528C227.117 146.32 226.264 148.901 226.264 152.272C226.264 155.643 227.096 158.245 228.76 160.08C230.467 161.872 232.6 162.768 235.16 162.768ZM273.797 170.576C270.895 170.576 268.293 170.064 265.989 169.04C263.685 167.973 261.85 166.544 260.485 164.752C259.162 162.96 258.437 160.976 258.309 158.8H267.333C267.503 160.165 268.165 161.296 269.317 162.192C270.511 163.088 271.983 163.536 273.733 163.536C275.439 163.536 276.762 163.195 277.701 162.512C278.682 161.829 279.173 160.955 279.173 159.888C279.173 158.736 278.575 157.883 277.381 157.328C276.229 156.731 274.373 156.091 271.812 155.408C269.167 154.768 266.991 154.107 265.285 153.424C263.621 152.741 262.17 151.696 260.933 150.288C259.738 148.88 259.141 146.981 259.141 144.592C259.141 142.629 259.695 140.837 260.805 139.216C261.957 137.595 263.578 136.315 265.669 135.376C267.802 134.437 270.298 133.968 273.157 133.968C277.381 133.968 280.751 135.035 283.269 137.168C285.786 139.259 287.173 142.096 287.429 145.68H278.853C278.725 144.272 278.127 143.163 277.061 142.352C276.037 141.499 274.65 141.072 272.901 141.072C271.279 141.072 270.021 141.371 269.125 141.968C268.271 142.565 267.845 143.397 267.845 144.464C267.845 145.659 268.442 146.576 269.637 147.216C270.831 147.813 272.687 148.432 275.205 149.072C277.765 149.712 279.877 150.373 281.541 151.056C283.205 151.739 284.634 152.805 285.829 154.256C287.066 155.664 287.706 157.541 287.749 159.888C287.749 161.936 287.173 163.771 286.021 165.392C284.911 167.013 283.29 168.293 281.157 169.232C279.066 170.128 276.613 170.576 273.797 170.576ZM308.672 170.576C305.77 170.576 303.168 170.064 300.864 169.04C298.56 167.973 296.725 166.544 295.36 164.752C294.037 162.96 293.312 160.976 293.184 158.8H302.208C302.378 160.165 303.04 161.296 304.192 162.192C305.386 163.088 306.858 163.536 308.608 163.536C310.314 163.536 311.637 163.195 312.576 162.512C313.557 161.829 314.048 160.955 314.048 159.888C314.048 158.736 313.45 157.883 312.256 157.328C311.104 156.731 309.248 156.091 306.688 155.408C304.042 154.768 301.866 154.107 300.16 153.424C298.496 152.741 297.045 151.696 295.808 150.288C294.613 148.88 294.016 146.981 294.016 144.592C294.016 142.629 294.57 140.837 295.68 139.216C296.832 137.595 298.453 136.315 300.544 135.376C302.677 134.437 305.173 133.968 308.032 133.968C312.256 133.968 315.626 135.035 318.144 137.168C320.661 139.259 322.048 142.096 322.304 145.68H313.728C313.6 144.272 313.002 143.163 311.936 142.352C310.912 141.499 309.525 141.072 307.776 141.072C306.154 141.072 304.896 141.371 304 141.968C303.146 142.565 302.72 143.397 302.72 144.464C302.72 145.659 303.317 146.576 304.512 147.216C305.706 147.813 307.562 148.432 310.08 149.072C312.64 149.712 314.752 150.373 316.416 151.056C318.08 151.739 319.509 152.805 320.704 154.256C321.941 155.664 322.581 157.541 322.624 159.888C322.624 161.936 322.048 163.771 320.896 165.392C319.786 167.013 318.165 168.293 316.032 169.232C313.941 170.128 311.488 170.576 308.672 170.576ZM360.653 170.448C357.538 170.448 354.722 169.915 352.205 168.848C349.73 167.781 347.767 166.245 346.317 164.24C344.866 162.235 344.119 159.867 344.077 157.136H353.677C353.805 158.971 354.445 160.421 355.597 161.488C356.791 162.555 358.413 163.088 360.461 163.088C362.551 163.088 364.194 162.597 365.389 161.616C366.583 160.592 367.181 159.269 367.181 157.648C367.181 156.325 366.775 155.237 365.965 154.384C365.154 153.531 364.13 152.869 362.893 152.4C361.698 151.888 360.034 151.333 357.901 150.736C354.999 149.883 352.631 149.051 350.797 148.24C349.005 147.387 347.447 146.128 346.125 144.464C344.845 142.757 344.205 140.496 344.205 137.68C344.205 135.035 344.866 132.731 346.189 130.768C347.511 128.805 349.367 127.312 351.757 126.288C354.146 125.221 356.877 124.688 359.949 124.688C364.557 124.688 368.29 125.819 371.149 128.08C374.05 130.299 375.65 133.413 375.949 137.424H366.093C366.007 135.888 365.346 134.629 364.109 133.648C362.914 132.624 361.314 132.112 359.309 132.112C357.559 132.112 356.151 132.56 355.085 133.456C354.061 134.352 353.549 135.653 353.549 137.36C353.549 138.555 353.933 139.557 354.701 140.368C355.511 141.136 356.493 141.776 357.645 142.288C358.839 142.757 360.503 143.312 362.637 143.952C365.538 144.805 367.906 145.659 369.741 146.512C371.575 147.365 373.154 148.645 374.477 150.352C375.799 152.059 376.461 154.299 376.461 157.072C376.461 159.461 375.842 161.68 374.604 163.728C373.367 165.776 371.554 167.419 369.165 168.656C366.775 169.851 363.938 170.448 360.653 170.448ZM404.197 134.032C406.885 134.032 409.274 134.629 411.365 135.824C413.455 136.976 415.077 138.704 416.229 141.008C417.423 143.269 418.021 146 418.021 149.2V170H409.061V150.416C409.061 147.6 408.357 145.445 406.949 143.952C405.541 142.416 403.621 141.648 401.189 141.648C398.714 141.648 396.751 142.416 395.301 143.952C393.893 145.445 393.189 147.6 393.189 150.416V170H384.229V122.64H393.189V138.96C394.341 137.424 395.877 136.229 397.797 135.376C399.717 134.48 401.85 134.032 404.197 134.032ZM459.501 151.504C459.501 152.784 459.416 153.936 459.245 154.96H433.325C433.538 157.52 434.434 159.525 436.013 160.976C437.592 162.427 439.533 163.152 441.837 163.152C445.165 163.152 447.533 161.723 448.941 158.864H458.605C457.581 162.277 455.618 165.093 452.717 167.312C449.816 169.488 446.253 170.576 442.029 170.576C438.616 170.576 435.544 169.829 432.813 168.336C430.125 166.8 428.013 164.645 426.477 161.872C424.984 159.099 424.237 155.899 424.237 152.272C424.237 148.603 424.984 145.381 426.477 142.608C427.97 139.835 430.061 137.701 432.749 136.208C435.437 134.715 438.53 133.968 442.029 133.968C445.4 133.968 448.408 134.693 451.053 136.144C453.741 137.595 455.81 139.664 457.261 142.352C458.754 144.997 459.501 148.048 459.501 151.504ZM450.221 148.944C450.178 146.64 449.346 144.805 447.725 143.44C446.104 142.032 444.12 141.328 441.773 141.328C439.554 141.328 437.677 142.011 436.141 143.376C434.648 144.699 433.73 146.555 433.389 148.944H450.221ZM475.001 122.64V170H466.041V122.64H475.001ZM500.11 141.904H493.902V170H484.814V141.904H480.782V134.544H484.814V132.752C484.814 128.4 486.051 125.2 488.526 123.152C491 121.104 494.734 120.144 499.726 120.272V127.824C497.55 127.781 496.035 128.144 495.182 128.912C494.328 129.68 493.902 131.067 493.902 133.072V134.544H500.11V141.904ZM521.66 170.576C518.247 170.576 515.175 169.829 512.444 168.336C509.713 166.8 507.559 164.645 505.98 161.872C504.444 159.099 503.676 155.899 503.676 152.272C503.676 148.645 504.465 145.445 506.044 142.672C507.665 139.899 509.863 137.765 512.636 136.272C515.409 134.736 518.503 133.968 521.916 133.968C525.329 133.968 528.423 134.736 531.196 136.272C533.969 137.765 536.145 139.899 537.724 142.672C539.345 145.445 540.156 148.645 540.156 152.272C540.156 155.899 539.324 159.099 537.66 161.872C536.039 164.645 533.82 166.8 531.004 168.336C528.231 169.829 525.116 170.576 521.66 170.576ZM521.66 162.768C523.281 162.768 524.796 162.384 526.204 161.616C527.655 160.805 528.807 159.611 529.66 158.032C530.513 156.453 530.94 154.533 530.94 152.272C530.94 148.901 530.044 146.32 528.252 144.528C526.503 142.693 524.348 141.776 521.788 141.776C519.228 141.776 517.073 142.693 515.324 144.528C513.617 146.32 512.764 148.901 512.764 152.272C512.764 155.643 513.596 158.245 515.26 160.08C516.967 161.872 519.1 162.768 521.66 162.768ZM555.689 140.048C556.841 138.171 558.334 136.699 560.169 135.632C562.046 134.565 564.179 134.032 566.569 134.032V143.44H564.201C561.385 143.44 559.251 144.101 557.801 145.424C556.393 146.747 555.689 149.051 555.689 152.336V170H546.729V134.544H555.689V140.048ZM570.299 152.144C570.299 148.56 571.003 145.381 572.411 142.608C573.862 139.835 575.825 137.701 578.3 136.208C580.774 134.715 583.526 133.968 586.556 133.968C588.86 133.968 591.057 134.48 593.148 135.504C595.238 136.485 596.902 137.808 598.14 139.472V122.64H607.228V170H598.14V164.752C597.03 166.501 595.473 167.909 593.468 168.976C591.462 170.043 589.137 170.576 586.492 170.576C583.505 170.576 580.774 169.808 578.3 168.272C575.825 166.736 573.862 164.581 572.411 161.808C571.003 158.992 570.299 155.771 570.299 152.144ZM598.204 152.272C598.204 150.096 597.777 148.24 596.924 146.704C596.07 145.125 594.918 143.931 593.468 143.12C592.017 142.267 590.46 141.84 588.796 141.84C587.132 141.84 585.596 142.245 584.188 143.056C582.78 143.867 581.628 145.061 580.732 146.64C579.878 148.176 579.452 150.011 579.452 152.144C579.452 154.277 579.878 156.155 580.732 157.776C581.628 159.355 582.78 160.571 584.188 161.424C585.638 162.277 587.174 162.704 588.796 162.704C590.46 162.704 592.017 162.299 593.468 161.488C594.918 160.635 596.07 159.44 596.924 157.904C597.777 156.325 598.204 154.448 598.204 152.272Z" fill="white"/>
<path d="M636.732 153.232L630.764 149.184V148.192L636.732 144.144V145.408L631.916 148.656V148.72L636.732 151.968V153.232ZM640.022 156.56L645.27 142.64H646.454L641.206 156.56H640.022ZM649.343 154V143.504H650.815L654.175 150.096L655.183 152.272H655.215C655.194 151.749 655.157 151.205 655.103 150.64C655.061 150.064 655.039 149.499 655.039 148.944V143.504H656.319V154H654.847L651.487 147.408L650.479 145.232H650.447C650.469 145.765 650.501 146.309 650.543 146.864C650.597 147.419 650.623 147.968 650.623 148.512V154H649.343ZM661.561 154.192C661.081 154.192 660.638 154.107 660.233 153.936C659.828 153.755 659.508 153.499 659.273 153.168C659.038 152.837 658.921 152.443 658.921 151.984C658.921 151.109 659.358 150.448 660.233 150C661.108 149.541 662.548 149.232 664.553 149.072C664.542 148.72 664.468 148.395 664.329 148.096C664.201 147.797 663.988 147.563 663.689 147.392C663.39 147.211 662.99 147.12 662.489 147.12C662.158 147.12 661.828 147.168 661.497 147.264C661.177 147.349 660.868 147.467 660.569 147.616C660.281 147.755 660.014 147.899 659.769 148.048L659.257 147.152C659.513 146.981 659.822 146.811 660.185 146.64C660.558 146.459 660.958 146.315 661.385 146.208C661.812 146.091 662.254 146.032 662.713 146.032C663.428 146.032 664.014 146.165 664.473 146.432C664.942 146.699 665.289 147.072 665.513 147.552C665.748 148.021 665.865 148.581 665.865 149.232V154H664.793L664.681 152.944H664.633C664.206 153.285 663.726 153.579 663.193 153.824C662.66 154.069 662.116 154.192 661.561 154.192ZM661.913 153.136C662.361 153.136 662.804 153.035 663.241 152.832C663.678 152.629 664.116 152.347 664.553 151.984V149.936C663.444 150.032 662.569 150.165 661.929 150.336C661.3 150.507 660.852 150.725 660.585 150.992C660.329 151.248 660.201 151.547 660.201 151.888C660.201 152.176 660.281 152.416 660.441 152.608C660.601 152.789 660.809 152.923 661.065 153.008C661.332 153.093 661.614 153.136 661.913 153.136ZM668.147 154V146.224H669.203L669.315 147.248H669.347C669.549 146.885 669.784 146.592 670.051 146.368C670.317 146.144 670.675 146.032 671.123 146.032C671.507 146.032 671.821 146.144 672.067 146.368C672.312 146.592 672.488 146.928 672.595 147.376C672.819 146.96 673.064 146.635 673.331 146.4C673.608 146.155 673.971 146.032 674.419 146.032C674.963 146.032 675.384 146.24 675.683 146.656C675.992 147.061 676.147 147.653 676.147 148.432V154H674.835V148.528C674.835 147.621 674.557 147.168 674.003 147.168C673.736 147.168 673.512 147.269 673.331 147.472C673.16 147.664 672.968 147.963 672.755 148.368V154H671.539V148.528C671.539 148.08 671.475 147.744 671.347 147.52C671.229 147.285 671.027 147.168 670.739 147.168C670.472 147.168 670.237 147.269 670.035 147.472C669.843 147.664 669.651 147.963 669.459 148.368V154H668.147ZM682.093 154.192C681.314 154.192 680.605 154.032 679.965 153.712C679.335 153.392 678.834 152.928 678.461 152.32C678.087 151.701 677.901 150.96 677.901 150.096C677.901 149.253 678.087 148.528 678.461 147.92C678.834 147.312 679.319 146.848 679.917 146.528C680.525 146.197 681.175 146.032 681.869 146.032C682.615 146.032 683.25 146.187 683.773 146.496C684.306 146.795 684.711 147.216 684.989 147.76C685.277 148.304 685.421 148.944 685.421 149.68C685.421 149.829 685.415 149.973 685.405 150.112C685.394 150.251 685.378 150.373 685.357 150.48H678.781V149.456H684.573L684.237 149.824C684.237 148.907 684.023 148.219 683.597 147.76C683.181 147.301 682.615 147.072 681.901 147.072C681.421 147.072 680.973 147.189 680.557 147.424C680.151 147.659 679.826 148 679.581 148.448C679.335 148.896 679.213 149.445 679.213 150.096C679.213 150.768 679.346 151.328 679.613 151.776C679.879 152.224 680.242 152.565 680.701 152.8C681.159 153.024 681.677 153.136 682.253 153.136C682.722 153.136 683.143 153.072 683.517 152.944C683.901 152.805 684.269 152.624 684.621 152.4L685.101 153.264C684.717 153.52 684.274 153.739 683.773 153.92C683.282 154.101 682.722 154.192 682.093 154.192ZM688.118 153.232V151.968L692.934 148.72V148.656L688.118 145.408V144.144L694.086 148.192V149.184L688.118 153.232Z" fill="#5C5C8A"/>
<path d="M69.9505 225.232L63.9825 221.184V220.192L69.9505 216.144V217.408L65.1345 220.656V220.72L69.9505 223.968V225.232ZM73.8003 226V215.504H75.1123V224.864H80.3123V226H73.8003ZM86.05 226.192C85.3673 226.192 84.7327 226.032 84.146 225.712C83.57 225.392 83.1007 224.928 82.738 224.32C82.386 223.712 82.21 222.981 82.21 222.128C82.21 221.253 82.386 220.512 82.738 219.904C83.1007 219.296 83.57 218.832 84.146 218.512C84.7327 218.192 85.3673 218.032 86.05 218.032C86.7327 218.032 87.362 218.192 87.938 218.512C88.5247 218.832 88.994 219.296 89.346 219.904C89.7087 220.512 89.89 221.253 89.89 222.128C89.89 222.981 89.7087 223.712 89.346 224.32C88.994 224.928 88.5247 225.392 87.938 225.712C87.362 226.032 86.7327 226.192 86.05 226.192ZM86.05 225.104C86.5513 225.104 86.9887 224.981 87.362 224.736C87.7353 224.48 88.0233 224.128 88.226 223.68C88.4287 223.232 88.53 222.715 88.53 222.128C88.53 221.531 88.4287 221.008 88.226 220.56C88.0233 220.101 87.7353 219.749 87.362 219.504C86.9887 219.248 86.5513 219.12 86.05 219.12C85.5487 219.12 85.1113 219.248 84.738 219.504C84.3753 219.749 84.0873 220.101 83.874 220.56C83.6713 221.008 83.57 221.531 83.57 222.128C83.57 222.715 83.6713 223.232 83.874 223.68C84.0873 224.128 84.3753 224.48 84.738 224.736C85.1113 224.981 85.5487 225.104 86.05 225.104ZM96.3798 226.192C95.5691 226.192 94.8384 226.032 94.1878 225.712C93.5478 225.392 93.0411 224.928 92.6678 224.32C92.3051 223.712 92.1238 222.981 92.1238 222.128C92.1238 221.253 92.3211 220.512 92.7158 219.904C93.1104 219.296 93.6331 218.832 94.2838 218.512C94.9451 218.192 95.6704 218.032 96.4598 218.032C97.0998 218.032 97.6491 218.144 98.1078 218.368C98.5771 218.592 98.9718 218.859 99.2917 219.168L98.6358 220.016C98.3158 219.739 97.9851 219.52 97.6438 219.36C97.3024 219.2 96.9238 219.12 96.5078 219.12C95.9104 219.12 95.3824 219.248 94.9238 219.504C94.4651 219.749 94.1078 220.101 93.8518 220.56C93.6064 221.008 93.4838 221.531 93.4838 222.128C93.4838 222.715 93.6064 223.232 93.8518 223.68C94.0971 224.128 94.4438 224.48 94.8918 224.736C95.3504 224.981 95.8784 225.104 96.4758 225.104C96.9558 225.104 97.3931 225.008 97.7878 224.816C98.1931 224.624 98.5558 224.395 98.8758 224.128L99.4678 224.976C99.0411 225.36 98.5611 225.659 98.0278 225.872C97.5051 226.085 96.9558 226.192 96.3798 226.192ZM104.374 226.192C103.894 226.192 103.451 226.107 103.046 225.936C102.64 225.755 102.32 225.499 102.086 225.168C101.851 224.837 101.734 224.443 101.734 223.984C101.734 223.109 102.171 222.448 103.046 222C103.92 221.541 105.36 221.232 107.366 221.072C107.355 220.72 107.28 220.395 107.142 220.096C107.014 219.797 106.8 219.563 106.502 219.392C106.203 219.211 105.803 219.12 105.302 219.12C104.971 219.12 104.64 219.168 104.31 219.264C103.99 219.349 103.68 219.467 103.382 219.616C103.094 219.755 102.827 219.899 102.582 220.048L102.07 219.152C102.326 218.981 102.635 218.811 102.998 218.64C103.371 218.459 103.771 218.315 104.198 218.208C104.624 218.091 105.067 218.032 105.526 218.032C106.24 218.032 106.827 218.165 107.286 218.432C107.755 218.699 108.102 219.072 108.326 219.552C108.56 220.021 108.678 220.581 108.678 221.232V226H107.606L107.494 224.944H107.446C107.019 225.285 106.539 225.579 106.006 225.824C105.472 226.069 104.928 226.192 104.374 226.192ZM104.726 225.136C105.174 225.136 105.616 225.035 106.054 224.832C106.491 224.629 106.928 224.347 107.366 223.984V221.936C106.256 222.032 105.382 222.165 104.742 222.336C104.112 222.507 103.664 222.725 103.398 222.992C103.142 223.248 103.014 223.547 103.014 223.888C103.014 224.176 103.094 224.416 103.254 224.608C103.414 224.789 103.622 224.923 103.878 225.008C104.144 225.093 104.427 225.136 104.726 225.136ZM116.335 226.192C115.578 226.192 114.981 226.059 114.543 225.792C114.106 225.515 113.791 225.136 113.599 224.656C113.418 224.176 113.327 223.616 113.327 222.976V219.296H111.135V218.304L113.375 218.224L113.551 215.728H114.639V218.224H118.463V219.296H114.639V222.992C114.639 223.451 114.698 223.84 114.815 224.16C114.933 224.48 115.135 224.72 115.423 224.88C115.711 225.04 116.106 225.12 116.607 225.12C116.981 225.12 117.317 225.088 117.615 225.024C117.914 224.96 118.202 224.875 118.479 224.768L118.767 225.728C118.415 225.856 118.042 225.963 117.647 226.048C117.263 226.144 116.826 226.192 116.335 226.192ZM124.681 226V219.296H121.065V218.224H125.993V226H124.681ZM125.193 216.592C124.894 216.592 124.644 216.501 124.441 216.32C124.238 216.128 124.137 215.877 124.137 215.568C124.137 215.259 124.238 215.013 124.441 214.832C124.644 214.64 124.894 214.544 125.193 214.544C125.492 214.544 125.742 214.64 125.945 214.832C126.148 215.013 126.249 215.259 126.249 215.568C126.249 215.877 126.148 216.128 125.945 216.32C125.742 216.501 125.492 216.592 125.193 216.592ZM134.019 226.192C133.336 226.192 132.701 226.032 132.115 225.712C131.539 225.392 131.069 224.928 130.707 224.32C130.355 223.712 130.179 222.981 130.179 222.128C130.179 221.253 130.355 220.512 130.707 219.904C131.069 219.296 131.539 218.832 132.115 218.512C132.701 218.192 133.336 218.032 134.019 218.032C134.701 218.032 135.331 218.192 135.907 218.512C136.493 218.832 136.963 219.296 137.315 219.904C137.677 220.512 137.859 221.253 137.859 222.128C137.859 222.981 137.677 223.712 137.315 224.32C136.963 224.928 136.493 225.392 135.907 225.712C135.331 226.032 134.701 226.192 134.019 226.192ZM134.019 225.104C134.52 225.104 134.957 224.981 135.331 224.736C135.704 224.48 135.992 224.128 136.195 223.68C136.397 223.232 136.499 222.715 136.499 222.128C136.499 221.531 136.397 221.008 136.195 220.56C135.992 220.101 135.704 219.749 135.331 219.504C134.957 219.248 134.52 219.12 134.019 219.12C133.517 219.12 133.08 219.248 132.707 219.504C132.344 219.749 132.056 220.101 131.843 220.56C131.64 221.008 131.539 221.531 131.539 222.128C131.539 222.715 131.64 223.232 131.843 223.68C132.056 224.128 132.344 224.48 132.707 224.736C133.08 224.981 133.517 225.104 134.019 225.104ZM140.301 226V218.224H141.389L141.501 219.552H141.565C141.97 219.115 142.407 218.752 142.877 218.464C143.346 218.176 143.885 218.032 144.493 218.032C145.41 218.032 146.087 218.299 146.525 218.832C146.962 219.365 147.181 220.144 147.181 221.168V226H145.869V221.344C145.869 220.608 145.73 220.064 145.453 219.712C145.175 219.349 144.717 219.168 144.077 219.168C143.618 219.168 143.207 219.285 142.845 219.52C142.482 219.755 142.071 220.107 141.613 220.576V226H140.301ZM150.118 225.232V223.968L154.934 220.72V220.656L150.118 217.408V216.144L156.086 220.192V221.184L150.118 225.232Z" fill="#5C5C8A"/>
<path d="M200.112 237.872H220.656V254H178.8V186.032H200.112V237.872ZM260.483 254.672C254.083 254.672 248.195 253.168 242.819 250.16C237.507 247.152 233.283 242.992 230.147 237.68C227.011 232.368 225.443 226.384 225.443 219.728C225.443 213.072 227.011 207.088 230.147 201.776C233.283 196.464 237.507 192.336 242.819 189.392C248.195 186.384 254.083 184.88 260.483 184.88C266.883 184.88 272.739 186.384 278.051 189.392C283.363 192.336 287.555 196.464 290.627 201.776C293.763 207.088 295.331 213.072 295.331 219.728C295.331 226.384 293.763 232.368 290.627 237.68C287.555 242.992 283.331 247.152 277.955 250.16C272.643 253.168 266.819 254.672 260.483 254.672ZM260.483 234.8C264.707 234.8 267.971 233.456 270.275 230.768C272.579 228.016 273.731 224.336 273.731 219.728C273.731 215.056 272.579 211.376 270.275 208.688C267.971 205.936 264.707 204.56 260.483 204.56C256.195 204.56 252.899 205.936 250.595 208.688C248.291 211.376 247.139 215.056 247.139 219.728C247.139 224.336 248.291 228.016 250.595 230.768C252.899 233.456 256.195 234.8 260.483 234.8ZM368.203 254H346.891L324.331 219.824V254H303.019V186.032H324.331L346.891 220.784V186.032H368.203V254ZM406.151 186.032C413.255 186.032 419.463 187.472 424.775 190.352C430.151 193.232 434.279 197.232 437.159 202.352C440.039 207.472 441.479 213.296 441.479 219.824C441.479 226.288 440.039 232.112 437.159 237.296C434.279 242.48 430.151 246.576 424.775 249.584C419.463 252.528 413.255 254 406.151 254H377.831V186.032H406.151ZM404.231 234.992C409.031 234.992 412.839 233.68 415.655 231.056C418.471 228.432 419.879 224.688 419.879 219.824C419.879 214.96 418.471 211.216 415.655 208.592C412.839 205.968 409.031 204.656 404.231 204.656H399.143V234.992H404.231ZM482.295 254.672C475.895 254.672 470.007 253.168 464.631 250.16C459.319 247.152 455.095 242.992 451.959 237.68C448.823 232.368 447.255 226.384 447.255 219.728C447.255 213.072 448.823 207.088 451.959 201.776C455.095 196.464 459.319 192.336 464.631 189.392C470.007 186.384 475.895 184.88 482.295 184.88C488.695 184.88 494.551 186.384 499.863 189.392C505.175 192.336 509.367 196.464 512.439 201.776C515.575 207.088 517.143 213.072 517.143 219.728C517.143 226.384 515.575 232.368 512.439 237.68C509.367 242.992 505.143 247.152 499.767 250.16C494.455 253.168 488.631 254.672 482.295 254.672ZM482.295 234.8C486.519 234.8 489.783 233.456 492.087 230.768C494.391 228.016 495.543 224.336 495.543 219.728C495.543 215.056 494.391 211.376 492.087 208.688C489.783 205.936 486.519 204.56 482.295 204.56C478.007 204.56 474.711 205.936 472.407 208.688C470.103 211.376 468.951 215.056 468.951 219.728C468.951 224.336 470.103 228.016 472.407 230.768C474.711 233.456 478.007 234.8 482.295 234.8ZM590.015 254H568.703L546.143 219.824V254H524.831V186.032H546.143L568.703 220.784V186.032H590.015V254Z" fill="#97E2CF"/>
<path d="M619.357 225.232L613.389 221.184V220.192L619.357 216.144V217.408L614.541 220.656V220.72L619.357 223.968V225.232ZM622.647 228.56L627.895 214.64H629.079L623.831 228.56H622.647ZM632.8 226V215.504H634.112V224.864H639.312V226H632.8ZM645.05 226.192C644.367 226.192 643.733 226.032 643.146 225.712C642.57 225.392 642.101 224.928 641.738 224.32C641.386 223.712 641.21 222.981 641.21 222.128C641.21 221.253 641.386 220.512 641.738 219.904C642.101 219.296 642.57 218.832 643.146 218.512C643.733 218.192 644.367 218.032 645.05 218.032C645.733 218.032 646.362 218.192 646.938 218.512C647.525 218.832 647.994 219.296 648.346 219.904C648.709 220.512 648.89 221.253 648.89 222.128C648.89 222.981 648.709 223.712 648.346 224.32C647.994 224.928 647.525 225.392 646.938 225.712C646.362 226.032 645.733 226.192 645.05 226.192ZM645.05 225.104C645.551 225.104 645.989 224.981 646.362 224.736C646.735 224.48 647.023 224.128 647.226 223.68C647.429 223.232 647.53 222.715 647.53 222.128C647.53 221.531 647.429 221.008 647.226 220.56C647.023 220.101 646.735 219.749 646.362 219.504C645.989 219.248 645.551 219.12 645.05 219.12C644.549 219.12 644.111 219.248 643.738 219.504C643.375 219.749 643.087 220.101 642.874 220.56C642.671 221.008 642.57 221.531 642.57 222.128C642.57 222.715 642.671 223.232 642.874 223.68C643.087 224.128 643.375 224.48 643.738 224.736C644.111 224.981 644.549 225.104 645.05 225.104ZM655.38 226.192C654.569 226.192 653.838 226.032 653.188 225.712C652.548 225.392 652.041 224.928 651.668 224.32C651.305 223.712 651.124 222.981 651.124 222.128C651.124 221.253 651.321 220.512 651.716 219.904C652.11 219.296 652.633 218.832 653.284 218.512C653.945 218.192 654.67 218.032 655.46 218.032C656.1 218.032 656.649 218.144 657.108 218.368C657.577 218.592 657.972 218.859 658.292 219.168L657.636 220.016C657.316 219.739 656.985 219.52 656.644 219.36C656.302 219.2 655.924 219.12 655.508 219.12C654.91 219.12 654.382 219.248 653.924 219.504C653.465 219.749 653.108 220.101 652.852 220.56C652.606 221.008 652.484 221.531 652.484 222.128C652.484 222.715 652.606 223.232 652.852 223.68C653.097 224.128 653.444 224.48 653.892 224.736C654.35 224.981 654.878 225.104 655.476 225.104C655.956 225.104 656.393 225.008 656.788 224.816C657.193 224.624 657.556 224.395 657.876 224.128L658.468 224.976C658.041 225.36 657.561 225.659 657.028 225.872C656.505 226.085 655.956 226.192 655.38 226.192ZM663.374 226.192C662.894 226.192 662.451 226.107 662.046 225.936C661.64 225.755 661.32 225.499 661.086 225.168C660.851 224.837 660.734 224.443 660.734 223.984C660.734 223.109 661.171 222.448 662.046 222C662.92 221.541 664.36 221.232 666.366 221.072C666.355 220.72 666.28 220.395 666.142 220.096C666.014 219.797 665.8 219.563 665.502 219.392C665.203 219.211 664.803 219.12 664.302 219.12C663.971 219.12 663.64 219.168 663.31 219.264C662.99 219.349 662.68 219.467 662.382 219.616C662.094 219.755 661.827 219.899 661.582 220.048L661.07 219.152C661.326 218.981 661.635 218.811 661.998 218.64C662.371 218.459 662.771 218.315 663.198 218.208C663.624 218.091 664.067 218.032 664.526 218.032C665.24 218.032 665.827 218.165 666.286 218.432C666.755 218.699 667.102 219.072 667.326 219.552C667.56 220.021 667.678 220.581 667.678 221.232V226H666.606L666.494 224.944H666.446C666.019 225.285 665.539 225.579 665.006 225.824C664.472 226.069 663.928 226.192 663.374 226.192ZM663.726 225.136C664.174 225.136 664.616 225.035 665.054 224.832C665.491 224.629 665.928 224.347 666.366 223.984V221.936C665.256 222.032 664.382 222.165 663.742 222.336C663.112 222.507 662.664 222.725 662.398 222.992C662.142 223.248 662.014 223.547 662.014 223.888C662.014 224.176 662.094 224.416 662.254 224.608C662.414 224.789 662.622 224.923 662.878 225.008C663.144 225.093 663.427 225.136 663.726 225.136ZM675.335 226.192C674.578 226.192 673.981 226.059 673.543 225.792C673.106 225.515 672.791 225.136 672.599 224.656C672.418 224.176 672.327 223.616 672.327 222.976V219.296H670.135V218.304L672.375 218.224L672.551 215.728H673.639V218.224H677.463V219.296H673.639V222.992C673.639 223.451 673.698 223.84 673.815 224.16C673.933 224.48 674.135 224.72 674.423 224.88C674.711 225.04 675.106 225.12 675.607 225.12C675.981 225.12 676.317 225.088 676.615 225.024C676.914 224.96 677.202 224.875 677.479 224.768L677.767 225.728C677.415 225.856 677.042 225.963 676.647 226.048C676.263 226.144 675.826 226.192 675.335 226.192ZM683.681 226V219.296H680.065V218.224H684.993V226H683.681ZM684.193 216.592C683.894 216.592 683.644 216.501 683.441 216.32C683.238 216.128 683.137 215.877 683.137 215.568C683.137 215.259 683.238 215.013 683.441 214.832C683.644 214.64 683.894 214.544 684.193 214.544C684.492 214.544 684.742 214.64 684.945 214.832C685.148 215.013 685.249 215.259 685.249 215.568C685.249 215.877 685.148 216.128 684.945 216.32C684.742 216.501 684.492 216.592 684.193 216.592ZM693.019 226.192C692.336 226.192 691.701 226.032 691.115 225.712C690.539 225.392 690.069 224.928 689.707 224.32C689.355 223.712 689.179 222.981 689.179 222.128C689.179 221.253 689.355 220.512 689.707 219.904C690.069 219.296 690.539 218.832 691.115 218.512C691.701 218.192 692.336 218.032 693.019 218.032C693.701 218.032 694.331 218.192 694.907 218.512C695.493 218.832 695.963 219.296 696.315 219.904C696.677 220.512 696.859 221.253 696.859 222.128C696.859 222.981 696.677 223.712 696.315 224.32C695.963 224.928 695.493 225.392 694.907 225.712C694.331 226.032 693.701 226.192 693.019 226.192ZM693.019 225.104C693.52 225.104 693.957 224.981 694.331 224.736C694.704 224.48 694.992 224.128 695.195 223.68C695.397 223.232 695.499 222.715 695.499 222.128C695.499 221.531 695.397 221.008 695.195 220.56C694.992 220.101 694.704 219.749 694.331 219.504C693.957 219.248 693.52 219.12 693.019 219.12C692.517 219.12 692.08 219.248 691.707 219.504C691.344 219.749 691.056 220.101 690.843 220.56C690.64 221.008 690.539 221.531 690.539 222.128C690.539 222.715 690.64 223.232 690.843 223.68C691.056 224.128 691.344 224.48 691.707 224.736C692.08 224.981 692.517 225.104 693.019 225.104ZM699.301 226V218.224H700.389L700.501 219.552H700.565C700.97 219.115 701.407 218.752 701.877 218.464C702.346 218.176 702.885 218.032 703.493 218.032C704.41 218.032 705.087 218.299 705.525 218.832C705.962 219.365 706.181 220.144 706.181 221.168V226H704.869V221.344C704.869 220.608 704.73 220.064 704.453 219.712C704.175 219.349 703.717 219.168 703.077 219.168C702.618 219.168 702.207 219.285 701.845 219.52C701.482 219.755 701.071 220.107 700.613 220.576V226H699.301ZM709.118 225.232V223.968L713.934 220.72V220.656L709.118 217.408V216.144L715.086 220.192V221.184L709.118 225.232Z" fill="#5C5C8A"/>
<path d="M108.326 309.232L102.358 305.184V304.192L108.326 300.144V301.408L103.51 304.656V304.72L108.326 307.968V309.232ZM114.159 310V300.624H110.703V299.504H118.959V300.624H115.503V310H114.159ZM124.905 310.192C124.126 310.192 123.417 310.032 122.777 309.712C122.148 309.392 121.646 308.928 121.273 308.32C120.9 307.701 120.713 306.96 120.713 306.096C120.713 305.253 120.9 304.528 121.273 303.92C121.646 303.312 122.132 302.848 122.729 302.528C123.337 302.197 123.988 302.032 124.681 302.032C125.428 302.032 126.062 302.187 126.585 302.496C127.118 302.795 127.524 303.216 127.801 303.76C128.089 304.304 128.233 304.944 128.233 305.68C128.233 305.829 128.228 305.973 128.217 306.112C128.206 306.251 128.19 306.373 128.169 306.48H121.593V305.456H127.385L127.049 305.824C127.049 304.907 126.836 304.219 126.409 303.76C125.993 303.301 125.428 303.072 124.713 303.072C124.233 303.072 123.785 303.189 123.369 303.424C122.964 303.659 122.638 304 122.393 304.448C122.148 304.896 122.025 305.445 122.025 306.096C122.025 306.768 122.158 307.328 122.425 307.776C122.692 308.224 123.054 308.565 123.513 308.8C123.972 309.024 124.489 309.136 125.065 309.136C125.534 309.136 125.956 309.072 126.329 308.944C126.713 308.805 127.081 308.624 127.433 308.4L127.913 309.264C127.529 309.52 127.086 309.739 126.585 309.92C126.094 310.101 125.534 310.192 124.905 310.192ZM130.243 310L133.203 305.968L130.467 302.224H131.923L133.155 303.936C133.293 304.139 133.443 304.352 133.603 304.576C133.763 304.8 133.917 305.024 134.067 305.248H134.131C134.269 305.024 134.413 304.8 134.563 304.576C134.723 304.341 134.872 304.117 135.011 303.904L136.179 302.224H137.571L134.803 306.08L137.779 310H136.339L134.979 308.208C134.819 307.984 134.648 307.749 134.467 307.504C134.296 307.259 134.125 307.024 133.955 306.8H133.891C133.731 307.024 133.571 307.253 133.411 307.488C133.251 307.723 133.091 307.963 132.931 308.208L131.651 310H130.243ZM145.117 310.192C144.359 310.192 143.762 310.059 143.325 309.792C142.887 309.515 142.573 309.136 142.381 308.656C142.199 308.176 142.109 307.616 142.109 306.976V303.296H139.917V302.304L142.157 302.224L142.333 299.728H143.421V302.224H147.245V303.296H143.421V306.992C143.421 307.451 143.479 307.84 143.597 308.16C143.714 308.48 143.917 308.72 144.205 308.88C144.493 309.04 144.887 309.12 145.389 309.12C145.762 309.12 146.098 309.088 146.397 309.024C146.695 308.96 146.983 308.875 147.26 308.768L147.549 309.728C147.197 309.856 146.823 309.963 146.429 310.048C146.045 310.144 145.607 310.192 145.117 310.192ZM150.118 309.232V307.968L154.934 304.72V304.656L150.118 301.408V300.144L156.086 304.192V305.184L150.118 309.232Z" fill="#5C5C8A"/>
<path d="M224.304 303.152C228.4 304.112 231.568 306.096 233.808 309.104C236.112 312.048 237.264 315.472 237.264 319.376C237.264 325.328 235.28 329.936 231.312 333.2C227.408 336.4 221.776 338 214.416 338H178.8V270.032H213.456C220.368 270.032 225.808 271.536 229.776 274.544C233.744 277.552 235.728 281.936 235.728 287.696C235.728 291.664 234.672 295.024 232.56 297.776C230.512 300.464 227.76 302.256 224.304 303.152ZM200.112 296.528H208.368C210.288 296.528 211.696 296.144 212.592 295.376C213.552 294.608 214.032 293.424 214.032 291.824C214.032 290.16 213.552 288.944 212.592 288.176C211.696 287.344 210.288 286.928 208.368 286.928H200.112V296.528ZM209.808 320.912C211.728 320.912 213.136 320.56 214.032 319.856C214.992 319.088 215.472 317.872 215.472 316.208C215.472 312.944 213.584 311.312 209.808 311.312H200.112V320.912H209.808ZM288.009 327.728H265.353L261.993 338H239.625L264.489 270.032H289.065L313.833 338H291.369L288.009 327.728ZM282.825 311.696L276.681 292.784L270.537 311.696H282.825ZM345.267 338.672C337.139 338.672 330.419 336.784 325.107 333.008C319.859 329.168 317.011 323.568 316.563 316.208H339.219C339.539 320.112 341.267 322.064 344.403 322.064C345.555 322.064 346.515 321.808 347.283 321.296C348.115 320.72 348.531 319.856 348.531 318.704C348.531 317.104 347.667 315.824 345.939 314.864C344.211 313.84 341.523 312.688 337.875 311.408C333.523 309.872 329.907 308.368 327.027 306.896C324.211 305.424 321.779 303.28 319.731 300.464C317.683 297.648 316.691 294.032 316.755 289.616C316.755 285.2 317.875 281.456 320.115 278.384C322.419 275.248 325.523 272.88 329.427 271.28C333.395 269.68 337.843 268.88 342.771 268.88C351.091 268.88 357.683 270.8 362.547 274.64C367.475 278.48 370.067 283.888 370.323 290.864H347.379C347.315 288.944 346.835 287.568 345.939 286.736C345.043 285.904 343.955 285.488 342.675 285.488C341.779 285.488 341.043 285.808 340.467 286.448C339.891 287.024 339.603 287.856 339.603 288.944C339.603 290.48 340.435 291.76 342.099 292.784C343.827 293.744 346.547 294.928 350.259 296.336C354.547 297.936 358.067 299.472 360.819 300.944C363.635 302.416 366.067 304.464 368.115 307.088C370.163 309.712 371.187 313.008 371.187 316.976C371.187 321.136 370.163 324.88 368.115 328.208C366.067 331.472 363.091 334.032 359.187 335.888C355.283 337.744 350.643 338.672 345.267 338.672ZM399.987 287.024V295.376H421.107V311.408H399.987V321.008H423.987V338H378.675V270.032H423.987V287.024H399.987ZM460.339 270.032C467.443 270.032 473.651 271.472 478.963 274.352C484.339 277.232 488.467 281.232 491.347 286.352C494.227 291.472 495.667 297.296 495.667 303.824C495.667 310.288 494.227 316.112 491.347 321.296C488.467 326.48 484.339 330.576 478.963 333.584C473.651 336.528 467.443 338 460.339 338H432.019V270.032H460.339ZM458.419 318.992C463.219 318.992 467.027 317.68 469.843 315.056C472.659 312.432 474.067 308.688 474.067 303.824C474.067 298.96 472.659 295.216 469.843 292.592C467.027 289.968 463.219 288.656 458.419 288.656H453.331V318.992H458.419Z" fill="#97E2CF"/>
<path d="M523.732 309.232L517.764 305.184V304.192L523.732 300.144V301.408L518.916 304.656V304.72L523.732 307.968V309.232ZM527.022 312.56L532.27 298.64H533.454L528.206 312.56H527.022ZM539.159 310V300.624H535.703V299.504H543.959V300.624H540.503V310H539.159ZM549.905 310.192C549.126 310.192 548.417 310.032 547.777 309.712C547.148 309.392 546.646 308.928 546.273 308.32C545.9 307.701 545.713 306.96 545.713 306.096C545.713 305.253 545.9 304.528 546.273 303.92C546.646 303.312 547.132 302.848 547.729 302.528C548.337 302.197 548.988 302.032 549.681 302.032C550.428 302.032 551.062 302.187 551.585 302.496C552.118 302.795 552.524 303.216 552.801 303.76C553.089 304.304 553.233 304.944 553.233 305.68C553.233 305.829 553.228 305.973 553.217 306.112C553.206 306.251 553.19 306.373 553.169 306.48H546.593V305.456H552.385L552.049 305.824C552.049 304.907 551.836 304.219 551.409 303.76C550.993 303.301 550.428 303.072 549.713 303.072C549.233 303.072 548.785 303.189 548.369 303.424C547.964 303.659 547.638 304 547.393 304.448C547.148 304.896 547.025 305.445 547.025 306.096C547.025 306.768 547.158 307.328 547.425 307.776C547.692 308.224 548.054 308.565 548.513 308.8C548.972 309.024 549.489 309.136 550.065 309.136C550.534 309.136 550.956 309.072 551.329 308.944C551.713 308.805 552.081 308.624 552.433 308.4L552.913 309.264C552.529 309.52 552.086 309.739 551.585 309.92C551.094 310.101 550.534 310.192 549.905 310.192ZM555.243 310L558.203 305.968L555.467 302.224H556.923L558.155 303.936C558.293 304.139 558.443 304.352 558.603 304.576C558.763 304.8 558.917 305.024 559.067 305.248H559.131C559.269 305.024 559.413 304.8 559.563 304.576C559.723 304.341 559.872 304.117 560.011 303.904L561.179 302.224H562.571L559.803 306.08L562.779 310H561.339L559.979 308.208C559.819 307.984 559.648 307.749 559.467 307.504C559.296 307.259 559.125 307.024 558.955 306.8H558.891C558.731 307.024 558.571 307.253 558.411 307.488C558.251 307.723 558.091 307.963 557.931 308.208L556.651 310H555.243ZM570.117 310.192C569.359 310.192 568.762 310.059 568.325 309.792C567.887 309.515 567.573 309.136 567.381 308.656C567.199 308.176 567.109 307.616 567.109 306.976V303.296H564.917V302.304L567.157 302.224L567.333 299.728H568.421V302.224H572.245V303.296H568.421V306.992C568.421 307.451 568.479 307.84 568.597 308.16C568.714 308.48 568.917 308.72 569.205 308.88C569.493 309.04 569.887 309.12 570.389 309.12C570.762 309.12 571.098 309.088 571.397 309.024C571.695 308.96 571.983 308.875 572.26 308.768L572.549 309.728C572.197 309.856 571.823 309.963 571.429 310.048C571.045 310.144 570.607 310.192 570.117 310.192ZM575.118 309.232V307.968L579.934 304.72V304.656L575.118 301.408V300.144L581.086 304.192V305.184L575.118 309.232Z" fill="#5C5C8A"/>
<path d="M98.7318 394.232L92.7638 390.184V389.192L98.7318 385.144V386.408L93.9158 389.656V389.72L98.7318 392.968V394.232ZM104.566 395V385.624H101.11V384.504H109.366V385.624H105.91V395H104.566ZM115.087 395V388.296H111.471V387.224H116.399V395H115.087ZM115.599 385.592C115.301 385.592 115.05 385.501 114.847 385.32C114.645 385.128 114.543 384.877 114.543 384.568C114.543 384.259 114.645 384.013 114.847 383.832C115.05 383.64 115.301 383.544 115.599 383.544C115.898 383.544 116.149 383.64 116.351 383.832C116.554 384.013 116.655 384.259 116.655 384.568C116.655 384.877 116.554 385.128 116.351 385.32C116.149 385.501 115.898 385.592 115.599 385.592ZM125.929 395.192C125.172 395.192 124.574 395.059 124.137 394.792C123.7 394.515 123.385 394.136 123.193 393.656C123.012 393.176 122.921 392.616 122.921 391.976V388.296H120.729V387.304L122.969 387.224L123.145 384.728H124.233V387.224H128.057V388.296H124.233V391.992C124.233 392.451 124.292 392.84 124.409 393.16C124.526 393.48 124.729 393.72 125.017 393.88C125.305 394.04 125.7 394.12 126.201 394.12C126.574 394.12 126.91 394.088 127.209 394.024C127.508 393.96 127.796 393.875 128.073 393.768L128.361 394.728C128.009 394.856 127.636 394.963 127.241 395.048C126.857 395.144 126.42 395.192 125.929 395.192ZM135.715 395.192C134.893 395.192 134.264 394.957 133.827 394.488C133.389 394.008 133.171 393.309 133.171 392.392V384.68H130.515V383.608H134.483V392.488C134.483 393.053 134.621 393.464 134.899 393.72C135.176 393.976 135.544 394.104 136.003 394.104C136.227 394.104 136.456 394.077 136.691 394.024C136.925 393.96 137.187 393.864 137.475 393.736L137.811 394.728C137.459 394.856 137.128 394.963 136.819 395.048C136.509 395.144 136.141 395.192 135.715 395.192ZM144.093 395.192C143.314 395.192 142.605 395.032 141.965 394.712C141.335 394.392 140.834 393.928 140.461 393.32C140.087 392.701 139.901 391.96 139.901 391.096C139.901 390.253 140.087 389.528 140.461 388.92C140.834 388.312 141.319 387.848 141.917 387.528C142.525 387.197 143.175 387.032 143.869 387.032C144.615 387.032 145.25 387.187 145.773 387.496C146.306 387.795 146.711 388.216 146.989 388.76C147.277 389.304 147.421 389.944 147.421 390.68C147.421 390.829 147.415 390.973 147.405 391.112C147.394 391.251 147.378 391.373 147.357 391.48H140.781V390.456H146.573L146.237 390.824C146.237 389.907 146.023 389.219 145.597 388.76C145.181 388.301 144.615 388.072 143.901 388.072C143.421 388.072 142.973 388.189 142.557 388.424C142.151 388.659 141.826 389 141.581 389.448C141.335 389.896 141.213 390.445 141.213 391.096C141.213 391.768 141.346 392.328 141.613 392.776C141.879 393.224 142.242 393.565 142.701 393.8C143.159 394.024 143.677 394.136 144.253 394.136C144.722 394.136 145.143 394.072 145.517 393.944C145.901 393.805 146.269 393.624 146.621 393.4L147.101 394.264C146.717 394.52 146.274 394.739 145.773 394.92C145.282 395.101 144.722 395.192 144.093 395.192ZM150.118 394.232V392.968L154.934 389.72V389.656L150.118 386.408V385.144L156.086 389.192V390.184L150.118 394.232Z" fill="#5C5C8A"/>
<path d="M207.12 355.032C214.224 355.032 220.432 356.472 225.744 359.352C231.12 362.232 235.248 366.232 238.128 371.352C241.008 376.472 242.448 382.296 242.448 388.824C242.448 395.288 241.008 401.112 238.128 406.296C235.248 411.48 231.12 415.576 225.744 418.584C220.432 421.528 214.224 423 207.12 423H178.8V355.032H207.12ZM205.2 403.992C210 403.992 213.808 402.68 216.624 400.056C219.44 397.432 220.848 393.688 220.848 388.824C220.848 383.96 219.44 380.216 216.624 377.592C213.808 374.968 210 373.656 205.2 373.656H200.112V403.992H205.2ZM271.456 372.024V380.376H292.576V396.408H271.456V406.008H295.456V423H250.144V355.032H295.456V372.024H271.456ZM330.08 423.672C321.952 423.672 315.232 421.784 309.92 418.008C304.672 414.168 301.824 408.568 301.376 401.208H324.031C324.352 405.112 326.08 407.064 329.216 407.064C330.368 407.064 331.328 406.808 332.096 406.296C332.928 405.72 333.344 404.856 333.344 403.704C333.344 402.104 332.48 400.824 330.752 399.864C329.024 398.84 326.336 397.688 322.688 396.408C318.336 394.872 314.72 393.368 311.84 391.896C309.024 390.424 306.592 388.28 304.544 385.464C302.496 382.648 301.504 379.032 301.568 374.616C301.568 370.2 302.688 366.456 304.928 363.384C307.232 360.248 310.336 357.88 314.24 356.28C318.208 354.68 322.656 353.88 327.584 353.88C335.904 353.88 342.496 355.8 347.36 359.64C352.288 363.48 354.88 368.888 355.135 375.864H332.192C332.128 373.944 331.648 372.568 330.752 371.736C329.856 370.904 328.768 370.488 327.488 370.488C326.592 370.488 325.856 370.808 325.28 371.448C324.704 372.024 324.416 372.856 324.416 373.944C324.416 375.48 325.248 376.76 326.911 377.784C328.64 378.744 331.36 379.928 335.072 381.336C339.36 382.936 342.88 384.472 345.632 385.944C348.448 387.416 350.88 389.464 352.927 392.088C354.976 394.712 356 398.008 356 401.976C356 406.136 354.976 409.88 352.927 413.208C350.88 416.472 347.904 419.032 344 420.888C340.096 422.744 335.456 423.672 330.08 423.672ZM384.8 355.032V423H363.488V355.032H384.8ZM436.089 378.264C435.257 376.92 434.073 375.896 432.537 375.192C431.001 374.424 429.145 374.04 426.969 374.04C422.873 374.04 419.705 375.384 417.465 378.072C415.225 380.696 414.105 384.312 414.105 388.92C414.105 394.232 415.353 398.2 417.849 400.824C420.345 403.448 424.185 404.76 429.369 404.76C434.297 404.76 438.265 402.776 441.273 398.808H424.281V383.736H458.937V405.048C455.993 410.104 451.929 414.456 446.745 418.104C441.561 421.688 435.001 423.48 427.065 423.48C420.025 423.48 413.881 422.04 408.633 419.16C403.449 416.216 399.449 412.12 396.633 406.872C393.881 401.624 392.505 395.64 392.505 388.92C392.505 382.2 393.881 376.216 396.633 370.968C399.449 365.72 403.449 361.656 408.633 358.776C413.817 355.832 419.897 354.36 426.873 354.36C435.769 354.36 443.001 356.504 448.569 360.792C454.201 365.08 457.529 370.904 458.553 378.264H436.089ZM531.797 423H510.485L487.925 388.824V423H466.613V355.032H487.925L510.485 389.784V355.032H531.797V423ZM562.737 372.024V380.376H583.857V396.408H562.737V406.008H586.737V423H541.425V355.032H586.737V372.024H562.737ZM628.945 423L616.177 398.616H616.081V423H594.769V355.032H626.449C631.953 355.032 636.657 356.024 640.561 358.008C644.465 359.928 647.377 362.584 649.297 365.976C651.281 369.304 652.273 373.08 652.273 377.304C652.273 381.848 650.993 385.88 648.433 389.4C645.937 392.92 642.321 395.448 637.585 396.984L652.369 423H628.945ZM616.081 384.408H624.529C626.577 384.408 628.113 383.96 629.137 383.064C630.161 382.104 630.673 380.632 630.673 378.648C630.673 376.856 630.129 375.448 629.041 374.424C628.017 373.4 626.513 372.888 624.529 372.888H616.081V384.408Z" fill="#97E2CF"/>
<path d="M679.138 394.232L673.17 390.184V389.192L679.138 385.144V386.408L674.322 389.656V389.72L679.138 392.968V394.232ZM682.428 397.56L687.676 383.64H688.86L683.612 397.56H682.428ZM694.566 395V385.624H691.11V384.504H699.366V385.624H695.91V395H694.566ZM705.087 395V388.296H701.471V387.224H706.399V395H705.087ZM705.599 385.592C705.301 385.592 705.05 385.501 704.847 385.32C704.645 385.128 704.543 384.877 704.543 384.568C704.543 384.259 704.645 384.013 704.847 383.832C705.05 383.64 705.301 383.544 705.599 383.544C705.898 383.544 706.149 383.64 706.351 383.832C706.554 384.013 706.655 384.259 706.655 384.568C706.655 384.877 706.554 385.128 706.351 385.32C706.149 385.501 705.898 385.592 705.599 385.592ZM715.929 395.192C715.172 395.192 714.574 395.059 714.137 394.792C713.7 394.515 713.385 394.136 713.193 393.656C713.012 393.176 712.921 392.616 712.921 391.976V388.296H710.729V387.304L712.969 387.224L713.145 384.728H714.233V387.224H718.057V388.296H714.233V391.992C714.233 392.451 714.292 392.84 714.409 393.16C714.526 393.48 714.729 393.72 715.017 393.88C715.305 394.04 715.7 394.12 716.201 394.12C716.574 394.12 716.91 394.088 717.209 394.024C717.508 393.96 717.796 393.875 718.073 393.768L718.361 394.728C718.009 394.856 717.636 394.963 717.241 395.048C716.857 395.144 716.42 395.192 715.929 395.192ZM725.715 395.192C724.893 395.192 724.264 394.957 723.827 394.488C723.389 394.008 723.171 393.309 723.171 392.392V384.68H720.515V383.608H724.483V392.488C724.483 393.053 724.621 393.464 724.899 393.72C725.176 393.976 725.544 394.104 726.003 394.104C726.227 394.104 726.456 394.077 726.691 394.024C726.925 393.96 727.187 393.864 727.475 393.736L727.811 394.728C727.459 394.856 727.128 394.963 726.819 395.048C726.509 395.144 726.141 395.192 725.715 395.192ZM734.093 395.192C733.314 395.192 732.605 395.032 731.965 394.712C731.335 394.392 730.834 393.928 730.461 393.32C730.087 392.701 729.901 391.96 729.901 391.096C729.901 390.253 730.087 389.528 730.461 388.92C730.834 388.312 731.319 387.848 731.917 387.528C732.525 387.197 733.175 387.032 733.869 387.032C734.615 387.032 735.25 387.187 735.773 387.496C736.306 387.795 736.711 388.216 736.989 388.76C737.277 389.304 737.421 389.944 737.421 390.68C737.421 390.829 737.415 390.973 737.405 391.112C737.394 391.251 737.378 391.373 737.357 391.48H730.781V390.456H736.573L736.237 390.824C736.237 389.907 736.023 389.219 735.597 388.76C735.181 388.301 734.615 388.072 733.901 388.072C733.421 388.072 732.973 388.189 732.557 388.424C732.151 388.659 731.826 389 731.581 389.448C731.335 389.896 731.213 390.445 731.213 391.096C731.213 391.768 731.346 392.328 731.613 392.776C731.879 393.224 732.242 393.565 732.701 393.8C733.159 394.024 733.677 394.136 734.253 394.136C734.722 394.136 735.143 394.072 735.517 393.944C735.901 393.805 736.269 393.624 736.621 393.4L737.101 394.264C736.717 394.52 736.274 394.739 735.773 394.92C735.282 395.101 734.722 395.192 734.093 395.192ZM740.118 394.232V392.968L744.934 389.72V389.656L740.118 386.408V385.144L746.086 389.192V390.184L740.118 394.232Z" fill="#5C5C8A"/>
</svg>
