<svg width="25" height="24" viewBox="0 0 25 24" fill="none" xmlns="http://www.w3.org/2000/svg">
<mask id="mask0_540_44" style="mask-type:alpha" maskUnits="userSpaceOnUse" x="0" y="0" width="25" height="24">
<rect x="0.75" width="24" height="24" fill="#D9D9D9"/>
</mask>
<g mask="url(#mask0_540_44)">
<path d="M12.75 22C11.3833 22 10.0917 21.7373 8.875 21.212C7.65833 20.6873 6.596 19.9707 5.688 19.062C4.77933 18.154 4.06267 17.0917 3.538 15.875C3.01267 14.6583 2.75 13.3667 2.75 12C2.75 10.6167 3.02067 9.31667 3.562 8.1C4.104 6.88333 4.83767 5.825 5.763 4.925C6.68767 4.025 7.76667 3.31233 9 2.787C10.2333 2.26233 11.55 2 12.95 2C14.2833 2 15.5417 2.22933 16.725 2.688C17.9083 3.146 18.9457 3.77933 19.837 4.588C20.729 5.396 21.4373 6.35433 21.962 7.463C22.4873 8.571 22.75 9.76667 22.75 11.05C22.75 12.9667 22.1667 14.4373 21 15.462C19.8333 16.4873 18.4167 17 16.75 17H14.9C14.75 17 14.646 17.0417 14.588 17.125C14.5293 17.2083 14.5 17.3 14.5 17.4C14.5 17.6 14.625 17.8873 14.875 18.262C15.125 18.6373 15.25 19.0667 15.25 19.55C15.25 20.3833 15.0207 21 14.562 21.4C14.104 21.8 13.5 22 12.75 22ZM7.25 13C7.68333 13 8.04167 12.8583 8.325 12.575C8.60833 12.2917 8.75 11.9333 8.75 11.5C8.75 11.0667 8.60833 10.7083 8.325 10.425C8.04167 10.1417 7.68333 10 7.25 10C6.81667 10 6.45833 10.1417 6.175 10.425C5.89167 10.7083 5.75 11.0667 5.75 11.5C5.75 11.9333 5.89167 12.2917 6.175 12.575C6.45833 12.8583 6.81667 13 7.25 13ZM10.25 9C10.6833 9 11.0417 8.85833 11.325 8.575C11.6083 8.29167 11.75 7.93333 11.75 7.5C11.75 7.06667 11.6083 6.70833 11.325 6.425C11.0417 6.14167 10.6833 6 10.25 6C9.81667 6 9.45833 6.14167 9.175 6.425C8.89167 6.70833 8.75 7.06667 8.75 7.5C8.75 7.93333 8.89167 8.29167 9.175 8.575C9.45833 8.85833 9.81667 9 10.25 9ZM15.25 9C15.6833 9 16.0417 8.85833 16.325 8.575C16.6083 8.29167 16.75 7.93333 16.75 7.5C16.75 7.06667 16.6083 6.70833 16.325 6.425C16.0417 6.14167 15.6833 6 15.25 6C14.8167 6 14.4583 6.14167 14.175 6.425C13.8917 6.70833 13.75 7.06667 13.75 7.5C13.75 7.93333 13.8917 8.29167 14.175 8.575C14.4583 8.85833 14.8167 9 15.25 9ZM18.25 13C18.6833 13 19.0417 12.8583 19.325 12.575C19.6083 12.2917 19.75 11.9333 19.75 11.5C19.75 11.0667 19.6083 10.7083 19.325 10.425C19.0417 10.1417 18.6833 10 18.25 10C17.8167 10 17.4583 10.1417 17.175 10.425C16.8917 10.7083 16.75 11.0667 16.75 11.5C16.75 11.9333 16.8917 12.2917 17.175 12.575C17.4583 12.8583 17.8167 13 18.25 13ZM12.75 20C12.9 20 13.021 19.9583 13.113 19.875C13.2043 19.7917 13.25 19.6833 13.25 19.55C13.25 19.3167 13.125 19.0417 12.875 18.725C12.625 18.4083 12.5 17.9333 12.5 17.3C12.5 16.6 12.7417 16.0417 13.225 15.625C13.7083 15.2083 14.3 15 15 15H16.75C17.85 15 18.7917 14.679 19.575 14.037C20.3583 13.3957 20.75 12.4 20.75 11.05C20.75 9.03333 19.9793 7.354 18.438 6.012C16.896 4.67067 15.0667 4 12.95 4C10.6833 4 8.75 4.775 7.15 6.325C5.55 7.875 4.75 9.76667 4.75 12C4.75 14.2167 5.52933 16.1043 7.088 17.663C8.646 19.221 10.5333 20 12.75 20Z" fill="#1C1B1F"/>
</g>
</svg>
