<svg width="25" height="24" viewBox="0 0 25 24" fill="none" xmlns="http://www.w3.org/2000/svg">
<mask id="mask0_540_38" style="mask-type:alpha" maskUnits="userSpaceOnUse" x="0" y="0" width="25" height="24">
<rect x="0.75" width="24" height="24" fill="#D9D9D9"/>
</mask>
<g mask="url(#mask0_540_38)">
<path d="M4.75 20C4.2 20 3.72933 19.8043 3.338 19.413C2.946 19.021 2.75 18.55 2.75 18V6C2.75 5.45 2.946 4.97933 3.338 4.588C3.72933 4.196 4.2 4 4.75 4H20.75C21.3 4 21.771 4.196 22.163 4.588C22.5543 4.97933 22.75 5.45 22.75 6V18C22.75 18.55 22.5543 19.021 22.163 19.413C21.771 19.8043 21.3 20 20.75 20H4.75ZM4.75 18H20.75V8H4.75V18ZM8.25 17L6.85 15.6L9.425 13L6.825 10.4L8.25 9L12.25 13L8.25 17ZM12.75 17V15H18.75V17H12.75Z" fill="#1C1B1F"/>
</g>
</svg>
