<svg width="533" height="439" viewBox="0 0 533 439" fill="none" xmlns="http://www.w3.org/2000/svg">
<rect width="178" height="38" rx="8" fill="#2A2B5F"/>
<path d="M12.9802 28V23.0198H8V21.4898H12.9802V16.5102H8V14.9802H12.9802V10H14.5102V14.9802H19.4898V10H21.0198V14.9802H26V16.5102H21.0198V21.4898H26V23.0198H21.0198V28H19.4898V23.0198H14.5102V28H12.9802ZM14.5102 21.4898H19.4898V16.5102H14.5102V21.4898Z" fill="#97E2CF"/>
<path d="M39.5114 26.2131C38.6307 26.2131 37.8447 25.9882 37.1534 25.5384C36.4669 25.0838 35.9271 24.4375 35.5341 23.5994C35.1458 22.7566 34.9517 21.7457 34.9517 20.5668C34.9517 19.3878 35.1482 18.3793 35.5412 17.5412C35.9389 16.7031 36.4834 16.0616 37.1747 15.6165C37.866 15.1714 38.6496 14.9489 39.5256 14.9489C40.2027 14.9489 40.7472 15.0625 41.1591 15.2898C41.5758 15.5123 41.8977 15.7727 42.125 16.071C42.357 16.3693 42.5369 16.6321 42.6648 16.8594H42.7926V11.4545H44.9162V26H42.8423V24.3026H42.6648C42.5369 24.5346 42.3523 24.7997 42.1108 25.098C41.8741 25.3963 41.5473 25.6567 41.1307 25.8793C40.714 26.1018 40.1742 26.2131 39.5114 26.2131ZM39.9801 24.402C40.5909 24.402 41.107 24.241 41.5284 23.919C41.9545 23.5923 42.2765 23.1402 42.4943 22.5625C42.7169 21.9848 42.8281 21.3125 42.8281 20.5455C42.8281 19.7879 42.7192 19.125 42.5014 18.5568C42.2836 17.9886 41.964 17.5459 41.5426 17.2287C41.1212 16.9115 40.6004 16.7528 39.9801 16.7528C39.3409 16.7528 38.8082 16.9186 38.3821 17.25C37.956 17.5814 37.634 18.0336 37.4162 18.6065C37.2031 19.1795 37.0966 19.8258 37.0966 20.5455C37.0966 21.2746 37.2055 21.9304 37.4233 22.5128C37.6411 23.0952 37.9631 23.5568 38.3892 23.8977C38.8201 24.2339 39.3504 24.402 39.9801 24.402ZM52.6488 26.2202C51.574 26.2202 50.6483 25.9905 49.8718 25.5312C49.1 25.0672 48.5034 24.4162 48.082 23.5781C47.6654 22.7353 47.457 21.7481 47.457 20.6165C47.457 19.4991 47.6654 18.5142 48.082 17.6619C48.5034 16.8097 49.0906 16.1444 49.8434 15.6662C50.601 15.188 51.4864 14.9489 52.4996 14.9489C53.1152 14.9489 53.7118 15.0507 54.2894 15.2543C54.8671 15.4579 55.3855 15.7775 55.8448 16.2131C56.3041 16.6487 56.6663 17.2145 56.9315 17.9105C57.1966 18.6018 57.3292 19.4422 57.3292 20.4318V21.1847H48.6573V19.5938H55.2482C55.2482 19.035 55.1346 18.5402 54.9073 18.1094C54.68 17.6738 54.3604 17.3305 53.9485 17.0795C53.5413 16.8286 53.0631 16.7031 52.5138 16.7031C51.9173 16.7031 51.3964 16.8499 50.9513 17.1435C50.511 17.4323 50.1701 17.8111 49.9286 18.2798C49.6919 18.7438 49.5735 19.2481 49.5735 19.7926V21.0355C49.5735 21.7647 49.7013 22.3849 49.957 22.8963C50.2174 23.4077 50.5797 23.7983 51.0437 24.0682C51.5077 24.3333 52.0498 24.4659 52.6701 24.4659C53.0726 24.4659 53.4395 24.4091 53.771 24.2955C54.1024 24.1771 54.3888 24.0019 54.6303 23.7699C54.8718 23.5379 55.0565 23.2514 55.1843 22.9105L57.1942 23.2727C57.0333 23.8646 56.7444 24.383 56.3278 24.8281C55.9158 25.2685 55.3974 25.6117 54.7724 25.858C54.1521 26.0994 53.4442 26.2202 52.6488 26.2202ZM67.8601 17.7543L65.9354 18.0952C65.8549 17.849 65.727 17.6146 65.5518 17.392C65.3814 17.1695 65.1494 16.9872 64.8558 16.8452C64.5623 16.7031 64.1953 16.6321 63.755 16.6321C63.1536 16.6321 62.6518 16.767 62.2493 17.0369C61.8468 17.3021 61.6456 17.6454 61.6456 18.0668C61.6456 18.4313 61.7805 18.7249 62.0504 18.9474C62.3203 19.17 62.7559 19.3523 63.3572 19.4943L65.0902 19.892C66.094 20.1241 66.8421 20.4815 67.3345 20.9645C67.8269 21.4474 68.0732 22.0748 68.0732 22.8466C68.0732 23.5 67.8838 24.0824 67.505 24.5938C67.1309 25.1004 66.6077 25.4981 65.9354 25.7869C65.2678 26.0758 64.4936 26.2202 63.6129 26.2202C62.3913 26.2202 61.3946 25.9598 60.6229 25.4389C59.8511 24.9134 59.3776 24.1676 59.2024 23.2017L61.255 22.8892C61.3828 23.4242 61.6456 23.8291 62.0433 24.1037C62.4411 24.3736 62.9595 24.5085 63.5987 24.5085C64.2947 24.5085 64.8511 24.3641 65.2678 24.0753C65.6844 23.7817 65.8928 23.4242 65.8928 23.0028C65.8928 22.6619 65.7649 22.3755 65.5092 22.1435C65.2583 21.9115 64.8724 21.7363 64.3516 21.6179L62.505 21.2131C61.487 20.9811 60.7341 20.6117 60.2464 20.1051C59.7635 19.5985 59.522 18.9569 59.522 18.1804C59.522 17.5365 59.7019 16.973 60.0618 16.4901C60.4216 16.0071 60.9188 15.6307 61.5533 15.3608C62.1877 15.0862 62.9145 14.9489 63.7337 14.9489C64.9126 14.9489 65.8407 15.2045 66.5178 15.7159C67.1948 16.2225 67.6423 16.902 67.8601 17.7543ZM70.408 26V15.0909H72.5316V26H70.408ZM71.4805 13.4077C71.1112 13.4077 70.7939 13.2846 70.5288 13.0384C70.2683 12.7874 70.1381 12.4891 70.1381 12.1435C70.1381 11.7931 70.2683 11.4948 70.5288 11.2486C70.7939 10.9976 71.1112 10.8722 71.4805 10.8722C71.8498 10.8722 72.1647 10.9976 72.4251 11.2486C72.6902 11.4948 72.8228 11.7931 72.8228 12.1435C72.8228 12.4891 72.6902 12.7874 72.4251 13.0384C72.1647 13.2846 71.8498 13.4077 71.4805 13.4077ZM79.9624 30.3182C79.0959 30.3182 78.3501 30.2045 77.7251 29.9773C77.1049 29.75 76.5982 29.4493 76.2053 29.0753C75.8123 28.7012 75.5187 28.2917 75.3246 27.8466L77.1499 27.0938C77.2777 27.3021 77.4482 27.5223 77.6612 27.7543C77.879 27.991 78.1726 28.1922 78.5419 28.358C78.916 28.5237 79.3965 28.6065 79.9837 28.6065C80.7886 28.6065 81.4538 28.41 81.9794 28.017C82.505 27.6288 82.7678 27.0085 82.7678 26.1562V24.0114H82.6328C82.505 24.2434 82.3203 24.5014 82.0788 24.7855C81.8421 25.0696 81.5154 25.3158 81.0987 25.5241C80.6821 25.7325 80.1399 25.8366 79.4723 25.8366C78.6106 25.8366 77.834 25.6354 77.1428 25.233C76.4562 24.8258 75.9117 24.2268 75.5092 23.4361C75.1115 22.6406 74.9126 21.6629 74.9126 20.5028C74.9126 19.3428 75.1091 18.3485 75.5021 17.5199C75.8999 16.6913 76.4444 16.0568 77.1357 15.6165C77.8269 15.1714 78.6106 14.9489 79.4865 14.9489C80.1636 14.9489 80.7105 15.0625 81.1271 15.2898C81.5438 15.5123 81.8681 15.7727 82.1001 16.071C82.3369 16.3693 82.5192 16.6321 82.647 16.8594H82.8033V15.0909H84.8842V26.2415C84.8842 27.179 84.6664 27.9484 84.2308 28.5497C83.7952 29.151 83.2057 29.5961 82.4624 29.8849C81.7237 30.1738 80.8904 30.3182 79.9624 30.3182ZM79.9411 24.0753C80.5518 24.0753 81.0679 23.9332 81.4893 23.6491C81.9155 23.3603 82.2375 22.9484 82.4553 22.4134C82.6778 21.8736 82.7891 21.2273 82.7891 20.4744C82.7891 19.7405 82.6802 19.0942 82.4624 18.5355C82.2446 17.9768 81.925 17.5412 81.5036 17.2287C81.0821 16.9115 80.5613 16.7528 79.9411 16.7528C79.3018 16.7528 78.7692 16.9186 78.343 17.25C77.9169 17.5767 77.5949 18.0218 77.3771 18.5852C77.1641 19.1487 77.0575 19.7784 77.0575 20.4744C77.0575 21.1894 77.1664 21.8168 77.3842 22.3565C77.602 22.8963 77.924 23.3177 78.3501 23.6207C78.781 23.9238 79.3113 24.0753 79.9411 24.0753ZM89.8558 19.5227V26H87.7322V15.0909H89.7706V16.8665H89.9055C90.1565 16.2888 90.5495 15.8248 91.0845 15.4744C91.6243 15.1241 92.3037 14.9489 93.1229 14.9489C93.8662 14.9489 94.5173 15.1051 95.076 15.4176C95.6347 15.7254 96.0679 16.1847 96.3757 16.7955C96.6835 17.4062 96.8374 18.1615 96.8374 19.0611V26H94.7138V19.3168C94.7138 18.526 94.5078 17.9081 94.0959 17.4631C93.6839 17.0133 93.1181 16.7884 92.3984 16.7884C91.906 16.7884 91.468 16.8949 91.0845 17.108C90.7057 17.321 90.4051 17.6335 90.1825 18.0455C89.9647 18.4527 89.8558 18.9451 89.8558 19.5227ZM106.113 18.9332V20.7727H99.6641V18.9332H106.113ZM111.067 11.4545V26H108.943V11.4545H111.067ZM113.924 26V15.0909H116.047V26H113.924ZM114.996 13.4077C114.627 13.4077 114.31 13.2846 114.044 13.0384C113.784 12.7874 113.654 12.4891 113.654 12.1435C113.654 11.7931 113.784 11.4948 114.044 11.2486C114.31 10.9976 114.627 10.8722 114.996 10.8722C115.365 10.8722 115.68 10.9976 115.941 11.2486C116.206 11.4948 116.338 11.7931 116.338 12.1435C116.338 12.4891 116.206 12.7874 115.941 13.0384C115.68 13.2846 115.365 13.4077 114.996 13.4077ZM119.075 26V11.4545H121.198V16.8594H121.326C121.449 16.6321 121.627 16.3693 121.859 16.071C122.091 15.7727 122.413 15.5123 122.825 15.2898C123.237 15.0625 123.781 14.9489 124.458 14.9489C125.339 14.9489 126.125 15.1714 126.816 15.6165C127.507 16.0616 128.049 16.7031 128.442 17.5412C128.84 18.3793 129.039 19.3878 129.039 20.5668C129.039 21.7457 128.843 22.7566 128.45 23.5994C128.057 24.4375 127.517 25.0838 126.83 25.5384C126.144 25.9882 125.36 26.2131 124.479 26.2131C123.817 26.2131 123.274 26.1018 122.853 25.8793C122.436 25.6567 122.11 25.3963 121.873 25.098C121.636 24.7997 121.454 24.5346 121.326 24.3026H121.148V26H119.075ZM121.156 20.5455C121.156 21.3125 121.267 21.9848 121.489 22.5625C121.712 23.1402 122.034 23.5923 122.455 23.919C122.877 24.241 123.393 24.402 124.004 24.402C124.638 24.402 125.168 24.2339 125.594 23.8977C126.021 23.5568 126.343 23.0952 126.56 22.5128C126.783 21.9304 126.894 21.2746 126.894 20.5455C126.894 19.8258 126.785 19.1795 126.567 18.6065C126.354 18.0336 126.032 17.5814 125.602 17.25C125.175 16.9186 124.643 16.7528 124.004 16.7528C123.388 16.7528 122.867 16.9115 122.441 17.2287C122.02 17.5459 121.7 17.9886 121.482 18.5568C121.264 19.125 121.156 19.7879 121.156 20.5455ZM131.424 26V15.0909H133.476V16.8239H133.59C133.789 16.2367 134.139 15.7751 134.641 15.4389C135.148 15.098 135.721 14.9276 136.36 14.9276C136.492 14.9276 136.649 14.9323 136.828 14.9418C137.013 14.9512 137.158 14.9631 137.262 14.9773V17.0085C137.176 16.9848 137.025 16.9588 136.807 16.9304C136.589 16.8973 136.372 16.8807 136.154 16.8807C135.652 16.8807 135.204 16.9872 134.811 17.2003C134.423 17.4086 134.115 17.6998 133.888 18.0739C133.661 18.4432 133.547 18.8646 133.547 19.3381V26H131.424ZM142.176 26.2415C141.485 26.2415 140.86 26.1136 140.301 25.858C139.743 25.5975 139.3 25.2211 138.973 24.7287C138.651 24.2363 138.49 23.6326 138.49 22.9176C138.49 22.3021 138.609 21.7955 138.846 21.3977C139.082 21 139.402 20.6851 139.804 20.4531C140.207 20.2211 140.657 20.0459 141.154 19.9276C141.651 19.8092 142.158 19.7192 142.674 19.6577C143.327 19.5819 143.857 19.5204 144.265 19.473C144.672 19.4209 144.968 19.3381 145.152 19.2244C145.337 19.1108 145.429 18.9261 145.429 18.6705V18.6207C145.429 18.0005 145.254 17.5199 144.904 17.179C144.558 16.8381 144.042 16.6676 143.355 16.6676C142.641 16.6676 142.077 16.8262 141.665 17.1435C141.258 17.456 140.976 17.804 140.82 18.1875L138.824 17.733C139.061 17.0701 139.407 16.535 139.861 16.1278C140.32 15.7159 140.848 15.4176 141.445 15.233C142.042 15.0436 142.669 14.9489 143.327 14.9489C143.763 14.9489 144.224 15.0009 144.712 15.1051C145.204 15.2045 145.664 15.3892 146.09 15.6591C146.521 15.929 146.873 16.3149 147.148 16.8168C147.423 17.3139 147.56 17.9602 147.56 18.7557V26H145.486V24.5085H145.401C145.264 24.7831 145.058 25.053 144.783 25.3182C144.508 25.5833 144.156 25.8035 143.725 25.9787C143.294 26.1539 142.778 26.2415 142.176 26.2415ZM142.638 24.5369C143.225 24.5369 143.727 24.4209 144.144 24.1889C144.565 23.9569 144.885 23.6539 145.103 23.2798C145.325 22.901 145.436 22.4962 145.436 22.0653V20.6591C145.361 20.7348 145.214 20.8059 144.996 20.8722C144.783 20.9337 144.539 20.9882 144.265 21.0355C143.99 21.0781 143.722 21.1184 143.462 21.1562C143.202 21.1894 142.984 21.2178 142.809 21.2415C142.397 21.2936 142.02 21.3812 141.679 21.5043C141.343 21.6274 141.073 21.8049 140.87 22.0369C140.671 22.2642 140.571 22.5672 140.571 22.946C140.571 23.4716 140.766 23.8693 141.154 24.1392C141.542 24.4044 142.037 24.5369 142.638 24.5369ZM150.388 26V15.0909H152.441V16.8239H152.555C152.754 16.2367 153.104 15.7751 153.606 15.4389C154.112 15.098 154.685 14.9276 155.325 14.9276C155.457 14.9276 155.613 14.9323 155.793 14.9418C155.978 14.9512 156.122 14.9631 156.227 14.9773V17.0085C156.141 16.9848 155.99 16.9588 155.772 16.9304C155.554 16.8973 155.336 16.8807 155.119 16.8807C154.617 16.8807 154.169 16.9872 153.776 17.2003C153.388 17.4086 153.08 17.6998 152.853 18.0739C152.626 18.4432 152.512 18.8646 152.512 19.3381V26H150.388ZM159.739 30.0909C159.421 30.0909 159.133 30.0649 158.872 30.0128C158.612 29.9654 158.418 29.9134 158.29 29.8565L158.801 28.1165C159.189 28.2206 159.535 28.2656 159.838 28.2514C160.141 28.2372 160.409 28.1236 160.641 27.9105C160.877 27.6974 161.086 27.3494 161.266 26.8665L161.528 26.142L157.537 15.0909H159.81L162.572 23.5568H162.686L165.449 15.0909H167.729L163.233 27.456C163.025 28.0241 162.759 28.5047 162.438 28.8977C162.116 29.2955 161.732 29.5938 161.287 29.7926C160.842 29.9915 160.326 30.0909 159.739 30.0909Z" fill="#97E2CF"/>
<rect x="0.5" y="55.7867" width="532" height="382.713" stroke="#97E2CF"/>
<path d="M60.7969 117.341V114.841L70.7969 110.438V113.314L63.9503 116.063L64.0426 115.913V116.268L63.9503 116.119L70.7969 118.868V121.744L60.7969 117.341ZM73.858 123.271V108.726H76.9332V114.727H83.1761V108.726H86.2443V123.271H83.1761V117.263H76.9332V123.271H73.858ZM95.0227 108.726V123.271H91.9474V111.645H91.8622L88.5312 113.733V111.006L92.1321 108.726H95.0227ZM109.098 117.341L99.0977 121.744V118.868L105.944 116.119L105.852 116.268V115.913L105.944 116.063L99.0977 113.314V110.438L109.098 114.841V117.341Z" fill="#97E2CF"/>
<path d="M60.7969 177.989V175.489L70.7969 171.085V173.962L63.9503 176.71L64.0426 176.561V176.916L63.9503 176.767L70.7969 179.516V182.392L60.7969 177.989ZM73.858 183.919V169.374H76.9332V175.375H83.1761V169.374H86.2443V183.919H83.1761V177.911H76.9332V183.919H73.858ZM88.6946 183.919V181.703L93.8722 176.909C94.3125 176.483 94.6818 176.099 94.9801 175.759C95.2831 175.418 95.5128 175.084 95.669 174.757C95.8253 174.426 95.9034 174.068 95.9034 173.685C95.9034 173.259 95.8063 172.892 95.6122 172.584C95.4181 172.271 95.1529 172.032 94.8168 171.866C94.4806 171.696 94.0994 171.611 93.6733 171.611C93.2282 171.611 92.84 171.701 92.5085 171.881C92.1771 172.061 91.9214 172.319 91.7415 172.655C91.5616 172.991 91.4716 173.391 91.4716 173.855H88.5526C88.5526 172.903 88.768 172.077 89.1989 171.376C89.6297 170.676 90.2334 170.134 91.0099 169.75C91.7865 169.366 92.6813 169.175 93.6946 169.175C94.7363 169.175 95.643 169.359 96.4148 169.729C97.1913 170.093 97.795 170.6 98.2259 171.249C98.6567 171.897 98.8722 172.641 98.8722 173.479C98.8722 174.028 98.7633 174.57 98.5455 175.105C98.3324 175.64 97.9512 176.234 97.402 176.888C96.8527 177.536 96.0786 178.315 95.0795 179.224L92.956 181.305V181.405H99.0639V183.919H88.6946ZM111.91 177.989L101.91 182.392V179.516L108.757 176.767L108.664 176.916V176.561L108.757 176.71L101.91 173.962V171.085L111.91 175.489V177.989Z" fill="#97E2CF"/>
<path d="M60.7969 228.14V225.64L70.7969 221.236V224.113L63.9503 226.861L64.0426 226.712V227.067L63.9503 226.918L70.7969 229.667V232.543L60.7969 228.14ZM73.858 234.07V219.525H76.9332V225.526H83.1761V219.525H86.2443V234.07H83.1761V228.061H76.9332V234.07H73.858ZM94.071 234.269C93.0104 234.269 92.0658 234.087 91.2372 233.722C90.4134 233.353 89.7623 232.846 89.2841 232.202C88.8106 231.553 88.5668 230.805 88.5526 229.958H91.6491C91.6681 230.313 91.7841 230.625 91.9972 230.895C92.215 231.16 92.5038 231.366 92.8636 231.513C93.2235 231.66 93.6283 231.733 94.0781 231.733C94.5469 231.733 94.9612 231.651 95.321 231.485C95.6809 231.319 95.9626 231.089 96.1662 230.796C96.3698 230.502 96.4716 230.164 96.4716 229.78C96.4716 229.392 96.3627 229.049 96.1449 228.75C95.9318 228.447 95.6241 228.211 95.2216 228.04C94.8239 227.87 94.3504 227.785 93.8011 227.785H92.4446V225.526H93.8011C94.2652 225.526 94.6747 225.445 95.0298 225.285C95.3897 225.124 95.669 224.901 95.8679 224.617C96.0668 224.328 96.1662 223.992 96.1662 223.608C96.1662 223.244 96.0786 222.924 95.9034 222.65C95.733 222.37 95.4915 222.152 95.179 221.996C94.8712 221.84 94.5114 221.762 94.0994 221.762C93.6828 221.762 93.3016 221.838 92.956 221.989C92.6103 222.136 92.3333 222.347 92.125 222.621C91.9167 222.896 91.8054 223.218 91.7912 223.587H88.8438C88.858 222.749 89.0971 222.01 89.5611 221.371C90.0251 220.732 90.6501 220.232 91.4361 219.873C92.2268 219.508 93.1193 219.326 94.1136 219.326C95.1174 219.326 95.9957 219.508 96.7486 219.873C97.5014 220.237 98.0862 220.73 98.5028 221.35C98.9242 221.965 99.1326 222.657 99.1278 223.424C99.1326 224.238 98.8793 224.918 98.3679 225.462C97.8613 226.007 97.2008 226.352 96.3864 226.499V226.613C97.4564 226.75 98.2708 227.122 98.8295 227.728C99.393 228.329 99.6723 229.082 99.6676 229.986C99.6723 230.815 99.4332 231.551 98.9503 232.195C98.4721 232.839 97.8116 233.346 96.9688 233.715C96.1259 234.084 95.16 234.269 94.071 234.269ZM112.496 228.14L102.496 232.543V229.667L109.343 226.918L109.25 227.067V226.712L109.343 226.861L102.496 224.113V221.236L112.496 225.64V228.14Z" fill="#97E2CF"/>
<path d="M60.7969 275.958V273.458L70.7969 269.055V271.931L63.9503 274.68L64.0426 274.53V274.886L63.9503 274.736L70.7969 277.485V280.361L60.7969 275.958ZM73.858 281.888V267.343H76.9332V273.344H83.1761V267.343H86.2443V281.888H83.1761V275.88H76.9332V281.888H73.858ZM88.4744 279.332V276.91L94.5469 267.343H96.6349V270.695H95.3991L91.571 276.753V276.867H100.2V279.332H88.4744ZM95.456 281.888V278.593L95.5128 277.52V267.343H98.3963V281.888H95.456ZM112.867 275.958L102.867 280.361V277.485L109.714 274.736L109.621 274.886V274.53L109.714 274.68L102.867 271.931V269.055L112.867 273.458V275.958Z" fill="#97E2CF"/>
<path d="M149.23 124.109V97.9276H154.765V108.73H166.002V97.9276H171.525V124.109H166.002V113.294H154.765V124.109H149.23ZM184.936 124.493C182.916 124.493 181.177 124.084 179.72 123.266C178.271 122.439 177.154 121.271 176.37 119.763C175.586 118.246 175.194 116.452 175.194 114.381C175.194 112.361 175.586 110.588 176.37 109.063C177.154 107.537 178.258 106.348 179.681 105.496C181.113 104.643 182.792 104.217 184.718 104.217C186.014 104.217 187.22 104.426 188.336 104.844C189.461 105.253 190.441 105.871 191.276 106.697C192.12 107.524 192.776 108.564 193.245 109.817C193.714 111.061 193.948 112.518 193.948 114.189V115.685H177.367V112.31H188.822C188.822 111.526 188.651 110.831 188.311 110.226C187.97 109.621 187.497 109.148 186.892 108.807C186.295 108.457 185.6 108.283 184.808 108.283C183.981 108.283 183.248 108.474 182.609 108.858C181.978 109.233 181.484 109.74 181.126 110.379C180.768 111.01 180.585 111.713 180.576 112.489V115.697C180.576 116.669 180.755 117.509 181.113 118.216C181.48 118.923 181.995 119.469 182.66 119.852C183.325 120.236 184.113 120.428 185.025 120.428C185.63 120.428 186.184 120.342 186.687 120.172C187.19 120.001 187.62 119.746 187.978 119.405C188.336 119.064 188.609 118.646 188.796 118.152L193.833 118.484C193.578 119.695 193.053 120.751 192.261 121.655C191.477 122.55 190.463 123.249 189.218 123.751C187.982 124.246 186.555 124.493 184.936 124.493ZM202.948 97.9276V124.109H197.502V97.9276H202.948ZM212.757 97.9276V124.109H207.311V97.9276H212.757ZM225.992 124.493C224.006 124.493 222.289 124.071 220.84 123.227C219.399 122.375 218.287 121.19 217.503 119.673C216.719 118.148 216.327 116.379 216.327 114.368C216.327 112.34 216.719 110.567 217.503 109.05C218.287 107.524 219.399 106.34 220.84 105.496C222.289 104.643 224.006 104.217 225.992 104.217C227.977 104.217 229.691 104.643 231.131 105.496C232.58 106.34 233.696 107.524 234.48 109.05C235.264 110.567 235.656 112.34 235.656 114.368C235.656 116.379 235.264 118.148 234.48 119.673C233.696 121.19 232.58 122.375 231.131 123.227C229.691 124.071 227.977 124.493 225.992 124.493ZM226.017 120.274C226.921 120.274 227.675 120.018 228.28 119.507C228.885 118.987 229.341 118.28 229.648 117.385C229.963 116.49 230.121 115.472 230.121 114.33C230.121 113.188 229.963 112.169 229.648 111.274C229.341 110.379 228.885 109.672 228.28 109.152C227.675 108.632 226.921 108.372 226.017 108.372C225.105 108.372 224.338 108.632 223.716 109.152C223.102 109.672 222.638 110.379 222.323 111.274C222.016 112.169 221.862 113.188 221.862 114.33C221.862 115.472 222.016 116.49 222.323 117.385C222.638 118.28 223.102 118.987 223.716 119.507C224.338 120.018 225.105 120.274 226.017 120.274ZM245.705 97.9276L245.206 116.26H240.527L240.016 97.9276H245.705ZM242.867 124.442C242.023 124.442 241.299 124.143 240.693 123.547C240.088 122.942 239.79 122.217 239.799 121.374C239.79 120.538 240.088 119.822 240.693 119.226C241.299 118.629 242.023 118.331 242.867 118.331C243.676 118.331 244.388 118.629 245.002 119.226C245.615 119.822 245.926 120.538 245.935 121.374C245.926 121.936 245.777 122.452 245.487 122.92C245.206 123.381 244.835 123.751 244.375 124.033C243.915 124.305 243.412 124.442 242.867 124.442Z" fill="white"/>
<path d="M148.471 183.254V165.799H152.161V173.001H159.653V165.799H163.335V183.254H159.653V176.044H152.161V183.254H148.471ZM172.275 183.51C170.928 183.51 169.769 183.237 168.798 182.691C167.832 182.14 167.088 181.362 166.565 180.356C166.042 179.345 165.781 178.149 165.781 176.768C165.781 175.421 166.042 174.24 166.565 173.223C167.088 172.206 167.823 171.413 168.772 170.845C169.727 170.277 170.846 169.992 172.13 169.992C172.994 169.992 173.798 170.132 174.542 170.41C175.292 170.683 175.946 171.095 176.502 171.646C177.065 172.197 177.502 172.89 177.815 173.725C178.127 174.555 178.284 175.527 178.284 176.64V177.637H167.23V175.387H174.866C174.866 174.865 174.752 174.402 174.525 173.998C174.298 173.595 173.982 173.279 173.579 173.052C173.181 172.819 172.718 172.703 172.19 172.703C171.639 172.703 171.15 172.831 170.724 173.086C170.303 173.336 169.974 173.674 169.735 174.1C169.497 174.521 169.374 174.99 169.369 175.507V177.646C169.369 178.294 169.488 178.853 169.727 179.325C169.971 179.796 170.315 180.16 170.758 180.416C171.201 180.671 171.727 180.799 172.335 180.799C172.738 180.799 173.107 180.742 173.443 180.629C173.778 180.515 174.065 180.345 174.303 180.117C174.542 179.89 174.724 179.612 174.849 179.282L178.207 179.504C178.036 180.311 177.687 181.015 177.159 181.617C176.636 182.214 175.96 182.68 175.13 183.015C174.306 183.345 173.355 183.51 172.275 183.51ZM184.284 165.799V183.254H180.653V165.799H184.284ZM190.823 165.799V183.254H187.192V165.799H190.823ZM199.646 183.51C198.322 183.51 197.177 183.228 196.211 182.666C195.251 182.098 194.509 181.308 193.987 180.296C193.464 179.279 193.203 178.1 193.203 176.76C193.203 175.407 193.464 174.225 193.987 173.214C194.509 172.197 195.251 171.407 196.211 170.845C197.177 170.277 198.322 169.992 199.646 169.992C200.97 169.992 202.112 170.277 203.072 170.845C204.038 171.407 204.782 172.197 205.305 173.214C205.828 174.225 206.089 175.407 206.089 176.76C206.089 178.1 205.828 179.279 205.305 180.296C204.782 181.308 204.038 182.098 203.072 182.666C202.112 183.228 200.97 183.51 199.646 183.51ZM199.663 180.697C200.265 180.697 200.768 180.527 201.171 180.186C201.575 179.839 201.879 179.367 202.083 178.771C202.294 178.174 202.399 177.495 202.399 176.734C202.399 175.973 202.294 175.294 202.083 174.697C201.879 174.1 201.575 173.629 201.171 173.282C200.768 172.936 200.265 172.762 199.663 172.762C199.055 172.762 198.544 172.936 198.129 173.282C197.72 173.629 197.41 174.1 197.2 174.697C196.995 175.294 196.893 175.973 196.893 176.734C196.893 177.495 196.995 178.174 197.2 178.771C197.41 179.367 197.72 179.839 198.129 180.186C198.544 180.527 199.055 180.697 199.663 180.697ZM212.788 165.799L212.455 178.021H209.336L208.995 165.799H212.788ZM210.896 183.475C210.333 183.475 209.85 183.277 209.447 182.879C209.044 182.475 208.845 181.992 208.85 181.43C208.845 180.873 209.044 180.396 209.447 179.998C209.85 179.6 210.333 179.402 210.896 179.402C211.436 179.402 211.91 179.6 212.319 179.998C212.728 180.396 212.936 180.873 212.941 181.43C212.936 181.805 212.836 182.149 212.643 182.461C212.455 182.768 212.208 183.015 211.901 183.203C211.595 183.385 211.259 183.475 210.896 183.475Z" fill="white"/>
<path d="M147.965 231.236V219.6H150.426V224.401H155.42V219.6H157.874V231.236H155.42V226.43H150.426V231.236H147.965ZM163.835 231.407C162.937 231.407 162.164 231.225 161.517 230.861C160.873 230.494 160.376 229.975 160.028 229.305C159.679 228.63 159.505 227.833 159.505 226.912C159.505 226.015 159.679 225.227 160.028 224.549C160.376 223.871 160.867 223.342 161.499 222.964C162.136 222.585 162.882 222.395 163.738 222.395C164.314 222.395 164.85 222.488 165.346 222.674C165.846 222.856 166.282 223.13 166.653 223.498C167.028 223.865 167.32 224.327 167.528 224.884C167.736 225.437 167.84 226.085 167.84 226.827V227.492H160.471V225.992H165.562C165.562 225.644 165.486 225.335 165.335 225.066C165.183 224.797 164.973 224.587 164.704 224.435C164.439 224.28 164.13 224.202 163.778 224.202C163.41 224.202 163.085 224.287 162.801 224.458C162.52 224.625 162.301 224.85 162.142 225.134C161.982 225.414 161.901 225.727 161.897 226.072V227.498C161.897 227.93 161.977 228.303 162.136 228.617C162.299 228.931 162.528 229.174 162.823 229.344C163.119 229.515 163.469 229.6 163.874 229.6C164.143 229.6 164.39 229.562 164.613 229.486C164.837 229.411 165.028 229.297 165.187 229.145C165.346 228.994 165.467 228.808 165.551 228.589L167.789 228.736C167.676 229.274 167.443 229.744 167.09 230.145C166.742 230.543 166.291 230.854 165.738 231.077C165.189 231.297 164.554 231.407 163.835 231.407ZM171.84 219.6V231.236H169.42V219.6H171.84ZM176.2 219.6V231.236H173.779V219.6H176.2ZM182.082 231.407C181.199 231.407 180.436 231.219 179.792 230.844C179.152 230.465 178.658 229.939 178.309 229.265C177.961 228.587 177.786 227.801 177.786 226.907C177.786 226.005 177.961 225.217 178.309 224.543C178.658 223.865 179.152 223.339 179.792 222.964C180.436 222.585 181.199 222.395 182.082 222.395C182.964 222.395 183.726 222.585 184.366 222.964C185.01 223.339 185.506 223.865 185.855 224.543C186.203 225.217 186.377 226.005 186.377 226.907C186.377 227.801 186.203 228.587 185.855 229.265C185.506 229.939 185.01 230.465 184.366 230.844C183.726 231.219 182.964 231.407 182.082 231.407ZM182.093 229.532C182.495 229.532 182.83 229.418 183.099 229.191C183.368 228.96 183.571 228.645 183.707 228.248C183.847 227.85 183.917 227.397 183.917 226.89C183.917 226.382 183.847 225.93 183.707 225.532C183.571 225.134 183.368 224.82 183.099 224.589C182.83 224.358 182.495 224.242 182.093 224.242C181.688 224.242 181.347 224.358 181.071 224.589C180.798 224.82 180.591 225.134 180.451 225.532C180.315 225.93 180.247 226.382 180.247 226.89C180.247 227.397 180.315 227.85 180.451 228.248C180.591 228.645 180.798 228.96 181.071 229.191C181.347 229.418 181.688 229.532 182.093 229.532ZM190.843 219.6L190.622 227.748H188.542L188.315 219.6H190.843ZM189.582 231.384C189.207 231.384 188.885 231.251 188.616 230.986C188.347 230.717 188.214 230.395 188.218 230.02C188.214 229.649 188.347 229.331 188.616 229.066C188.885 228.801 189.207 228.668 189.582 228.668C189.942 228.668 190.258 228.801 190.531 229.066C190.803 229.331 190.942 229.649 190.946 230.02C190.942 230.27 190.875 230.5 190.747 230.708C190.622 230.912 190.457 231.077 190.252 231.202C190.048 231.323 189.824 231.384 189.582 231.384Z" fill="white"/>
<path d="M147.713 279.554V270.826H149.558V274.427H153.303V270.826H155.144V279.554H153.303V275.949H149.558V279.554H147.713ZM159.615 279.681C158.941 279.681 158.362 279.545 157.876 279.272C157.393 278.997 157.021 278.608 156.759 278.105C156.498 277.599 156.367 277.001 156.367 276.311C156.367 275.637 156.498 275.047 156.759 274.538C157.021 274.029 157.389 273.633 157.863 273.349C158.34 273.065 158.9 272.923 159.542 272.923C159.974 272.923 160.376 272.993 160.748 273.132C161.123 273.268 161.45 273.474 161.728 273.75C162.009 274.025 162.228 274.372 162.384 274.789C162.541 275.204 162.619 275.69 162.619 276.247V276.745H157.092V275.62H160.91C160.91 275.359 160.853 275.127 160.74 274.926C160.626 274.724 160.468 274.566 160.267 274.453C160.068 274.336 159.836 274.278 159.572 274.278C159.296 274.278 159.052 274.342 158.839 274.47C158.629 274.595 158.464 274.764 158.345 274.977C158.225 275.187 158.164 275.422 158.161 275.68V276.75C158.161 277.074 158.221 277.353 158.34 277.589C158.463 277.825 158.634 278.007 158.856 278.135C159.078 278.262 159.34 278.326 159.644 278.326C159.846 278.326 160.031 278.298 160.198 278.241C160.366 278.184 160.509 278.099 160.629 277.985C160.748 277.872 160.839 277.733 160.901 277.568L162.58 277.679C162.495 278.082 162.321 278.434 162.056 278.735C161.795 279.034 161.457 279.267 161.042 279.434C160.63 279.599 160.154 279.681 159.615 279.681ZM165.619 270.826V279.554H163.803V270.826H165.619ZM168.888 270.826V279.554H167.073V270.826H168.888ZM173.3 279.681C172.638 279.681 172.066 279.541 171.583 279.26C171.102 278.975 170.732 278.581 170.47 278.075C170.209 277.566 170.078 276.977 170.078 276.306C170.078 275.63 170.209 275.039 170.47 274.534C170.732 274.025 171.102 273.63 171.583 273.349C172.066 273.065 172.638 272.923 173.3 272.923C173.962 272.923 174.533 273.065 175.013 273.349C175.496 273.63 175.868 274.025 176.129 274.534C176.391 275.039 176.522 275.63 176.522 276.306C176.522 276.977 176.391 277.566 176.129 278.075C175.868 278.581 175.496 278.975 175.013 279.26C174.533 279.541 173.962 279.681 173.3 279.681ZM173.308 278.275C173.61 278.275 173.861 278.19 174.063 278.02C174.264 277.846 174.416 277.61 174.519 277.312C174.624 277.014 174.676 276.674 174.676 276.294C174.676 275.913 174.624 275.574 174.519 275.275C174.416 274.977 174.264 274.741 174.063 274.568C173.861 274.395 173.61 274.308 173.308 274.308C173.004 274.308 172.749 274.395 172.541 274.568C172.337 274.741 172.182 274.977 172.077 275.275C171.975 275.574 171.924 275.913 171.924 276.294C171.924 276.674 171.975 277.014 172.077 277.312C172.182 277.61 172.337 277.846 172.541 278.02C172.749 278.19 173.004 278.275 173.308 278.275ZM179.871 270.826L179.705 276.937H178.145L177.975 270.826H179.871ZM178.925 279.664C178.644 279.664 178.402 279.565 178.2 279.366C177.999 279.164 177.899 278.923 177.902 278.642C177.899 278.363 177.999 278.125 178.2 277.926C178.402 277.727 178.644 277.627 178.925 277.627C179.195 277.627 179.432 277.727 179.637 277.926C179.841 278.125 179.945 278.363 179.948 278.642C179.945 278.829 179.895 279.001 179.799 279.157C179.705 279.311 179.581 279.434 179.428 279.528C179.274 279.619 179.107 279.664 178.925 279.664Z" fill="white"/>
<rect x="341.044" y="249.057" width="16" height="16" rx="8" fill="#97E2CF"/>
<rect x="337.544" y="245.557" width="47" height="23" rx="11.5" stroke="#97E2CF"/>
<rect x="401.044" y="245.057" width="48" height="24" rx="12" fill="#97E2CF"/>
<rect x="429.044" y="249.057" width="16" height="16" rx="8" fill="#030439"/>
<rect x="309.57" y="215.57" width="166.947" height="82.9737" rx="4.5" stroke="#97E2CF" stroke-dasharray="10 5"/>
<path d="M328.177 106.754H326.405C326.336 106.375 326.21 106.042 326.024 105.754C325.838 105.466 325.611 105.222 325.342 105.021C325.073 104.82 324.772 104.669 324.439 104.566C324.109 104.464 323.759 104.413 323.388 104.413C322.717 104.413 322.117 104.582 321.586 104.919C321.06 105.256 320.643 105.75 320.336 106.402C320.033 107.053 319.882 107.849 319.882 108.788C319.882 109.735 320.033 110.534 320.336 111.186C320.643 111.837 321.062 112.33 321.592 112.663C322.122 112.996 322.719 113.163 323.382 113.163C323.749 113.163 324.098 113.114 324.427 113.015C324.761 112.913 325.062 112.763 325.331 112.566C325.6 112.369 325.827 112.129 326.013 111.845C326.202 111.557 326.333 111.227 326.405 110.856L328.177 110.862C328.083 111.434 327.899 111.96 327.626 112.441C327.357 112.919 327.011 113.332 326.586 113.68C326.166 114.025 325.685 114.292 325.143 114.481C324.602 114.671 324.011 114.765 323.37 114.765C322.363 114.765 321.465 114.527 320.677 114.049C319.889 113.568 319.268 112.881 318.814 111.987C318.363 111.093 318.138 110.027 318.138 108.788C318.138 107.546 318.365 106.479 318.819 105.589C319.274 104.695 319.895 104.01 320.683 103.532C321.471 103.051 322.367 102.811 323.37 102.811C323.988 102.811 324.564 102.9 325.098 103.078C325.636 103.252 326.119 103.51 326.547 103.85C326.975 104.188 327.329 104.6 327.609 105.089C327.889 105.574 328.079 106.129 328.177 106.754ZM340.386 108.788C340.386 110.03 340.159 111.099 339.704 111.992C339.25 112.883 338.627 113.568 337.835 114.049C337.047 114.527 336.151 114.765 335.147 114.765C334.14 114.765 333.24 114.527 332.449 114.049C331.661 113.568 331.04 112.881 330.585 111.987C330.13 111.093 329.903 110.027 329.903 108.788C329.903 107.546 330.13 106.479 330.585 105.589C331.04 104.695 331.661 104.01 332.449 103.532C333.24 103.051 334.14 102.811 335.147 102.811C336.151 102.811 337.047 103.051 337.835 103.532C338.627 104.01 339.25 104.695 339.704 105.589C340.159 106.479 340.386 107.546 340.386 108.788ZM338.647 108.788C338.647 107.841 338.494 107.044 338.187 106.396C337.884 105.744 337.468 105.252 336.937 104.919C336.411 104.582 335.814 104.413 335.147 104.413C334.477 104.413 333.879 104.582 333.352 104.919C332.826 105.252 332.409 105.744 332.102 106.396C331.799 107.044 331.647 107.841 331.647 108.788C331.647 109.735 331.799 110.534 332.102 111.186C332.409 111.833 332.826 112.326 333.352 112.663C333.879 112.996 334.477 113.163 335.147 113.163C335.814 113.163 336.411 112.996 336.937 112.663C337.468 112.326 337.884 111.833 338.187 111.186C338.494 110.534 338.647 109.735 338.647 108.788ZM342.575 114.606V102.97H344.331V113.095H349.603V114.606H342.575ZM361.261 108.788C361.261 110.03 361.034 111.099 360.579 111.992C360.125 112.883 359.502 113.568 358.71 114.049C357.922 114.527 357.026 114.765 356.022 114.765C355.015 114.765 354.115 114.527 353.324 114.049C352.536 113.568 351.915 112.881 351.46 111.987C351.005 111.093 350.778 110.027 350.778 108.788C350.778 107.546 351.005 106.479 351.46 105.589C351.915 104.695 352.536 104.01 353.324 103.532C354.115 103.051 355.015 102.811 356.022 102.811C357.026 102.811 357.922 103.051 358.71 103.532C359.502 104.01 360.125 104.695 360.579 105.589C361.034 106.479 361.261 107.546 361.261 108.788ZM359.522 108.788C359.522 107.841 359.369 107.044 359.062 106.396C358.759 105.744 358.343 105.252 357.812 104.919C357.286 104.582 356.689 104.413 356.022 104.413C355.352 104.413 354.754 104.582 354.227 104.919C353.701 105.252 353.284 105.744 352.977 106.396C352.674 107.044 352.522 107.841 352.522 108.788C352.522 109.735 352.674 110.534 352.977 111.186C353.284 111.833 353.701 112.326 354.227 112.663C354.754 112.996 355.352 113.163 356.022 113.163C356.689 113.163 357.286 112.996 357.812 112.663C358.343 112.326 358.759 111.833 359.062 111.186C359.369 110.534 359.522 109.735 359.522 108.788ZM370.933 102.97H372.694V110.623C372.694 111.438 372.503 112.159 372.12 112.788C371.738 113.413 371.2 113.905 370.507 114.265C369.814 114.621 369.001 114.799 368.069 114.799C367.141 114.799 366.331 114.621 365.638 114.265C364.944 113.905 364.406 113.413 364.024 112.788C363.641 112.159 363.45 111.438 363.45 110.623V102.97H365.206V110.481C365.206 111.008 365.321 111.475 365.552 111.885C365.787 112.294 366.119 112.616 366.547 112.85C366.975 113.082 367.482 113.197 368.069 113.197C368.66 113.197 369.17 113.082 369.598 112.85C370.03 112.616 370.359 112.294 370.586 111.885C370.817 111.475 370.933 111.008 370.933 110.481V102.97ZM375.247 114.606V102.97H379.395C380.296 102.97 381.044 103.125 381.639 103.436C382.237 103.746 382.684 104.176 382.98 104.725C383.275 105.271 383.423 105.902 383.423 106.617C383.423 107.33 383.273 107.957 382.974 108.498C382.679 109.036 382.232 109.455 381.633 109.754C381.039 110.053 380.29 110.203 379.389 110.203H376.247V108.691H379.23C379.798 108.691 380.26 108.61 380.616 108.447C380.976 108.284 381.239 108.047 381.406 107.737C381.573 107.426 381.656 107.053 381.656 106.617C381.656 106.178 381.571 105.797 381.4 105.475C381.234 105.153 380.97 104.907 380.611 104.737C380.254 104.563 379.787 104.475 379.207 104.475H377.003V114.606H375.247ZM380.991 109.356L383.866 114.606H381.866L379.048 109.356H380.991ZM391.906 106.027C391.845 105.489 391.595 105.072 391.156 104.777C390.717 104.477 390.164 104.328 389.497 104.328C389.02 104.328 388.607 104.403 388.258 104.555C387.91 104.703 387.639 104.907 387.446 105.169C387.256 105.426 387.162 105.72 387.162 106.049C387.162 106.326 387.226 106.564 387.355 106.765C387.487 106.966 387.66 107.135 387.872 107.271C388.088 107.403 388.319 107.515 388.565 107.606C388.811 107.693 389.048 107.765 389.275 107.822L390.412 108.117C390.783 108.208 391.164 108.332 391.554 108.487C391.944 108.642 392.306 108.847 392.639 109.1C392.972 109.354 393.241 109.669 393.446 110.044C393.654 110.419 393.758 110.867 393.758 111.39C393.758 112.049 393.588 112.635 393.247 113.146C392.91 113.657 392.419 114.061 391.775 114.356C391.135 114.652 390.361 114.799 389.451 114.799C388.58 114.799 387.826 114.661 387.19 114.385C386.554 114.108 386.056 113.716 385.696 113.208C385.336 112.697 385.137 112.091 385.099 111.39H386.861C386.895 111.811 387.031 112.161 387.27 112.441C387.512 112.718 387.821 112.924 388.196 113.061C388.575 113.193 388.989 113.26 389.44 113.26C389.936 113.26 390.378 113.182 390.764 113.027C391.154 112.867 391.461 112.648 391.684 112.367C391.908 112.083 392.02 111.752 392.02 111.373C392.02 111.028 391.921 110.746 391.724 110.527C391.531 110.307 391.268 110.125 390.934 109.981C390.605 109.837 390.232 109.71 389.815 109.6L388.44 109.225C387.508 108.972 386.77 108.599 386.224 108.106C385.683 107.614 385.412 106.962 385.412 106.152C385.412 105.481 385.594 104.896 385.957 104.396C386.321 103.896 386.813 103.508 387.434 103.231C388.056 102.951 388.756 102.811 389.537 102.811C390.325 102.811 391.02 102.949 391.622 103.225C392.228 103.502 392.705 103.883 393.054 104.367C393.402 104.849 393.584 105.402 393.599 106.027H391.906Z" fill="#97E2CF"/>
<path d="M318.513 209V197.364H322.774C323.6 197.364 324.283 197.5 324.825 197.773C325.367 198.042 325.772 198.407 326.041 198.869C326.31 199.328 326.444 199.845 326.444 200.42C326.444 200.905 326.355 201.314 326.177 201.648C325.999 201.977 325.761 202.242 325.461 202.443C325.166 202.64 324.84 202.784 324.484 202.875V202.989C324.87 203.008 325.247 203.133 325.615 203.364C325.986 203.591 326.293 203.915 326.535 204.335C326.778 204.756 326.899 205.267 326.899 205.869C326.899 206.464 326.759 206.998 326.478 207.472C326.202 207.941 325.774 208.314 325.194 208.591C324.615 208.864 323.874 209 322.973 209H318.513ZM320.268 207.494H322.802C323.643 207.494 324.245 207.331 324.609 207.006C324.973 206.68 325.155 206.273 325.155 205.784C325.155 205.417 325.062 205.08 324.876 204.773C324.691 204.466 324.425 204.222 324.081 204.04C323.74 203.858 323.335 203.767 322.865 203.767H320.268V207.494ZM320.268 202.398H322.62C323.014 202.398 323.369 202.322 323.683 202.17C324.001 202.019 324.253 201.807 324.439 201.534C324.628 201.258 324.723 200.932 324.723 200.557C324.723 200.076 324.554 199.672 324.217 199.347C323.88 199.021 323.363 198.858 322.666 198.858H320.268V202.398ZM336.464 197.364H338.226V205.017C338.226 205.831 338.034 206.553 337.652 207.182C337.269 207.807 336.731 208.299 336.038 208.659C335.345 209.015 334.532 209.193 333.601 209.193C332.673 209.193 331.862 209.015 331.169 208.659C330.476 208.299 329.938 207.807 329.555 207.182C329.173 206.553 328.981 205.831 328.981 205.017V197.364H330.737V204.875C330.737 205.402 330.853 205.869 331.084 206.278C331.318 206.688 331.65 207.009 332.078 207.244C332.506 207.475 333.013 207.591 333.601 207.591C334.192 207.591 334.701 207.475 335.129 207.244C335.561 207.009 335.89 206.688 336.118 206.278C336.349 205.869 336.464 205.402 336.464 204.875V197.364ZM340.204 198.875V197.364H349.21V198.875H345.579V209H343.829V198.875H340.204ZM350.626 198.875V197.364H359.632V198.875H356.001V209H354.251V198.875H350.626ZM371.23 203.182C371.23 204.424 371.003 205.492 370.548 206.386C370.094 207.277 369.47 207.962 368.679 208.443C367.891 208.92 366.995 209.159 365.991 209.159C364.984 209.159 364.084 208.92 363.292 208.443C362.504 207.962 361.883 207.275 361.429 206.381C360.974 205.487 360.747 204.42 360.747 203.182C360.747 201.939 360.974 200.873 361.429 199.983C361.883 199.089 362.504 198.403 363.292 197.926C364.084 197.445 364.984 197.205 365.991 197.205C366.995 197.205 367.891 197.445 368.679 197.926C369.47 198.403 370.094 199.089 370.548 199.983C371.003 200.873 371.23 201.939 371.23 203.182ZM369.491 203.182C369.491 202.235 369.338 201.437 369.031 200.79C368.728 200.138 368.311 199.646 367.781 199.312C367.254 198.975 366.658 198.807 365.991 198.807C365.321 198.807 364.722 198.975 364.196 199.312C363.669 199.646 363.253 200.138 362.946 200.79C362.643 201.437 362.491 202.235 362.491 203.182C362.491 204.129 362.643 204.928 362.946 205.58C363.253 206.227 363.669 206.72 364.196 207.057C364.722 207.39 365.321 207.557 365.991 207.557C366.658 207.557 367.254 207.39 367.781 207.057C368.311 206.72 368.728 206.227 369.031 205.58C369.338 204.928 369.491 204.129 369.491 203.182ZM382.811 197.364V209H381.197L375.282 200.466H375.174V209H373.419V197.364H375.044L380.964 205.909H381.072V197.364H382.811ZM391.719 200.42C391.658 199.883 391.408 199.466 390.969 199.17C390.529 198.871 389.976 198.722 389.309 198.722C388.832 198.722 388.419 198.797 388.071 198.949C387.722 199.097 387.451 199.301 387.258 199.562C387.069 199.82 386.974 200.114 386.974 200.443C386.974 200.72 387.039 200.958 387.167 201.159C387.3 201.36 387.472 201.528 387.684 201.665C387.9 201.797 388.131 201.909 388.378 202C388.624 202.087 388.861 202.159 389.088 202.216L390.224 202.511C390.595 202.602 390.976 202.725 391.366 202.881C391.756 203.036 392.118 203.241 392.451 203.494C392.785 203.748 393.054 204.062 393.258 204.438C393.467 204.812 393.571 205.261 393.571 205.784C393.571 206.443 393.4 207.028 393.059 207.54C392.722 208.051 392.232 208.455 391.588 208.75C390.948 209.045 390.173 209.193 389.264 209.193C388.393 209.193 387.639 209.055 387.003 208.778C386.366 208.502 385.868 208.11 385.508 207.602C385.148 207.091 384.95 206.485 384.912 205.784H386.673C386.707 206.205 386.844 206.555 387.082 206.835C387.325 207.112 387.633 207.318 388.008 207.455C388.387 207.587 388.802 207.653 389.253 207.653C389.749 207.653 390.19 207.576 390.576 207.42C390.967 207.261 391.273 207.042 391.497 206.761C391.72 206.477 391.832 206.146 391.832 205.767C391.832 205.422 391.734 205.14 391.537 204.92C391.344 204.701 391.08 204.519 390.747 204.375C390.417 204.231 390.044 204.104 389.628 203.994L388.253 203.619C387.321 203.366 386.582 202.992 386.037 202.5C385.495 202.008 385.224 201.356 385.224 200.545C385.224 199.875 385.406 199.29 385.77 198.79C386.133 198.29 386.626 197.902 387.247 197.625C387.868 197.345 388.569 197.205 389.349 197.205C390.137 197.205 390.832 197.343 391.434 197.619C392.04 197.896 392.518 198.277 392.866 198.761C393.215 199.242 393.397 199.795 393.412 200.42H391.719Z" fill="#97E2CF"/>
<path d="M62.0341 316.364V328H60.2784V316.364H62.0341ZM74.2557 320.148H72.483C72.4148 319.769 72.2879 319.436 72.1023 319.148C71.9167 318.86 71.6894 318.616 71.4205 318.415C71.1515 318.214 70.8504 318.062 70.517 317.96C70.1875 317.858 69.8371 317.807 69.4659 317.807C68.7955 317.807 68.1951 317.975 67.6648 318.312C67.1383 318.65 66.7216 319.144 66.4148 319.795C66.1117 320.447 65.9602 321.242 65.9602 322.182C65.9602 323.129 66.1117 323.928 66.4148 324.58C66.7216 325.231 67.1402 325.723 67.6705 326.057C68.2008 326.39 68.7973 326.557 69.4602 326.557C69.8277 326.557 70.1761 326.508 70.5057 326.409C70.839 326.307 71.1402 326.157 71.4091 325.96C71.678 325.763 71.9053 325.523 72.0909 325.239C72.2803 324.951 72.411 324.621 72.483 324.25L74.2557 324.256C74.161 324.828 73.9773 325.354 73.7045 325.835C73.4356 326.312 73.089 326.725 72.6648 327.074C72.2443 327.419 71.7633 327.686 71.2216 327.875C70.6799 328.064 70.089 328.159 69.4489 328.159C68.4413 328.159 67.5436 327.92 66.7557 327.443C65.9678 326.962 65.3466 326.275 64.892 325.381C64.4413 324.487 64.2159 323.42 64.2159 322.182C64.2159 320.939 64.4432 319.873 64.8977 318.983C65.3523 318.089 65.9735 317.403 66.7614 316.926C67.5492 316.445 68.4451 316.205 69.4489 316.205C70.0663 316.205 70.642 316.294 71.1761 316.472C71.714 316.646 72.197 316.903 72.625 317.244C73.053 317.581 73.4072 317.994 73.6875 318.483C73.9678 318.968 74.1572 319.523 74.2557 320.148ZM86.4645 322.182C86.4645 323.424 86.2372 324.492 85.7827 325.386C85.3281 326.277 84.705 326.962 83.9134 327.443C83.1255 327.92 82.2296 328.159 81.2259 328.159C80.2183 328.159 79.3187 327.92 78.527 327.443C77.7391 326.962 77.1179 326.275 76.6634 325.381C76.2088 324.487 75.9815 323.42 75.9815 322.182C75.9815 320.939 76.2088 319.873 76.6634 318.983C77.1179 318.089 77.7391 317.403 78.527 316.926C79.3187 316.445 80.2183 316.205 81.2259 316.205C82.2296 316.205 83.1255 316.445 83.9134 316.926C84.705 317.403 85.3281 318.089 85.7827 318.983C86.2372 319.873 86.4645 320.939 86.4645 322.182ZM84.7259 322.182C84.7259 321.235 84.5724 320.437 84.2656 319.79C83.9626 319.138 83.5459 318.646 83.0156 318.312C82.4891 317.975 81.8925 317.807 81.2259 317.807C80.5554 317.807 79.9569 317.975 79.4304 318.312C78.9039 318.646 78.4872 319.138 78.1804 319.79C77.8774 320.437 77.7259 321.235 77.7259 322.182C77.7259 323.129 77.8774 323.928 78.1804 324.58C78.4872 325.227 78.9039 325.72 79.4304 326.057C79.9569 326.39 80.5554 326.557 81.2259 326.557C81.8925 326.557 82.4891 326.39 83.0156 326.057C83.5459 325.72 83.9626 325.227 84.2656 324.58C84.5724 323.928 84.7259 323.129 84.7259 322.182ZM98.0455 316.364V328H96.4318L90.517 319.466H90.4091V328H88.6534V316.364H90.2784L96.1989 324.909H96.3068V316.364H98.0455ZM106.953 319.42C106.893 318.883 106.643 318.466 106.203 318.17C105.764 317.871 105.211 317.722 104.544 317.722C104.067 317.722 103.654 317.797 103.305 317.949C102.957 318.097 102.686 318.301 102.493 318.562C102.304 318.82 102.209 319.114 102.209 319.443C102.209 319.72 102.273 319.958 102.402 320.159C102.535 320.36 102.707 320.528 102.919 320.665C103.135 320.797 103.366 320.909 103.612 321C103.858 321.087 104.095 321.159 104.322 321.216L105.459 321.511C105.83 321.602 106.211 321.725 106.601 321.881C106.991 322.036 107.353 322.241 107.686 322.494C108.019 322.748 108.288 323.062 108.493 323.438C108.701 323.812 108.805 324.261 108.805 324.784C108.805 325.443 108.635 326.028 108.294 326.54C107.957 327.051 107.466 327.455 106.822 327.75C106.182 328.045 105.408 328.193 104.499 328.193C103.627 328.193 102.874 328.055 102.237 327.778C101.601 327.502 101.103 327.11 100.743 326.602C100.383 326.091 100.184 325.485 100.146 324.784H101.908C101.942 325.205 102.078 325.555 102.317 325.835C102.559 326.112 102.868 326.318 103.243 326.455C103.622 326.587 104.036 326.653 104.487 326.653C104.983 326.653 105.425 326.576 105.811 326.42C106.201 326.261 106.508 326.042 106.732 325.761C106.955 325.477 107.067 325.146 107.067 324.767C107.067 324.422 106.968 324.14 106.771 323.92C106.578 323.701 106.315 323.519 105.982 323.375C105.652 323.231 105.279 323.104 104.862 322.994L103.487 322.619C102.555 322.366 101.817 321.992 101.271 321.5C100.73 321.008 100.459 320.356 100.459 319.545C100.459 318.875 100.641 318.29 101.004 317.79C101.368 317.29 101.86 316.902 102.482 316.625C103.103 316.345 103.804 316.205 104.584 316.205C105.372 316.205 106.067 316.343 106.669 316.619C107.275 316.896 107.752 317.277 108.101 317.761C108.449 318.242 108.631 318.795 108.646 319.42H106.953Z" fill="#97E2CF"/>
<rect x="317.234" y="122" width="32.6565" height="32.6565" fill="#97E2CF"/>
<rect x="359.221" y="122" width="32.6565" height="32.6565" fill="#5BC6AB"/>
<rect x="401.208" y="122" width="32.6565" height="32.6565" fill="#25987B"/>
<rect x="443.195" y="122" width="32.6565" height="32.6565" fill="#057559"/>
<rect x="47.1521" y="334.533" width="438.696" height="60.814" rx="11.5" stroke="#97E2CF" stroke-linecap="round" stroke-dasharray="10 10"/>
<path fill-rule="evenodd" clip-rule="evenodd" d="M95.6324 358.525V356.193H116.626V358.525H95.6324ZM95.6324 364.357H116.626V362.024H95.6324V364.357ZM95.6324 370.188H116.626V367.856H95.6324V370.188Z" fill="#97E2CF"/>
<path d="M179.606 362.024H165.412L171.932 355.504L170.276 353.86L160.945 363.19L170.276 372.521L171.92 370.876L165.412 364.357H179.606V362.024Z" fill="#97E2CF"/>
<path d="M234.422 353.86L232.778 355.504L239.286 362.024H225.092V364.357H239.286L232.778 370.876L234.422 372.521L243.753 363.19L234.422 353.86Z" fill="#97E2CF"/>
<path d="M293.904 368.054L289.04 363.19L287.384 364.835L293.904 371.354L307.899 357.359L306.255 355.714L293.904 368.054Z" fill="#97E2CF"/>
<path d="M369.713 356.671L368.069 355.026L361.549 361.546L355.03 355.026L353.385 356.671L359.905 363.19L353.385 369.71L355.03 371.354L361.549 364.835L368.069 371.354L369.713 369.71L363.194 363.19L369.713 356.671Z" fill="#97E2CF"/>
<path d="M435.026 364.357H426.862V372.521H424.53V364.357H416.365V362.024H424.53V353.86H426.862V362.024H435.026V364.357Z" fill="#97E2CF"/>
</svg>
