<svg width="540" height="290" viewBox="0 0 540 290" fill="none" xmlns="http://www.w3.org/2000/svg">
<rect width="172" height="32" rx="8" fill="#2A2B5F"/>
<path d="M12.9802 25V20.0198H8V18.4898H12.9802V13.5102H8V11.9802H12.9802V7H14.5102V11.9802H19.4898V7H21.0198V11.9802H26V13.5102H21.0198V18.4898H26V20.0198H21.0198V25H19.4898V20.0198H14.5102V25H12.9802ZM14.5102 18.4898H19.4898V13.5102H14.5102V18.4898Z" fill="#97E2CF"/>
<path d="M37.5511 16.5227V23H35.4276V12.0909H37.4659V13.8665H37.6009C37.8518 13.2888 38.2448 12.8248 38.7798 12.4744C39.3196 12.1241 39.9991 11.9489 40.8182 11.9489C41.5616 11.9489 42.2126 12.1051 42.7713 12.4176C43.33 12.7254 43.7633 13.1847 44.071 13.7955C44.3788 14.4062 44.5327 15.1615 44.5327 16.0611V23H42.4091V16.3168C42.4091 15.526 42.2031 14.9081 41.7912 14.4631C41.3793 14.0133 40.8134 13.7884 40.0938 13.7884C39.6013 13.7884 39.1634 13.8949 38.7798 14.108C38.401 14.321 38.1004 14.6335 37.8778 15.0455C37.66 15.4527 37.5511 15.9451 37.5511 16.5227ZM52.0824 23.2202C51.0076 23.2202 50.0819 22.9905 49.3054 22.5312C48.5336 22.0672 47.937 21.4162 47.5156 20.5781C47.099 19.7353 46.8906 18.7481 46.8906 17.6165C46.8906 16.4991 47.099 15.5142 47.5156 14.6619C47.937 13.8097 48.5241 13.1444 49.277 12.6662C50.0346 12.188 50.92 11.9489 51.9332 11.9489C52.5488 11.9489 53.1454 12.0507 53.723 12.2543C54.3007 12.4579 54.8191 12.7775 55.2784 13.2131C55.7377 13.6487 56.0999 14.2145 56.3651 14.9105C56.6302 15.6018 56.7628 16.4422 56.7628 17.4318V18.1847H48.0909V16.5938H54.6818C54.6818 16.035 54.5682 15.5402 54.3409 15.1094C54.1136 14.6738 53.794 14.3305 53.3821 14.0795C52.9749 13.8286 52.4967 13.7031 51.9474 13.7031C51.3509 13.7031 50.83 13.8499 50.3849 14.1435C49.9446 14.4323 49.6037 14.8111 49.3622 15.2798C49.1255 15.7438 49.0071 16.2481 49.0071 16.7926V18.0355C49.0071 18.7647 49.1349 19.3849 49.3906 19.8963C49.651 20.4077 50.0133 20.7983 50.4773 21.0682C50.9413 21.3333 51.4834 21.4659 52.1037 21.4659C52.5062 21.4659 52.8731 21.4091 53.2045 21.2955C53.536 21.1771 53.8224 21.0019 54.0639 20.7699C54.3054 20.5379 54.4901 20.2514 54.6179 19.9105L56.6278 20.2727C56.4669 20.8646 56.178 21.383 55.7614 21.8281C55.3494 22.2685 54.831 22.6117 54.206 22.858C53.5857 23.0994 52.8778 23.2202 52.0824 23.2202ZM61.4645 23L58.2543 12.0909H60.4489L62.5866 20.1023H62.6932L64.8381 12.0909H67.0327L69.1634 20.0668H69.2699L71.3935 12.0909H73.5881L70.3849 23H68.2188L66.0028 15.1236H65.8395L63.6236 23H61.4645ZM85.1275 8.45455H87.3292V18.0213C87.3292 19.0393 87.0901 19.9413 86.6119 20.7273C86.1336 21.5085 85.4613 22.1241 84.5948 22.5739C83.7283 23.0189 82.7127 23.2415 81.5479 23.2415C80.3879 23.2415 79.3746 23.0189 78.5082 22.5739C77.6417 22.1241 76.9693 21.5085 76.4911 20.7273C76.0129 19.9413 75.7738 19.0393 75.7738 18.0213V8.45455H77.9684V17.8438C77.9684 18.5019 78.1128 19.0866 78.4016 19.598C78.6952 20.1094 79.1095 20.5118 79.6445 20.8054C80.1796 21.0942 80.814 21.2386 81.5479 21.2386C82.2866 21.2386 82.9234 21.0942 83.4585 20.8054C83.9982 20.5118 84.4102 20.1094 84.6942 19.598C84.9831 19.0866 85.1275 18.5019 85.1275 17.8438V8.45455ZM98.5241 14.7543L96.5994 15.0952C96.5189 14.849 96.3911 14.6146 96.2159 14.392C96.0455 14.1695 95.8134 13.9872 95.5199 13.8452C95.2263 13.7031 94.8594 13.6321 94.419 13.6321C93.8177 13.6321 93.3158 13.767 92.9134 14.0369C92.5109 14.3021 92.3097 14.6454 92.3097 15.0668C92.3097 15.4313 92.4446 15.7249 92.7145 15.9474C92.9844 16.17 93.42 16.3523 94.0213 16.4943L95.7543 16.892C96.758 17.1241 97.5062 17.4815 97.9986 17.9645C98.491 18.4474 98.7372 19.0748 98.7372 19.8466C98.7372 20.5 98.5478 21.0824 98.169 21.5938C97.795 22.1004 97.2718 22.4981 96.5994 22.7869C95.9318 23.0758 95.1577 23.2202 94.277 23.2202C93.0554 23.2202 92.0587 22.9598 91.2869 22.4389C90.5152 21.9134 90.0417 21.1676 89.8665 20.2017L91.919 19.8892C92.0469 20.4242 92.3097 20.8291 92.7074 21.1037C93.1051 21.3736 93.6236 21.5085 94.2628 21.5085C94.9588 21.5085 95.5152 21.3641 95.9318 21.0753C96.3485 20.7817 96.5568 20.4242 96.5568 20.0028C96.5568 19.6619 96.429 19.3755 96.1733 19.1435C95.9223 18.9115 95.5365 18.7363 95.0156 18.6179L93.169 18.2131C92.151 17.9811 91.3982 17.6117 90.9105 17.1051C90.4276 16.5985 90.1861 15.9569 90.1861 15.1804C90.1861 14.5365 90.366 13.973 90.7259 13.4901C91.0857 13.0071 91.5829 12.6307 92.2173 12.3608C92.8518 12.0862 93.5786 11.9489 94.3977 11.9489C95.5767 11.9489 96.5047 12.2045 97.1818 12.7159C97.8589 13.2225 98.3063 13.902 98.5241 14.7543ZM105.774 23.2202C104.699 23.2202 103.773 22.9905 102.997 22.5312C102.225 22.0672 101.628 21.4162 101.207 20.5781C100.79 19.7353 100.582 18.7481 100.582 17.6165C100.582 16.4991 100.79 15.5142 101.207 14.6619C101.628 13.8097 102.216 13.1444 102.968 12.6662C103.726 12.188 104.611 11.9489 105.625 11.9489C106.24 11.9489 106.837 12.0507 107.414 12.2543C107.992 12.4579 108.511 12.7775 108.97 13.2131C109.429 13.6487 109.791 14.2145 110.056 14.9105C110.322 15.6018 110.454 16.4422 110.454 17.4318V18.1847H101.782V16.5938H108.373C108.373 16.035 108.26 15.5402 108.032 15.1094C107.805 14.6738 107.485 14.3305 107.074 14.0795C106.666 13.8286 106.188 13.7031 105.639 13.7031C105.042 13.7031 104.521 13.8499 104.076 14.1435C103.636 14.4323 103.295 14.8111 103.054 15.2798C102.817 15.7438 102.699 16.2481 102.699 16.7926V18.0355C102.699 18.7647 102.826 19.3849 103.082 19.8963C103.342 20.4077 103.705 20.7983 104.169 21.0682C104.633 21.3333 105.175 21.4659 105.795 21.4659C106.198 21.4659 106.565 21.4091 106.896 21.2955C107.227 21.1771 107.514 21.0019 107.755 20.7699C107.997 20.5379 108.181 20.2514 108.309 19.9105L110.319 20.2727C110.158 20.8646 109.869 21.383 109.453 21.8281C109.041 22.2685 108.522 22.6117 107.897 22.858C107.277 23.0994 106.569 23.2202 105.774 23.2202ZM112.81 23V12.0909H114.863V13.8239H114.977C115.175 13.2367 115.526 12.7751 116.028 12.4389C116.534 12.098 117.107 11.9276 117.746 11.9276C117.879 11.9276 118.035 11.9323 118.215 11.9418C118.4 11.9512 118.544 11.9631 118.648 11.9773V14.0085C118.563 13.9848 118.412 13.9588 118.194 13.9304C117.976 13.8973 117.758 13.8807 117.54 13.8807C117.039 13.8807 116.591 13.9872 116.198 14.2003C115.81 14.4086 115.502 14.6998 115.275 15.0739C115.048 15.4432 114.934 15.8646 114.934 16.3381V23H112.81ZM120.657 23V8.45455H129.676V10.3438H122.851V14.7756H129.03V16.6577H122.851V23H120.657ZM134.328 8.45455V23H132.205V8.45455H134.328ZM141.781 23.2202C140.758 23.2202 139.865 22.9858 139.103 22.517C138.341 22.0483 137.749 21.3925 137.327 20.5497C136.906 19.7069 136.695 18.7221 136.695 17.5952C136.695 16.4635 136.906 15.474 137.327 14.6264C137.749 13.7789 138.341 13.1207 139.103 12.652C139.865 12.1832 140.758 11.9489 141.781 11.9489C142.803 11.9489 143.696 12.1832 144.458 12.652C145.22 13.1207 145.812 13.7789 146.234 14.6264C146.655 15.474 146.866 16.4635 146.866 17.5952C146.866 18.7221 146.655 19.7069 146.234 20.5497C145.812 21.3925 145.22 22.0483 144.458 22.517C143.696 22.9858 142.803 23.2202 141.781 23.2202ZM141.788 21.4375C142.451 21.4375 143 21.2623 143.435 20.9119C143.871 20.5616 144.193 20.0952 144.401 19.5128C144.614 18.9304 144.721 18.2888 144.721 17.5881C144.721 16.892 144.614 16.2528 144.401 15.6705C144.193 15.0833 143.871 14.6122 143.435 14.2571C143 13.902 142.451 13.7244 141.788 13.7244C141.12 13.7244 140.566 13.902 140.126 14.2571C139.69 14.6122 139.366 15.0833 139.153 15.6705C138.944 16.2528 138.84 16.892 138.84 17.5881C138.84 18.2888 138.944 18.9304 139.153 19.5128C139.366 20.0952 139.69 20.5616 140.126 20.9119C140.566 21.2623 141.12 21.4375 141.788 21.4375ZM151.269 23L148.059 12.0909H150.254L152.391 20.1023H152.498L154.643 12.0909H156.837L158.968 20.0668H159.075L161.198 12.0909H163.393L160.19 23H158.023L155.808 15.1236H155.644L153.428 23H151.269Z" fill="#97E2CF"/>
<rect x="0.5" y="47.5" width="539" height="242" stroke="#97E2CF"/>
<rect x="172" y="142" width="96" height="28" rx="14" fill="#97E2CF"/>
<path d="M194.924 162.112C194.188 162.112 193.527 161.984 192.94 161.728C192.364 161.461 191.911 161.099 191.58 160.64C191.25 160.171 191.079 159.632 191.068 159.024H192.62C192.674 159.547 192.887 159.989 193.26 160.352C193.644 160.704 194.199 160.88 194.924 160.88C195.618 160.88 196.162 160.709 196.556 160.368C196.962 160.016 197.164 159.568 197.164 159.024C197.164 158.597 197.047 158.251 196.812 157.984C196.578 157.717 196.284 157.515 195.932 157.376C195.58 157.237 195.106 157.088 194.508 156.928C193.772 156.736 193.18 156.544 192.732 156.352C192.295 156.16 191.916 155.861 191.596 155.456C191.287 155.04 191.132 154.485 191.132 153.792C191.132 153.184 191.287 152.645 191.596 152.176C191.906 151.707 192.338 151.344 192.892 151.088C193.458 150.832 194.103 150.704 194.828 150.704C195.874 150.704 196.727 150.965 197.388 151.488C198.06 152.011 198.439 152.704 198.524 153.568H196.924C196.871 153.141 196.647 152.768 196.252 152.448C195.858 152.117 195.335 151.952 194.684 151.952C194.076 151.952 193.58 152.112 193.196 152.432C192.812 152.741 192.62 153.179 192.62 153.744C192.62 154.149 192.732 154.48 192.956 154.736C193.191 154.992 193.474 155.189 193.804 155.328C194.146 155.456 194.62 155.605 195.228 155.776C195.964 155.979 196.556 156.181 197.004 156.384C197.452 156.576 197.836 156.88 198.156 157.296C198.476 157.701 198.636 158.256 198.636 158.96C198.636 159.504 198.492 160.016 198.204 160.496C197.916 160.976 197.49 161.365 196.924 161.664C196.359 161.963 195.692 162.112 194.924 162.112ZM201.531 151.808C201.254 151.808 201.019 151.712 200.827 151.52C200.635 151.328 200.539 151.093 200.539 150.816C200.539 150.539 200.635 150.304 200.827 150.112C201.019 149.92 201.254 149.824 201.531 149.824C201.798 149.824 202.022 149.92 202.203 150.112C202.395 150.304 202.491 150.539 202.491 150.816C202.491 151.093 202.395 151.328 202.203 151.52C202.022 151.712 201.798 151.808 201.531 151.808ZM202.235 153.232V162H200.779V153.232H202.235ZM208.332 153.088C209.09 153.088 209.751 153.253 210.316 153.584C210.892 153.915 211.319 154.331 211.596 154.832V153.232H213.068V162.192C213.068 162.992 212.898 163.701 212.556 164.32C212.215 164.949 211.724 165.44 211.084 165.792C210.455 166.144 209.719 166.32 208.876 166.32C207.724 166.32 206.764 166.048 205.996 165.504C205.228 164.96 204.775 164.219 204.636 163.28H206.076C206.236 163.813 206.567 164.24 207.068 164.56C207.57 164.891 208.172 165.056 208.876 165.056C209.676 165.056 210.327 164.805 210.828 164.304C211.34 163.803 211.596 163.099 211.596 162.192V160.352C211.308 160.864 210.882 161.291 210.316 161.632C209.751 161.973 209.09 162.144 208.332 162.144C207.554 162.144 206.844 161.952 206.204 161.568C205.575 161.184 205.079 160.645 204.716 159.952C204.354 159.259 204.172 158.469 204.172 157.584C204.172 156.688 204.354 155.904 204.716 155.232C205.079 154.549 205.575 154.021 206.204 153.648C206.844 153.275 207.554 153.088 208.332 153.088ZM211.596 157.6C211.596 156.939 211.463 156.363 211.196 155.872C210.93 155.381 210.567 155.008 210.108 154.752C209.66 154.485 209.164 154.352 208.62 154.352C208.076 154.352 207.58 154.48 207.132 154.736C206.684 154.992 206.327 155.365 206.06 155.856C205.794 156.347 205.66 156.923 205.66 157.584C205.66 158.256 205.794 158.843 206.06 159.344C206.327 159.835 206.684 160.213 207.132 160.48C207.58 160.736 208.076 160.864 208.62 160.864C209.164 160.864 209.66 160.736 210.108 160.48C210.567 160.213 210.93 159.835 211.196 159.344C211.463 158.843 211.596 158.261 211.596 157.6ZM219.801 153.072C220.868 153.072 221.732 153.397 222.393 154.048C223.054 154.688 223.385 155.616 223.385 156.832V162H221.945V157.04C221.945 156.165 221.726 155.499 221.289 155.04C220.852 154.571 220.254 154.336 219.497 154.336C218.729 154.336 218.116 154.576 217.657 155.056C217.209 155.536 216.985 156.235 216.985 157.152V162H215.529V153.232H216.985V154.48C217.273 154.032 217.662 153.685 218.153 153.44C218.654 153.195 219.204 153.072 219.801 153.072ZM237.805 153.232V162H236.349V160.704C236.072 161.152 235.682 161.504 235.181 161.76C234.69 162.005 234.146 162.128 233.549 162.128C232.866 162.128 232.253 161.989 231.709 161.712C231.165 161.424 230.733 160.997 230.413 160.432C230.104 159.867 229.949 159.179 229.949 158.368V153.232H231.389V158.176C231.389 159.04 231.608 159.707 232.045 160.176C232.482 160.635 233.08 160.864 233.837 160.864C234.616 160.864 235.229 160.624 235.677 160.144C236.125 159.664 236.349 158.965 236.349 158.048V153.232H237.805ZM241.719 154.848C242.007 154.347 242.434 153.931 242.999 153.6C243.575 153.259 244.242 153.088 244.999 153.088C245.778 153.088 246.482 153.275 247.111 153.648C247.751 154.021 248.253 154.549 248.615 155.232C248.978 155.904 249.159 156.688 249.159 157.584C249.159 158.469 248.978 159.259 248.615 159.952C248.253 160.645 247.751 161.184 247.111 161.568C246.482 161.952 245.778 162.144 244.999 162.144C244.253 162.144 243.591 161.979 243.015 161.648C242.45 161.307 242.018 160.885 241.719 160.384V166.16H240.263V153.232H241.719V154.848ZM247.671 157.584C247.671 156.923 247.538 156.347 247.271 155.856C247.005 155.365 246.642 154.992 246.183 154.736C245.735 154.48 245.239 154.352 244.695 154.352C244.162 154.352 243.666 154.485 243.207 154.752C242.759 155.008 242.397 155.387 242.119 155.888C241.853 156.379 241.719 156.949 241.719 157.6C241.719 158.261 241.853 158.843 242.119 159.344C242.397 159.835 242.759 160.213 243.207 160.48C243.666 160.736 244.162 160.864 244.695 160.864C245.239 160.864 245.735 160.736 246.183 160.48C246.642 160.213 247.005 159.835 247.271 159.344C247.538 158.843 247.671 158.256 247.671 157.584Z" fill="black"/>
<rect x="172" y="189" width="89" height="28" rx="14" fill="#97E2CF"/>
<path d="M194.862 209.112C194.126 209.112 193.464 208.984 192.878 208.728C192.302 208.461 191.848 208.099 191.518 207.64C191.187 207.171 191.016 206.632 191.006 206.024H192.558C192.611 206.547 192.824 206.989 193.198 207.352C193.582 207.704 194.136 207.88 194.862 207.88C195.555 207.88 196.099 207.709 196.494 207.368C196.899 207.016 197.102 206.568 197.102 206.024C197.102 205.597 196.984 205.251 196.75 204.984C196.515 204.717 196.222 204.515 195.87 204.376C195.518 204.237 195.043 204.088 194.446 203.928C193.71 203.736 193.118 203.544 192.67 203.352C192.232 203.16 191.854 202.861 191.534 202.456C191.224 202.04 191.07 201.485 191.07 200.792C191.07 200.184 191.224 199.645 191.534 199.176C191.843 198.707 192.275 198.344 192.83 198.088C193.395 197.832 194.04 197.704 194.766 197.704C195.811 197.704 196.664 197.965 197.326 198.488C197.998 199.011 198.376 199.704 198.462 200.568H196.862C196.808 200.141 196.584 199.768 196.19 199.448C195.795 199.117 195.272 198.952 194.622 198.952C194.014 198.952 193.518 199.112 193.134 199.432C192.75 199.741 192.558 200.179 192.558 200.744C192.558 201.149 192.67 201.48 192.894 201.736C193.128 201.992 193.411 202.189 193.742 202.328C194.083 202.456 194.558 202.605 195.166 202.776C195.902 202.979 196.494 203.181 196.942 203.384C197.39 203.576 197.774 203.88 198.094 204.296C198.414 204.701 198.574 205.256 198.574 205.96C198.574 206.504 198.43 207.016 198.142 207.496C197.854 207.976 197.427 208.365 196.862 208.664C196.296 208.963 195.63 209.112 194.862 209.112ZM201.468 198.808C201.191 198.808 200.956 198.712 200.764 198.52C200.572 198.328 200.476 198.093 200.476 197.816C200.476 197.539 200.572 197.304 200.764 197.112C200.956 196.92 201.191 196.824 201.468 196.824C201.735 196.824 201.959 196.92 202.14 197.112C202.332 197.304 202.428 197.539 202.428 197.816C202.428 198.093 202.332 198.328 202.14 198.52C201.959 198.712 201.735 198.808 201.468 198.808ZM202.172 200.232V209H200.716V200.232H202.172ZM208.27 200.088C209.027 200.088 209.689 200.253 210.254 200.584C210.83 200.915 211.257 201.331 211.534 201.832V200.232H213.006V209.192C213.006 209.992 212.835 210.701 212.494 211.32C212.153 211.949 211.662 212.44 211.022 212.792C210.393 213.144 209.657 213.32 208.814 213.32C207.662 213.32 206.702 213.048 205.934 212.504C205.166 211.96 204.713 211.219 204.574 210.28H206.014C206.174 210.813 206.505 211.24 207.006 211.56C207.507 211.891 208.11 212.056 208.814 212.056C209.614 212.056 210.265 211.805 210.766 211.304C211.278 210.803 211.534 210.099 211.534 209.192V207.352C211.246 207.864 210.819 208.291 210.254 208.632C209.689 208.973 209.027 209.144 208.27 209.144C207.491 209.144 206.782 208.952 206.142 208.568C205.513 208.184 205.017 207.645 204.654 206.952C204.291 206.259 204.11 205.469 204.11 204.584C204.11 203.688 204.291 202.904 204.654 202.232C205.017 201.549 205.513 201.021 206.142 200.648C206.782 200.275 207.491 200.088 208.27 200.088ZM211.534 204.6C211.534 203.939 211.401 203.363 211.134 202.872C210.867 202.381 210.505 202.008 210.046 201.752C209.598 201.485 209.102 201.352 208.558 201.352C208.014 201.352 207.518 201.48 207.07 201.736C206.622 201.992 206.265 202.365 205.998 202.856C205.731 203.347 205.598 203.923 205.598 204.584C205.598 205.256 205.731 205.843 205.998 206.344C206.265 206.835 206.622 207.213 207.07 207.48C207.518 207.736 208.014 207.864 208.558 207.864C209.102 207.864 209.598 207.736 210.046 207.48C210.505 207.213 210.867 206.835 211.134 206.344C211.401 205.843 211.534 205.261 211.534 204.6ZM219.738 200.072C220.805 200.072 221.669 200.397 222.33 201.048C222.992 201.688 223.322 202.616 223.322 203.832V209H221.882V204.04C221.882 203.165 221.664 202.499 221.226 202.04C220.789 201.571 220.192 201.336 219.434 201.336C218.666 201.336 218.053 201.576 217.594 202.056C217.146 202.536 216.922 203.235 216.922 204.152V209H215.466V200.232H216.922V201.48C217.21 201.032 217.6 200.685 218.09 200.44C218.592 200.195 219.141 200.072 219.738 200.072ZM230.718 198.808C230.441 198.808 230.206 198.712 230.014 198.52C229.822 198.328 229.726 198.093 229.726 197.816C229.726 197.539 229.822 197.304 230.014 197.112C230.206 196.92 230.441 196.824 230.718 196.824C230.985 196.824 231.209 196.92 231.39 197.112C231.582 197.304 231.678 197.539 231.678 197.816C231.678 198.093 231.582 198.328 231.39 198.52C231.209 198.712 230.985 198.808 230.718 198.808ZM231.422 200.232V209H229.966V200.232H231.422ZM238.176 200.072C239.243 200.072 240.107 200.397 240.768 201.048C241.429 201.688 241.76 202.616 241.76 203.832V209H240.32V204.04C240.32 203.165 240.101 202.499 239.664 202.04C239.227 201.571 238.629 201.336 237.872 201.336C237.104 201.336 236.491 201.576 236.032 202.056C235.584 202.536 235.36 203.235 235.36 204.152V209H233.904V200.232H235.36V201.48C235.648 201.032 236.037 200.685 236.528 200.44C237.029 200.195 237.579 200.072 238.176 200.072Z" fill="black"/>
<rect x="294" y="142" width="112" height="28" rx="14" fill="#97E2CF"/>
<path d="M327.334 150.848L324.102 162H322.47L319.878 153.024L317.19 162L315.574 162.016L312.454 150.848H314.006L316.438 160.304L319.126 150.848H320.758L323.318 160.272L325.766 150.848H327.334ZM336.927 157.28C336.927 157.557 336.911 157.851 336.879 158.16H329.871C329.925 159.024 330.218 159.701 330.751 160.192C331.295 160.672 331.951 160.912 332.719 160.912C333.349 160.912 333.871 160.768 334.287 160.48C334.714 160.181 335.013 159.787 335.183 159.296H336.751C336.517 160.139 336.047 160.827 335.343 161.36C334.639 161.883 333.765 162.144 332.719 162.144C331.887 162.144 331.141 161.957 330.479 161.584C329.829 161.211 329.317 160.683 328.943 160C328.57 159.307 328.383 158.507 328.383 157.6C328.383 156.693 328.565 155.899 328.927 155.216C329.29 154.533 329.797 154.011 330.447 153.648C331.109 153.275 331.866 153.088 332.719 153.088C333.551 153.088 334.287 153.269 334.927 153.632C335.567 153.995 336.058 154.496 336.399 155.136C336.751 155.765 336.927 156.48 336.927 157.28ZM335.423 156.976C335.423 156.421 335.301 155.947 335.055 155.552C334.81 155.147 334.474 154.843 334.047 154.64C333.631 154.427 333.167 154.32 332.655 154.32C331.919 154.32 331.29 154.555 330.767 155.024C330.255 155.493 329.962 156.144 329.887 156.976H335.423ZM340.305 150.16V162H338.849V150.16H340.305ZM342.243 157.6C342.243 156.693 342.424 155.904 342.787 155.232C343.149 154.549 343.651 154.021 344.291 153.648C344.941 153.275 345.683 153.088 346.515 153.088C347.592 153.088 348.477 153.349 349.171 153.872C349.875 154.395 350.339 155.12 350.563 156.048H348.995C348.845 155.515 348.552 155.093 348.115 154.784C347.688 154.475 347.155 154.32 346.515 154.32C345.683 154.32 345.011 154.608 344.499 155.184C343.987 155.749 343.731 156.555 343.731 157.6C343.731 158.656 343.987 159.472 344.499 160.048C345.011 160.624 345.683 160.912 346.515 160.912C347.155 160.912 347.688 160.763 348.115 160.464C348.541 160.165 348.835 159.739 348.995 159.184H350.563C350.328 160.08 349.859 160.8 349.155 161.344C348.451 161.877 347.571 162.144 346.515 162.144C345.683 162.144 344.941 161.957 344.291 161.584C343.651 161.211 343.149 160.683 342.787 160C342.424 159.317 342.243 158.517 342.243 157.6ZM356.329 162.144C355.508 162.144 354.761 161.957 354.089 161.584C353.428 161.211 352.905 160.683 352.521 160C352.148 159.307 351.961 158.507 351.961 157.6C351.961 156.704 352.153 155.915 352.537 155.232C352.932 154.539 353.465 154.011 354.137 153.648C354.809 153.275 355.561 153.088 356.393 153.088C357.225 153.088 357.977 153.275 358.649 153.648C359.321 154.011 359.849 154.533 360.233 155.216C360.628 155.899 360.825 156.693 360.825 157.6C360.825 158.507 360.623 159.307 360.217 160C359.823 160.683 359.284 161.211 358.601 161.584C357.919 161.957 357.161 162.144 356.329 162.144ZM356.329 160.864C356.852 160.864 357.343 160.741 357.801 160.496C358.26 160.251 358.628 159.883 358.905 159.392C359.193 158.901 359.337 158.304 359.337 157.6C359.337 156.896 359.199 156.299 358.921 155.808C358.644 155.317 358.281 154.955 357.833 154.72C357.385 154.475 356.9 154.352 356.377 154.352C355.844 154.352 355.353 154.475 354.905 154.72C354.468 154.955 354.116 155.317 353.849 155.808C353.583 156.299 353.449 156.896 353.449 157.6C353.449 158.315 353.577 158.917 353.833 159.408C354.1 159.899 354.452 160.267 354.889 160.512C355.327 160.747 355.807 160.864 356.329 160.864ZM373.284 153.072C373.966 153.072 374.574 153.216 375.108 153.504C375.641 153.781 376.062 154.203 376.372 154.768C376.681 155.333 376.836 156.021 376.836 156.832V162H375.396V157.04C375.396 156.165 375.177 155.499 374.74 155.04C374.313 154.571 373.732 154.336 372.996 154.336C372.238 154.336 371.636 154.581 371.188 155.072C370.74 155.552 370.516 156.251 370.516 157.168V162H369.076V157.04C369.076 156.165 368.857 155.499 368.42 155.04C367.993 154.571 367.412 154.336 366.676 154.336C365.918 154.336 365.316 154.581 364.868 155.072C364.42 155.552 364.196 156.251 364.196 157.168V162H362.74V153.232H364.196V154.496C364.484 154.037 364.868 153.685 365.348 153.44C365.838 153.195 366.377 153.072 366.964 153.072C367.7 153.072 368.35 153.237 368.916 153.568C369.481 153.899 369.902 154.384 370.18 155.024C370.425 154.405 370.83 153.925 371.396 153.584C371.961 153.243 372.59 153.072 373.284 153.072ZM387.224 157.28C387.224 157.557 387.208 157.851 387.176 158.16H380.168C380.222 159.024 380.515 159.701 381.048 160.192C381.592 160.672 382.248 160.912 383.016 160.912C383.646 160.912 384.168 160.768 384.584 160.48C385.011 160.181 385.31 159.787 385.48 159.296H387.048C386.814 160.139 386.344 160.827 385.64 161.36C384.936 161.883 384.062 162.144 383.016 162.144C382.184 162.144 381.438 161.957 380.776 161.584C380.126 161.211 379.614 160.683 379.24 160C378.867 159.307 378.68 158.507 378.68 157.6C378.68 156.693 378.862 155.899 379.224 155.216C379.587 154.533 380.094 154.011 380.744 153.648C381.406 153.275 382.163 153.088 383.016 153.088C383.848 153.088 384.584 153.269 385.224 153.632C385.864 153.995 386.355 154.496 386.696 155.136C387.048 155.765 387.224 156.48 387.224 157.28ZM385.72 156.976C385.72 156.421 385.598 155.947 385.352 155.552C385.107 155.147 384.771 154.843 384.344 154.64C383.928 154.427 383.464 154.32 382.952 154.32C382.216 154.32 381.587 154.555 381.064 155.024C380.552 155.493 380.259 156.144 380.184 156.976H385.72Z" fill="black"/>
<rect x="430" y="142" width="96" height="28" rx="14" fill="#97E2CF"/>
<path d="M456.291 150.848V152.032H453.251V162H451.795V152.032H448.739V150.848H456.291ZM465.86 153.232V162H464.404V160.704C464.126 161.152 463.737 161.504 463.236 161.76C462.745 162.005 462.201 162.128 461.604 162.128C460.921 162.128 460.308 161.989 459.764 161.712C459.22 161.424 458.788 160.997 458.468 160.432C458.158 159.867 458.004 159.179 458.004 158.368V153.232H459.444V158.176C459.444 159.04 459.662 159.707 460.1 160.176C460.537 160.635 461.134 160.864 461.892 160.864C462.67 160.864 463.284 160.624 463.732 160.144C464.18 159.664 464.404 158.965 464.404 158.048V153.232H465.86ZM470.094 154.432V159.6C470.094 160.027 470.185 160.331 470.366 160.512C470.547 160.683 470.862 160.768 471.31 160.768H472.382V162H471.07C470.259 162 469.651 161.813 469.246 161.44C468.841 161.067 468.638 160.453 468.638 159.6V154.432H467.502V153.232H468.638V151.024H470.094V153.232H472.382V154.432H470.094ZM477.97 162.144C477.149 162.144 476.402 161.957 475.73 161.584C475.069 161.211 474.546 160.683 474.162 160C473.789 159.307 473.602 158.507 473.602 157.6C473.602 156.704 473.794 155.915 474.178 155.232C474.573 154.539 475.106 154.011 475.778 153.648C476.45 153.275 477.202 153.088 478.034 153.088C478.866 153.088 479.618 153.275 480.29 153.648C480.962 154.011 481.49 154.533 481.874 155.216C482.269 155.899 482.466 156.693 482.466 157.6C482.466 158.507 482.263 159.307 481.858 160C481.463 160.683 480.925 161.211 480.242 161.584C479.559 161.957 478.802 162.144 477.97 162.144ZM477.97 160.864C478.493 160.864 478.983 160.741 479.442 160.496C479.901 160.251 480.269 159.883 480.546 159.392C480.834 158.901 480.978 158.304 480.978 157.6C480.978 156.896 480.839 156.299 480.562 155.808C480.285 155.317 479.922 154.955 479.474 154.72C479.026 154.475 478.541 154.352 478.018 154.352C477.485 154.352 476.994 154.475 476.546 154.72C476.109 154.955 475.757 155.317 475.49 155.808C475.223 156.299 475.09 156.896 475.09 157.6C475.09 158.315 475.218 158.917 475.474 159.408C475.741 159.899 476.093 160.267 476.53 160.512C476.967 160.747 477.447 160.864 477.97 160.864ZM485.836 154.656C486.092 154.155 486.455 153.765 486.924 153.488C487.404 153.211 487.986 153.072 488.668 153.072V154.576H488.284C486.652 154.576 485.836 155.461 485.836 157.232V162H484.38V153.232H485.836V154.656ZM491.101 151.808C490.824 151.808 490.589 151.712 490.397 151.52C490.205 151.328 490.109 151.093 490.109 150.816C490.109 150.539 490.205 150.304 490.397 150.112C490.589 149.92 490.824 149.824 491.101 149.824C491.368 149.824 491.592 149.92 491.773 150.112C491.965 150.304 492.061 150.539 492.061 150.816C492.061 151.093 491.965 151.328 491.773 151.52C491.592 151.712 491.368 151.808 491.101 151.808ZM491.805 153.232V162H490.349V153.232H491.805ZM493.743 157.584C493.743 156.688 493.924 155.904 494.287 155.232C494.649 154.549 495.145 154.021 495.775 153.648C496.415 153.275 497.124 153.088 497.903 153.088C498.671 153.088 499.337 153.253 499.903 153.584C500.468 153.915 500.889 154.331 501.167 154.832V153.232H502.639V162H501.167V160.368C500.879 160.88 500.447 161.307 499.871 161.648C499.305 161.979 498.644 162.144 497.887 162.144C497.108 162.144 496.404 161.952 495.775 161.568C495.145 161.184 494.649 160.645 494.287 159.952C493.924 159.259 493.743 158.469 493.743 157.584ZM501.167 157.6C501.167 156.939 501.033 156.363 500.767 155.872C500.5 155.381 500.137 155.008 499.679 154.752C499.231 154.485 498.735 154.352 498.191 154.352C497.647 154.352 497.151 154.48 496.703 154.736C496.255 154.992 495.897 155.365 495.631 155.856C495.364 156.347 495.231 156.923 495.231 157.584C495.231 158.256 495.364 158.843 495.631 159.344C495.897 159.835 496.255 160.213 496.703 160.48C497.151 160.736 497.647 160.864 498.191 160.864C498.735 160.864 499.231 160.736 499.679 160.48C500.137 160.213 500.5 159.835 500.767 159.344C501.033 158.843 501.167 158.261 501.167 157.6ZM506.555 150.16V162H505.099V150.16H506.555Z" fill="black"/>
<rect x="399" y="251" width="127" height="28" rx="14" fill="#97E2CF"/>
<path d="M427.285 259.848V271H425.829V265.944H420.149V271H418.693V259.848H420.149V264.744H425.829V259.848H427.285ZM433.595 271.144C432.774 271.144 432.027 270.957 431.355 270.584C430.694 270.211 430.171 269.683 429.787 269C429.414 268.307 429.227 267.507 429.227 266.6C429.227 265.704 429.419 264.915 429.803 264.232C430.198 263.539 430.731 263.011 431.403 262.648C432.075 262.275 432.827 262.088 433.659 262.088C434.491 262.088 435.243 262.275 435.915 262.648C436.587 263.011 437.115 263.533 437.499 264.216C437.894 264.899 438.091 265.693 438.091 266.6C438.091 267.507 437.888 268.307 437.483 269C437.088 269.683 436.55 270.211 435.867 270.584C435.184 270.957 434.427 271.144 433.595 271.144ZM433.595 269.864C434.118 269.864 434.608 269.741 435.067 269.496C435.526 269.251 435.894 268.883 436.171 268.392C436.459 267.901 436.603 267.304 436.603 266.6C436.603 265.896 436.464 265.299 436.187 264.808C435.91 264.317 435.547 263.955 435.099 263.72C434.651 263.475 434.166 263.352 433.643 263.352C433.11 263.352 432.619 263.475 432.171 263.72C431.734 263.955 431.382 264.317 431.115 264.808C430.848 265.299 430.715 265.896 430.715 266.6C430.715 267.315 430.843 267.917 431.099 268.408C431.366 268.899 431.718 269.267 432.155 269.512C432.592 269.747 433.072 269.864 433.595 269.864ZM450.549 262.072C451.232 262.072 451.84 262.216 452.373 262.504C452.907 262.781 453.328 263.203 453.637 263.768C453.947 264.333 454.101 265.021 454.101 265.832V271H452.661V266.04C452.661 265.165 452.443 264.499 452.005 264.04C451.579 263.571 450.997 263.336 450.261 263.336C449.504 263.336 448.901 263.581 448.453 264.072C448.005 264.552 447.781 265.251 447.781 266.168V271H446.341V266.04C446.341 265.165 446.123 264.499 445.685 264.04C445.259 263.571 444.677 263.336 443.941 263.336C443.184 263.336 442.581 263.581 442.133 264.072C441.685 264.552 441.461 265.251 441.461 266.168V271H440.005V262.232H441.461V263.496C441.749 263.037 442.133 262.685 442.613 262.44C443.104 262.195 443.643 262.072 444.229 262.072C444.965 262.072 445.616 262.237 446.181 262.568C446.747 262.899 447.168 263.384 447.445 264.024C447.691 263.405 448.096 262.925 448.661 262.584C449.227 262.243 449.856 262.072 450.549 262.072ZM464.49 266.28C464.49 266.557 464.474 266.851 464.442 267.16H457.434C457.487 268.024 457.78 268.701 458.314 269.192C458.858 269.672 459.514 269.912 460.282 269.912C460.911 269.912 461.434 269.768 461.85 269.48C462.276 269.181 462.575 268.787 462.746 268.296H464.314C464.079 269.139 463.61 269.827 462.906 270.36C462.202 270.883 461.327 271.144 460.282 271.144C459.45 271.144 458.703 270.957 458.042 270.584C457.391 270.211 456.879 269.683 456.506 269C456.132 268.307 455.946 267.507 455.946 266.6C455.946 265.693 456.127 264.899 456.49 264.216C456.852 263.533 457.359 263.011 458.01 262.648C458.671 262.275 459.428 262.088 460.282 262.088C461.114 262.088 461.85 262.269 462.49 262.632C463.13 262.995 463.62 263.496 463.962 264.136C464.314 264.765 464.49 265.48 464.49 266.28ZM462.986 265.976C462.986 265.421 462.863 264.947 462.618 264.552C462.372 264.147 462.036 263.843 461.61 263.64C461.194 263.427 460.73 263.32 460.218 263.32C459.482 263.32 458.852 263.555 458.33 264.024C457.818 264.493 457.524 265.144 457.45 265.976H462.986ZM467.868 263.848C468.156 263.347 468.582 262.931 469.148 262.6C469.724 262.259 470.39 262.088 471.148 262.088C471.926 262.088 472.63 262.275 473.26 262.648C473.9 263.021 474.401 263.549 474.764 264.232C475.126 264.904 475.308 265.688 475.308 266.584C475.308 267.469 475.126 268.259 474.764 268.952C474.401 269.645 473.9 270.184 473.26 270.568C472.63 270.952 471.926 271.144 471.148 271.144C470.401 271.144 469.74 270.979 469.164 270.648C468.598 270.307 468.166 269.885 467.868 269.384V275.16H466.412V262.232H467.868V263.848ZM473.82 266.584C473.82 265.923 473.686 265.347 473.42 264.856C473.153 264.365 472.79 263.992 472.332 263.736C471.884 263.48 471.388 263.352 470.844 263.352C470.31 263.352 469.814 263.485 469.356 263.752C468.908 264.008 468.545 264.387 468.268 264.888C468.001 265.379 467.868 265.949 467.868 266.6C467.868 267.261 468.001 267.843 468.268 268.344C468.545 268.835 468.908 269.213 469.356 269.48C469.814 269.736 470.31 269.864 470.844 269.864C471.388 269.864 471.884 269.736 472.332 269.48C472.79 269.213 473.153 268.835 473.42 268.344C473.686 267.843 473.82 267.256 473.82 266.584ZM476.68 266.584C476.68 265.688 476.862 264.904 477.224 264.232C477.587 263.549 478.083 263.021 478.712 262.648C479.352 262.275 480.062 262.088 480.84 262.088C481.608 262.088 482.275 262.253 482.84 262.584C483.406 262.915 483.827 263.331 484.104 263.832V262.232H485.576V271H484.104V269.368C483.816 269.88 483.384 270.307 482.808 270.648C482.243 270.979 481.582 271.144 480.824 271.144C480.046 271.144 479.342 270.952 478.712 270.568C478.083 270.184 477.587 269.645 477.224 268.952C476.862 268.259 476.68 267.469 476.68 266.584ZM484.104 266.6C484.104 265.939 483.971 265.363 483.704 264.872C483.438 264.381 483.075 264.008 482.616 263.752C482.168 263.485 481.672 263.352 481.128 263.352C480.584 263.352 480.088 263.48 479.64 263.736C479.192 263.992 478.835 264.365 478.568 264.856C478.302 265.347 478.168 265.923 478.168 266.584C478.168 267.256 478.302 267.843 478.568 268.344C478.835 268.835 479.192 269.213 479.64 269.48C480.088 269.736 480.584 269.864 481.128 269.864C481.672 269.864 482.168 269.736 482.616 269.48C483.075 269.213 483.438 268.835 483.704 268.344C483.971 267.843 484.104 267.261 484.104 266.6ZM491.653 262.088C492.41 262.088 493.071 262.253 493.637 262.584C494.213 262.915 494.639 263.331 494.917 263.832V262.232H496.389V271.192C496.389 271.992 496.218 272.701 495.877 273.32C495.535 273.949 495.045 274.44 494.405 274.792C493.775 275.144 493.039 275.32 492.197 275.32C491.045 275.32 490.085 275.048 489.317 274.504C488.549 273.96 488.095 273.219 487.957 272.28H489.397C489.557 272.813 489.887 273.24 490.389 273.56C490.89 273.891 491.493 274.056 492.197 274.056C492.997 274.056 493.647 273.805 494.149 273.304C494.661 272.803 494.917 272.099 494.917 271.192V269.352C494.629 269.864 494.202 270.291 493.637 270.632C493.071 270.973 492.41 271.144 491.653 271.144C490.874 271.144 490.165 270.952 489.525 270.568C488.895 270.184 488.399 269.645 488.037 268.952C487.674 268.259 487.493 267.469 487.493 266.584C487.493 265.688 487.674 264.904 488.037 264.232C488.399 263.549 488.895 263.021 489.525 262.648C490.165 262.275 490.874 262.088 491.653 262.088ZM494.917 266.6C494.917 265.939 494.783 265.363 494.517 264.872C494.25 264.381 493.887 264.008 493.429 263.752C492.981 263.485 492.485 263.352 491.941 263.352C491.397 263.352 490.901 263.48 490.453 263.736C490.005 263.992 489.647 264.365 489.381 264.856C489.114 265.347 488.981 265.923 488.981 266.584C488.981 267.256 489.114 267.843 489.381 268.344C489.647 268.835 490.005 269.213 490.453 269.48C490.901 269.736 491.397 269.864 491.941 269.864C492.485 269.864 492.981 269.736 493.429 269.48C493.887 269.213 494.25 268.835 494.517 268.344C494.783 267.843 494.917 267.261 494.917 266.6ZM506.849 266.28C506.849 266.557 506.833 266.851 506.801 267.16H499.793C499.847 268.024 500.14 268.701 500.673 269.192C501.217 269.672 501.873 269.912 502.641 269.912C503.271 269.912 503.793 269.768 504.209 269.48C504.636 269.181 504.935 268.787 505.105 268.296H506.673C506.439 269.139 505.969 269.827 505.265 270.36C504.561 270.883 503.687 271.144 502.641 271.144C501.809 271.144 501.063 270.957 500.401 270.584C499.751 270.211 499.239 269.683 498.865 269C498.492 268.307 498.305 267.507 498.305 266.6C498.305 265.693 498.487 264.899 498.849 264.216C499.212 263.533 499.719 263.011 500.369 262.648C501.031 262.275 501.788 262.088 502.641 262.088C503.473 262.088 504.209 262.269 504.849 262.632C505.489 262.995 505.98 263.496 506.321 264.136C506.673 264.765 506.849 265.48 506.849 266.28ZM505.345 265.976C505.345 265.421 505.223 264.947 504.977 264.552C504.732 264.147 504.396 263.843 503.969 263.64C503.553 263.427 503.089 263.32 502.577 263.32C501.841 263.32 501.212 263.555 500.689 264.024C500.177 264.493 499.884 265.144 499.809 265.976H505.345Z" fill="black"/>
<rect x="34" y="79" width="145" height="28" rx="14" fill="#97E2CF"/>
<path d="M54.7739 97.816H58.6779V99H53.3179V87.848H54.7739V97.816ZM59.6802 94.584C59.6802 93.688 59.8615 92.904 60.2242 92.232C60.5869 91.5493 61.0829 91.0213 61.7122 90.648C62.3522 90.2747 63.0615 90.088 63.8402 90.088C64.6082 90.088 65.2749 90.2533 65.8402 90.584C66.4055 90.9147 66.8269 91.3307 67.1042 91.832V90.232H68.5762V99H67.1042V97.368C66.8162 97.88 66.3842 98.3067 65.8082 98.648C65.2429 98.9787 64.5815 99.144 63.8242 99.144C63.0455 99.144 62.3415 98.952 61.7122 98.568C61.0829 98.184 60.5869 97.6453 60.2242 96.952C59.8615 96.2587 59.6802 95.4693 59.6802 94.584ZM67.1042 94.6C67.1042 93.9387 66.9709 93.3627 66.7042 92.872C66.4375 92.3813 66.0749 92.008 65.6162 91.752C65.1682 91.4853 64.6722 91.352 64.1282 91.352C63.5842 91.352 63.0882 91.48 62.6402 91.736C62.1922 91.992 61.8349 92.3653 61.5682 92.856C61.3015 93.3467 61.1682 93.9227 61.1682 94.584C61.1682 95.256 61.3015 95.8427 61.5682 96.344C61.8349 96.8347 62.1922 97.2133 62.6402 97.48C63.0882 97.736 63.5842 97.864 64.1282 97.864C64.6722 97.864 65.1682 97.736 65.6162 97.48C66.0749 97.2133 66.4375 96.8347 66.7042 96.344C66.9709 95.8427 67.1042 95.2613 67.1042 94.6ZM75.3087 90.072C76.3754 90.072 77.2394 90.3973 77.9007 91.048C78.562 91.688 78.8927 92.616 78.8927 93.832V99H77.4527V94.04C77.4527 93.1653 77.234 92.4987 76.7967 92.04C76.3594 91.5707 75.762 91.336 75.0047 91.336C74.2367 91.336 73.6234 91.576 73.1647 92.056C72.7167 92.536 72.4927 93.2347 72.4927 94.152V99H71.0367V90.232H72.4927V91.48C72.7807 91.032 73.17 90.6853 73.6607 90.44C74.162 90.1947 74.7114 90.072 75.3087 90.072ZM80.7271 94.584C80.7271 93.688 80.9084 92.904 81.2711 92.232C81.6337 91.5493 82.1297 91.0213 82.7591 90.648C83.3991 90.2747 84.1137 90.088 84.9031 90.088C85.5857 90.088 86.2204 90.248 86.8071 90.568C87.3937 90.8773 87.8417 91.288 88.1511 91.8V87.16H89.6231V99H88.1511V97.352C87.8631 97.8747 87.4364 98.3067 86.8711 98.648C86.3057 98.9787 85.6444 99.144 84.8871 99.144C84.1084 99.144 83.3991 98.952 82.7591 98.568C82.1297 98.184 81.6337 97.6453 81.2711 96.952C80.9084 96.2587 80.7271 95.4693 80.7271 94.584ZM88.1511 94.6C88.1511 93.9387 88.0177 93.3627 87.7511 92.872C87.4844 92.3813 87.1217 92.008 86.6631 91.752C86.2151 91.4853 85.7191 91.352 85.1751 91.352C84.6311 91.352 84.1351 91.48 83.6871 91.736C83.2391 91.992 82.8817 92.3653 82.6151 92.856C82.3484 93.3467 82.2151 93.9227 82.2151 94.584C82.2151 95.256 82.3484 95.8427 82.6151 96.344C82.8817 96.8347 83.2391 97.2133 83.6871 97.48C84.1351 97.736 84.6311 97.864 85.1751 97.864C85.7191 97.864 86.2151 97.736 86.6631 97.48C87.1217 97.2133 87.4844 96.8347 87.7511 96.344C88.0177 95.8427 88.1511 95.2613 88.1511 94.6ZM92.8356 88.808C92.5582 88.808 92.3236 88.712 92.1316 88.52C91.9396 88.328 91.8436 88.0933 91.8436 87.816C91.8436 87.5387 91.9396 87.304 92.1316 87.112C92.3236 86.92 92.5582 86.824 92.8356 86.824C93.1022 86.824 93.3262 86.92 93.5076 87.112C93.6996 87.304 93.7956 87.5387 93.7956 87.816C93.7956 88.0933 93.6996 88.328 93.5076 88.52C93.3262 88.712 93.1022 88.808 92.8356 88.808ZM93.5396 90.232V99H92.0836V90.232H93.5396ZM100.293 90.072C101.36 90.072 102.224 90.3973 102.885 91.048C103.546 91.688 103.877 92.616 103.877 93.832V99H102.437V94.04C102.437 93.1653 102.218 92.4987 101.781 92.04C101.344 91.5707 100.746 91.336 99.9891 91.336C99.2211 91.336 98.6077 91.576 98.1491 92.056C97.7011 92.536 97.4771 93.2347 97.4771 94.152V99H96.0211V90.232H97.4771V91.48C97.7651 91.032 98.1544 90.6853 98.6451 90.44C99.1464 90.1947 99.6957 90.072 100.293 90.072ZM109.871 90.088C110.629 90.088 111.29 90.2533 111.855 90.584C112.431 90.9147 112.858 91.3307 113.135 91.832V90.232H114.607V99.192C114.607 99.992 114.437 100.701 114.095 101.32C113.754 101.949 113.263 102.44 112.623 102.792C111.994 103.144 111.258 103.32 110.415 103.32C109.263 103.32 108.303 103.048 107.535 102.504C106.767 101.96 106.314 101.219 106.175 100.28H107.615C107.775 100.813 108.106 101.24 108.607 101.56C109.109 101.891 109.711 102.056 110.415 102.056C111.215 102.056 111.866 101.805 112.367 101.304C112.879 100.803 113.135 100.099 113.135 99.192V97.352C112.847 97.864 112.421 98.2907 111.855 98.632C111.29 98.9733 110.629 99.144 109.871 99.144C109.093 99.144 108.383 98.952 107.743 98.568C107.114 98.184 106.618 97.6453 106.255 96.952C105.893 96.2587 105.711 95.4693 105.711 94.584C105.711 93.688 105.893 92.904 106.255 92.232C106.618 91.5493 107.114 91.0213 107.743 90.648C108.383 90.2747 109.093 90.088 109.871 90.088ZM113.135 94.6C113.135 93.9387 113.002 93.3627 112.735 92.872C112.469 92.3813 112.106 92.008 111.647 91.752C111.199 91.4853 110.703 91.352 110.159 91.352C109.615 91.352 109.119 91.48 108.671 91.736C108.223 91.992 107.866 92.3653 107.599 92.856C107.333 93.3467 107.199 93.9227 107.199 94.584C107.199 95.256 107.333 95.8427 107.599 96.344C107.866 96.8347 108.223 97.2133 108.671 97.48C109.119 97.736 109.615 97.864 110.159 97.864C110.703 97.864 111.199 97.736 111.647 97.48C112.106 97.2133 112.469 96.8347 112.735 96.344C113.002 95.8427 113.135 95.2613 113.135 94.6ZM128.79 91.112C128.79 92.04 128.47 92.8133 127.83 93.432C127.2 94.04 126.235 94.344 124.934 94.344H122.79V99H121.334V87.848H124.934C126.192 87.848 127.147 88.152 127.798 88.76C128.459 89.368 128.79 90.152 128.79 91.112ZM124.934 93.144C125.744 93.144 126.342 92.968 126.726 92.616C127.11 92.264 127.302 91.7627 127.302 91.112C127.302 89.736 126.512 89.048 124.934 89.048H122.79V93.144H124.934ZM130.055 94.584C130.055 93.688 130.237 92.904 130.599 92.232C130.962 91.5493 131.458 91.0213 132.087 90.648C132.727 90.2747 133.437 90.088 134.215 90.088C134.983 90.088 135.65 90.2533 136.215 90.584C136.781 90.9147 137.202 91.3307 137.479 91.832V90.232H138.951V99H137.479V97.368C137.191 97.88 136.759 98.3067 136.183 98.648C135.618 98.9787 134.957 99.144 134.199 99.144C133.421 99.144 132.717 98.952 132.087 98.568C131.458 98.184 130.962 97.6453 130.599 96.952C130.237 96.2587 130.055 95.4693 130.055 94.584ZM137.479 94.6C137.479 93.9387 137.346 93.3627 137.079 92.872C136.813 92.3813 136.45 92.008 135.991 91.752C135.543 91.4853 135.047 91.352 134.503 91.352C133.959 91.352 133.463 91.48 133.015 91.736C132.567 91.992 132.21 92.3653 131.943 92.856C131.677 93.3467 131.543 93.9227 131.543 94.584C131.543 95.256 131.677 95.8427 131.943 96.344C132.21 96.8347 132.567 97.2133 133.015 97.48C133.463 97.736 133.959 97.864 134.503 97.864C135.047 97.864 135.543 97.736 135.991 97.48C136.45 97.2133 136.813 96.8347 137.079 96.344C137.346 95.8427 137.479 95.2613 137.479 94.6ZM145.028 90.088C145.785 90.088 146.446 90.2533 147.012 90.584C147.588 90.9147 148.014 91.3307 148.292 91.832V90.232H149.764V99.192C149.764 99.992 149.593 100.701 149.252 101.32C148.91 101.949 148.42 102.44 147.78 102.792C147.15 103.144 146.414 103.32 145.572 103.32C144.42 103.32 143.46 103.048 142.692 102.504C141.924 101.96 141.47 101.219 141.332 100.28H142.772C142.932 100.813 143.262 101.24 143.764 101.56C144.265 101.891 144.868 102.056 145.572 102.056C146.372 102.056 147.022 101.805 147.524 101.304C148.036 100.803 148.292 100.099 148.292 99.192V97.352C148.004 97.864 147.577 98.2907 147.012 98.632C146.446 98.9733 145.785 99.144 145.028 99.144C144.249 99.144 143.54 98.952 142.9 98.568C142.27 98.184 141.774 97.6453 141.412 96.952C141.049 96.2587 140.868 95.4693 140.868 94.584C140.868 93.688 141.049 92.904 141.412 92.232C141.774 91.5493 142.27 91.0213 142.9 90.648C143.54 90.2747 144.249 90.088 145.028 90.088ZM148.292 94.6C148.292 93.9387 148.158 93.3627 147.892 92.872C147.625 92.3813 147.262 92.008 146.804 91.752C146.356 91.4853 145.86 91.352 145.316 91.352C144.772 91.352 144.276 91.48 143.828 91.736C143.38 91.992 143.022 92.3653 142.756 92.856C142.489 93.3467 142.356 93.9227 142.356 94.584C142.356 95.256 142.489 95.8427 142.756 96.344C143.022 96.8347 143.38 97.2133 143.828 97.48C144.276 97.736 144.772 97.864 145.316 97.864C145.86 97.864 146.356 97.736 146.804 97.48C147.262 97.2133 147.625 96.8347 147.892 96.344C148.158 95.8427 148.292 95.2613 148.292 94.6ZM160.224 94.28C160.224 94.5573 160.208 94.8507 160.176 95.16H153.168C153.222 96.024 153.515 96.7013 154.048 97.192C154.592 97.672 155.248 97.912 156.016 97.912C156.646 97.912 157.168 97.768 157.584 97.48C158.011 97.1813 158.31 96.7867 158.48 96.296H160.048C159.814 97.1387 159.344 97.8267 158.64 98.36C157.936 98.8827 157.062 99.144 156.016 99.144C155.184 99.144 154.438 98.9573 153.776 98.584C153.126 98.2107 152.614 97.6827 152.24 97C151.867 96.3067 151.68 95.5067 151.68 94.6C151.68 93.6933 151.862 92.8987 152.224 92.216C152.587 91.5333 153.094 91.0107 153.744 90.648C154.406 90.2747 155.163 90.088 156.016 90.088C156.848 90.088 157.584 90.2693 158.224 90.632C158.864 90.9947 159.355 91.496 159.696 92.136C160.048 92.7653 160.224 93.48 160.224 94.28ZM158.72 93.976C158.72 93.4213 158.598 92.9467 158.352 92.552C158.107 92.1467 157.771 91.8427 157.344 91.64C156.928 91.4267 156.464 91.32 155.952 91.32C155.216 91.32 154.587 91.5547 154.064 92.024C153.552 92.4933 153.259 93.144 153.184 93.976H158.72Z" fill="black"/>
<path d="M172.354 204.354C172.549 204.158 172.549 203.842 172.354 203.646L169.172 200.464C168.976 200.269 168.66 200.269 168.464 200.464C168.269 200.66 168.269 200.976 168.464 201.172L171.293 204L168.464 206.828C168.269 207.024 168.269 207.34 168.464 207.536C168.66 207.731 168.976 207.731 169.172 207.536L172.354 204.354ZM108.5 108.5V157.055H109.5V108.5H108.5ZM159.36 204.5H172V203.5H159.36V204.5ZM121.689 188.896C131.68 198.887 145.231 204.5 159.36 204.5V203.5C145.496 203.5 132.2 197.992 122.396 188.189L121.689 188.896ZM108.5 157.055C108.5 168.998 113.244 180.451 121.689 188.896L122.396 188.189C114.139 179.932 109.5 168.733 109.5 157.055H108.5Z" fill="white"/>
<path d="M171.354 156.854C171.549 156.658 171.549 156.342 171.354 156.146L168.172 152.964C167.976 152.769 167.66 152.769 167.464 152.964C167.269 153.16 167.269 153.476 167.464 153.672L170.293 156.5L167.464 159.328C167.269 159.524 167.269 159.84 167.464 160.036C167.66 160.231 167.976 160.231 168.172 160.036L171.354 156.854ZM109.5 157H110.525V156H109.5V157ZM112.575 157H114.625V156H112.575V157ZM116.675 157H118.725V156H116.675V157ZM120.775 157H122.825V156H120.775V157ZM124.875 157H126.925V156H124.875V157ZM128.975 157H131.025V156H128.975V157ZM133.075 157H135.125V156H133.075V157ZM137.175 157H139.225V156H137.175V157ZM141.275 157H143.325V156H141.275V157ZM145.375 157H147.425V156H145.375V157ZM149.475 157H151.525V156H149.475V157ZM153.575 157H155.625V156H153.575V157ZM157.675 157H159.725V156H157.675V157ZM161.775 157H163.825V156H161.775V157ZM165.875 157H167.925V156H165.875V157ZM169.975 157H171V156H169.975V157Z" fill="white"/>
<path d="M291.854 156.854C292.049 156.658 292.049 156.342 291.854 156.146L288.672 152.964C288.476 152.769 288.16 152.769 287.964 152.964C287.769 153.16 287.769 153.476 287.964 153.672L290.793 156.5L287.964 159.328C287.769 159.524 287.769 159.84 287.964 160.036C288.16 160.231 288.476 160.231 288.672 160.036L291.854 156.854ZM268.5 157H269.458V156H268.5V157ZM271.375 157H273.292V156H271.375V157ZM275.208 157H277.125V156H275.208V157ZM279.042 157H280.958V156H279.042V157ZM282.875 157H284.792V156H282.875V157ZM286.708 157H288.625V156H286.708V157ZM290.542 157H291.5V156H290.542V157Z" fill="white"/>
<path d="M430.354 156.854C430.549 156.658 430.549 156.342 430.354 156.146L427.172 152.964C426.976 152.769 426.66 152.769 426.464 152.964C426.269 153.16 426.269 153.476 426.464 153.672L429.293 156.5L426.464 159.328C426.269 159.524 426.269 159.84 426.464 160.036C426.66 160.231 426.976 160.231 427.172 160.036L430.354 156.854ZM407 157H407.958V156H407V157ZM409.875 157H411.792V156H409.875V157ZM413.708 157H415.625V156H413.708V157ZM417.542 157H419.458V156H417.542V157ZM421.375 157H423.292V156H421.375V157ZM425.208 157H427.125V156H425.208V157ZM429.042 157H430V156H429.042V157Z" fill="white"/>
<path d="M477.646 249.854C477.842 250.049 478.158 250.049 478.354 249.854L481.536 246.672C481.731 246.476 481.731 246.16 481.536 245.964C481.34 245.769 481.024 245.769 480.828 245.964L478 248.793L475.172 245.964C474.976 245.769 474.66 245.769 474.464 245.964C474.269 246.16 474.269 246.476 474.464 246.672L477.646 249.854ZM477.5 172L477.5 173.02L478.5 173.02L478.5 172L477.5 172ZM477.5 175.059L477.5 177.099L478.5 177.099L478.5 175.059L477.5 175.059ZM477.5 179.138L477.5 181.178L478.5 181.178L478.5 179.138L477.5 179.138ZM477.5 183.217L477.5 185.257L478.5 185.257L478.5 183.217L477.5 183.217ZM477.5 187.296L477.5 189.336L478.5 189.336L478.5 187.296L477.5 187.296ZM477.5 191.375L477.5 193.414L478.5 193.414L478.5 191.375L477.5 191.375ZM477.5 195.454L477.5 197.493L478.5 197.493L478.5 195.454L477.5 195.454ZM477.5 199.533L477.5 201.572L478.5 201.572L478.5 199.533L477.5 199.533ZM477.5 203.612L477.5 205.651L478.5 205.651L478.5 203.612L477.5 203.612ZM477.5 207.691L477.5 209.73L478.5 209.73L478.5 207.691L477.5 207.691ZM477.5 211.77L477.5 213.809L478.5 213.809L478.5 211.77L477.5 211.77ZM477.5 215.849L477.5 217.888L478.5 217.888L478.5 215.849L477.5 215.849ZM477.5 219.928L477.5 221.967L478.5 221.967L478.5 219.928L477.5 219.928ZM477.5 224.007L477.5 226.046L478.5 226.046L478.5 224.007L477.5 224.007ZM477.5 228.086L477.5 230.125L478.5 230.125L478.5 228.086L477.5 228.086ZM477.5 232.164L477.5 234.204L478.5 234.204L478.5 232.164L477.5 232.164ZM477.5 236.243L477.5 238.283L478.5 238.283L478.5 236.243L477.5 236.243ZM477.5 240.322L477.5 242.362L478.5 242.362L478.5 240.322L477.5 240.322ZM477.5 244.401L477.5 246.441L478.5 246.441L478.5 244.401L477.5 244.401ZM477.5 248.48L477.5 249.5L478.5 249.5L478.5 248.48L477.5 248.48Z" fill="white"/>
<path d="M398.854 266.354C399.049 266.158 399.049 265.842 398.854 265.646L395.672 262.464C395.476 262.269 395.16 262.269 394.964 262.464C394.769 262.66 394.769 262.976 394.964 263.172L397.793 266L394.964 268.828C394.769 269.024 394.769 269.34 394.964 269.536C395.16 269.731 395.476 269.731 395.672 269.536L398.854 266.354ZM262 203.5H271.062V202.5H262V203.5ZM326.937 226.644L344.373 244.08L345.08 243.373L327.644 225.937L326.937 226.644ZM344.373 244.08C358.728 258.435 378.198 266.5 398.5 266.5V265.5C378.464 265.5 359.248 257.541 345.08 243.373L344.373 244.08ZM271.062 203.5C292.019 203.5 312.118 211.825 326.937 226.644L327.644 225.937C312.638 210.931 292.284 202.5 271.062 202.5V203.5Z" fill="white"/>
</svg>
