<svg width="786" height="369" viewBox="0 0 786 369" fill="none" xmlns="http://www.w3.org/2000/svg">
<path d="M108.008 179L93.9915 153.56H90.0555V179H73.6395V111.608H101.192C106.504 111.608 111.016 112.536 114.728 114.392C118.504 116.248 121.32 118.808 123.176 122.072C125.032 125.272 125.96 128.856 125.96 132.824C125.96 137.304 124.68 141.304 122.12 144.824C119.624 148.344 115.912 150.84 110.984 152.312L126.536 179H108.008ZM90.0555 141.944H100.232C103.24 141.944 105.48 141.208 106.952 139.736C108.488 138.264 109.256 136.184 109.256 133.496C109.256 130.936 108.488 128.92 106.952 127.448C105.48 125.976 103.24 125.24 100.232 125.24H90.0555V141.944ZM160.649 179.768C155.401 179.768 150.665 178.648 146.441 176.408C142.281 174.168 138.985 170.968 136.553 166.808C134.185 162.648 133.001 157.784 133.001 152.216C133.001 146.712 134.217 141.88 136.648 137.72C139.081 133.496 142.409 130.264 146.633 128.024C150.857 125.784 155.593 124.664 160.841 124.664C166.089 124.664 170.825 125.784 175.049 128.024C179.273 130.264 182.601 133.496 185.033 137.72C187.465 141.88 188.681 146.712 188.681 152.216C188.681 157.72 187.433 162.584 184.937 166.808C182.505 170.968 179.145 174.168 174.857 176.408C170.633 178.648 165.897 179.768 160.649 179.768ZM160.649 165.56C163.785 165.56 166.441 164.408 168.617 162.104C170.857 159.8 171.977 156.504 171.977 152.216C171.977 147.928 170.889 144.632 168.713 142.328C166.601 140.024 163.977 138.872 160.841 138.872C157.641 138.872 154.985 140.024 152.873 142.328C150.761 144.568 149.705 147.864 149.705 152.216C149.705 156.504 150.729 159.8 152.777 162.104C154.889 164.408 157.513 165.56 160.649 165.56ZM219.182 179.768C214.51 179.768 210.35 178.968 206.702 177.368C203.054 175.768 200.174 173.592 198.062 170.84C195.95 168.024 194.766 164.888 194.51 161.432H210.734C210.926 163.288 211.79 164.792 213.326 165.944C214.862 167.096 216.75 167.672 218.99 167.672C221.038 167.672 222.606 167.288 223.694 166.52C224.846 165.688 225.422 164.632 225.422 163.352C225.422 161.816 224.622 160.696 223.022 159.992C221.422 159.224 218.83 158.392 215.246 157.496C211.406 156.6 208.206 155.672 205.646 154.712C203.086 153.688 200.878 152.12 199.022 150.008C197.166 147.832 196.238 144.92 196.238 141.272C196.238 138.2 197.07 135.416 198.734 132.92C200.462 130.36 202.958 128.344 206.222 126.872C209.55 125.4 213.486 124.664 218.03 124.664C224.75 124.664 230.03 126.328 233.87 129.656C237.774 132.984 240.014 137.4 240.59 142.904H225.422C225.166 141.048 224.334 139.576 222.926 138.488C221.582 137.4 219.79 136.856 217.55 136.856C215.63 136.856 214.158 137.24 213.134 138.008C212.11 138.712 211.598 139.704 211.598 140.984C211.598 142.52 212.398 143.672 213.998 144.44C215.662 145.208 218.222 145.976 221.678 146.744C225.646 147.768 228.878 148.792 231.374 149.816C233.87 150.776 236.046 152.376 237.902 154.616C239.822 156.792 240.814 159.736 240.878 163.448C240.878 166.584 239.982 169.4 238.19 171.896C236.462 174.328 233.934 176.248 230.606 177.656C227.342 179.064 223.534 179.768 219.182 179.768ZM272.713 179.768C268.041 179.768 263.881 178.968 260.233 177.368C256.585 175.768 253.705 173.592 251.593 170.84C249.481 168.024 248.297 164.888 248.041 161.432H264.265C264.457 163.288 265.321 164.792 266.857 165.944C268.393 167.096 270.281 167.672 272.521 167.672C274.569 167.672 276.137 167.288 277.225 166.52C278.377 165.688 278.953 164.632 278.953 163.352C278.953 161.816 278.153 160.696 276.553 159.992C274.953 159.224 272.361 158.392 268.777 157.496C264.937 156.6 261.737 155.672 259.177 154.712C256.617 153.688 254.409 152.12 252.553 150.008C250.697 147.832 249.769 144.92 249.769 141.272C249.769 138.2 250.601 135.416 252.265 132.92C253.993 130.36 256.489 128.344 259.753 126.872C263.081 125.4 267.017 124.664 271.561 124.664C278.281 124.664 283.561 126.328 287.401 129.656C291.305 132.984 293.545 137.4 294.121 142.904H278.953C278.697 141.048 277.865 139.576 276.457 138.488C275.113 137.4 273.321 136.856 271.081 136.856C269.161 136.856 267.689 137.24 266.665 138.008C265.641 138.712 265.129 139.704 265.129 140.984C265.129 142.52 265.929 143.672 267.529 144.44C269.193 145.208 271.753 145.976 275.209 146.744C279.177 147.768 282.409 148.792 284.905 149.816C287.401 150.776 289.577 152.376 291.433 154.616C293.353 156.792 294.345 159.736 294.409 163.448C294.409 166.584 293.513 169.4 291.721 171.896C289.993 174.328 287.465 176.248 284.137 177.656C280.873 179.064 277.065 179.768 272.713 179.768ZM349.18 179.672C344.252 179.672 339.836 178.872 335.932 177.272C332.028 175.672 328.892 173.304 326.524 170.168C324.22 167.032 323.004 163.256 322.876 158.84H340.348C340.604 161.336 341.468 163.256 342.94 164.6C344.412 165.88 346.332 166.52 348.7 166.52C351.132 166.52 353.052 165.976 354.46 164.888C355.868 163.736 356.572 162.168 356.572 160.184C356.572 158.52 355.996 157.144 354.844 156.056C353.756 154.968 352.38 154.072 350.716 153.368C349.116 152.664 346.812 151.864 343.804 150.968C339.452 149.624 335.9 148.28 333.148 146.936C330.396 145.592 328.028 143.608 326.044 140.984C324.06 138.36 323.068 134.936 323.068 130.712C323.068 124.44 325.34 119.544 329.884 116.024C334.428 112.44 340.348 110.648 347.644 110.648C355.068 110.648 361.052 112.44 365.596 116.024C370.14 119.544 372.572 124.472 372.892 130.808H355.132C355.004 128.632 354.204 126.936 352.732 125.72C351.26 124.44 349.372 123.8 347.068 123.8C345.084 123.8 343.484 124.344 342.268 125.432C341.052 126.456 340.444 127.96 340.444 129.944C340.444 132.12 341.468 133.816 343.516 135.032C345.564 136.248 348.764 137.56 353.116 138.968C357.468 140.44 360.988 141.848 363.676 143.192C366.428 144.536 368.796 146.488 370.78 149.048C372.764 151.608 373.756 154.904 373.756 158.936C373.756 162.776 372.764 166.264 370.78 169.4C368.86 172.536 366.044 175.032 362.332 176.888C358.62 178.744 354.236 179.672 349.18 179.672ZM416.786 124.856C422.93 124.856 427.858 126.904 431.57 131C435.282 135.032 437.138 140.6 437.138 147.704V179H420.818V149.912C420.818 146.328 419.89 143.544 418.034 141.56C416.178 139.576 413.682 138.584 410.546 138.584C407.41 138.584 404.914 139.576 403.058 141.56C401.202 143.544 400.274 146.328 400.274 149.912V179H383.858V107.96H400.274V132.632C401.938 130.264 404.21 128.376 407.09 126.968C409.97 125.56 413.202 124.856 416.786 124.856ZM499.042 151.352C499.042 152.888 498.946 154.488 498.754 156.152H461.602C461.858 159.48 462.914 162.04 464.77 163.832C466.69 165.56 469.026 166.424 471.778 166.424C475.874 166.424 478.722 164.696 480.322 161.24H497.794C496.898 164.76 495.266 167.928 492.898 170.744C490.594 173.56 487.682 175.768 484.162 177.368C480.642 178.968 476.706 179.768 472.354 179.768C467.106 179.768 462.434 178.648 458.338 176.408C454.242 174.168 451.042 170.968 448.738 166.808C446.434 162.648 445.282 157.784 445.282 152.216C445.282 146.648 446.402 141.784 448.642 137.624C450.946 133.464 454.146 130.264 458.242 128.024C462.338 125.784 467.042 124.664 472.354 124.664C477.538 124.664 482.146 125.752 486.178 127.928C490.21 130.104 493.346 133.208 495.586 137.24C497.89 141.272 499.042 145.976 499.042 151.352ZM482.242 147.032C482.242 144.216 481.282 141.976 479.362 140.312C477.442 138.648 475.042 137.816 472.162 137.816C469.41 137.816 467.074 138.616 465.154 140.216C463.298 141.816 462.146 144.088 461.698 147.032H482.242ZM524.118 107.96V179H507.702V107.96H524.118ZM562.895 139.064H554.062V179H537.647V139.064H531.695V125.432H537.647V123.896C537.647 117.304 539.535 112.312 543.311 108.92C547.087 105.464 552.623 103.736 559.919 103.736C561.135 103.736 562.031 103.768 562.607 103.832V117.752C559.471 117.56 557.263 118.008 555.983 119.096C554.703 120.184 554.062 122.136 554.062 124.952V125.432H562.895V139.064ZM594.992 179.768C589.744 179.768 585.008 178.648 580.784 176.408C576.624 174.168 573.328 170.968 570.896 166.808C568.528 162.648 567.344 157.784 567.344 152.216C567.344 146.712 568.56 141.88 570.992 137.72C573.424 133.496 576.752 130.264 580.976 128.024C585.2 125.784 589.936 124.664 595.184 124.664C600.432 124.664 605.168 125.784 609.392 128.024C613.616 130.264 616.944 133.496 619.376 137.72C621.808 141.88 623.024 146.712 623.024 152.216C623.024 157.72 621.776 162.584 619.28 166.808C616.848 170.968 613.488 174.168 609.2 176.408C604.976 178.648 600.24 179.768 594.992 179.768ZM594.992 165.56C598.128 165.56 600.784 164.408 602.96 162.104C605.2 159.8 606.32 156.504 606.32 152.216C606.32 147.928 605.232 144.632 603.056 142.328C600.944 140.024 598.32 138.872 595.184 138.872C591.984 138.872 589.328 140.024 587.216 142.328C585.104 144.568 584.048 147.864 584.048 152.216C584.048 156.504 585.072 159.8 587.12 162.104C589.232 164.408 591.856 165.56 594.992 165.56ZM648.149 134.36C650.069 131.416 652.469 129.112 655.349 127.448C658.229 125.72 661.429 124.856 664.949 124.856V142.232H660.437C656.341 142.232 653.269 143.128 651.221 144.92C649.173 146.648 648.149 149.72 648.149 154.136V179H631.733V125.432H648.149V134.36ZM669.532 152.12C669.532 146.616 670.556 141.784 672.604 137.624C674.716 133.464 677.564 130.264 681.148 128.024C684.732 125.784 688.732 124.664 693.148 124.664C696.668 124.664 699.868 125.4 702.748 126.872C705.692 128.344 707.996 130.328 709.66 132.824V107.96H726.076V179H709.66V171.32C708.124 173.88 705.916 175.928 703.036 177.464C700.22 179 696.924 179.768 693.148 179.768C688.732 179.768 684.732 178.648 681.148 176.408C677.564 174.104 674.716 170.872 672.604 166.712C670.556 162.488 669.532 157.624 669.532 152.12ZM709.66 152.216C709.66 148.12 708.508 144.888 706.204 142.52C703.964 140.152 701.212 138.968 697.948 138.968C694.684 138.968 691.9 140.152 689.596 142.52C687.356 144.824 686.236 148.024 686.236 152.12C686.236 156.216 687.356 159.48 689.596 161.912C691.9 164.28 694.684 165.464 697.948 165.464C701.212 165.464 703.964 164.28 706.204 161.912C708.508 159.544 709.66 156.312 709.66 152.216Z" fill="#97E2CF"/>
<path d="M284.872 246.072V274.168C284.872 279.245 286.024 282.979 288.328 285.368C290.632 287.715 293.768 288.888 297.736 288.888C301.661 288.888 304.755 287.715 307.016 285.368C309.277 283.021 310.408 279.288 310.408 274.168V246.072H313.288V274.104C313.288 279.949 311.88 284.301 309.064 287.16C306.248 290.019 302.472 291.448 297.736 291.448C293 291.448 289.181 290.019 286.28 287.16C283.421 284.259 281.992 279.907 281.992 274.104V246.072H284.872ZM326.378 246.072V291H323.498V246.072H326.378ZM354.728 231.032L337 301.304H334.12L351.784 231.032H354.728ZM365.185 246.072V274.168C365.185 279.245 366.337 282.979 368.641 285.368C370.945 287.715 374.081 288.888 378.049 288.888C381.974 288.888 385.067 287.715 387.329 285.368C389.59 283.021 390.721 279.288 390.721 274.168V246.072H393.601V274.104C393.601 279.949 392.193 284.301 389.377 287.16C386.561 290.019 382.785 291.448 378.049 291.448C373.313 291.448 369.494 290.019 366.593 287.16C363.734 284.259 362.305 279.907 362.305 274.104V246.072H365.185ZM417.507 268.536L431.011 291H427.747L415.651 270.84L404.067 291H400.867L414.179 268.344L400.803 246.072H404.067L416.035 266.04L427.811 246.072H431.075L417.507 268.536ZM469.231 246.072C476.826 246.072 482.671 248.056 486.767 252.024C490.906 255.992 492.975 261.517 492.975 268.6C492.975 275.683 490.906 281.187 486.767 285.112C482.671 289.037 476.826 291 469.231 291H456.623V246.072H469.231ZM469.231 288.568C476.015 288.568 481.178 286.819 484.719 283.32C488.26 279.779 490.031 274.872 490.031 268.6C490.031 262.285 488.26 257.357 484.719 253.816C481.178 250.275 476.015 248.504 469.231 248.504H459.503V288.568H469.231ZM532.982 271.288C532.982 272.824 532.939 273.976 532.854 274.744H502.838C502.923 277.859 503.606 280.483 504.885 282.616C506.166 284.749 507.851 286.349 509.942 287.416C512.032 288.483 514.315 289.016 516.79 289.016C520.203 289.016 523.062 288.184 525.366 286.52C527.67 284.813 529.12 282.509 529.718 279.608H532.726C532.043 283.149 530.294 286.029 527.478 288.248C524.662 290.424 521.099 291.512 516.79 291.512C513.547 291.512 510.646 290.787 508.086 289.336C505.526 287.885 503.52 285.816 502.07 283.128C500.619 280.397 499.894 277.219 499.894 273.592C499.894 269.965 500.598 266.808 502.006 264.12C503.456 261.432 505.462 259.384 508.022 257.976C510.582 256.525 513.504 255.8 516.79 255.8C520.118 255.8 522.998 256.525 525.43 257.976C527.904 259.384 529.782 261.283 531.062 263.672C532.342 266.019 532.982 268.557 532.982 271.288ZM530.102 272.376C530.23 269.304 529.675 266.701 528.438 264.568C527.243 262.435 525.6 260.856 523.51 259.832C521.419 258.765 519.158 258.232 516.726 258.232C514.294 258.232 512.032 258.765 509.942 259.832C507.894 260.856 506.208 262.435 504.885 264.568C503.606 266.701 502.923 269.304 502.838 272.376H530.102ZM553.27 291.512C549.387 291.512 546.208 290.659 543.734 288.952C541.302 287.245 539.936 284.813 539.638 281.656H542.582C542.795 283.917 543.819 285.709 545.654 287.032C547.531 288.355 550.07 289.016 553.27 289.016C555.915 289.016 558.006 288.355 559.542 287.032C561.12 285.667 561.91 284.003 561.91 282.04C561.91 280.675 561.483 279.565 560.63 278.712C559.819 277.816 558.795 277.133 557.558 276.664C556.32 276.195 554.635 275.683 552.502 275.128C549.942 274.445 547.872 273.784 546.294 273.144C544.715 272.461 543.371 271.459 542.262 270.136C541.152 268.813 540.598 267.043 540.598 264.824C540.598 263.203 541.088 261.709 542.07 260.344C543.051 258.936 544.416 257.827 546.166 257.016C547.915 256.205 549.899 255.8 552.118 255.8C555.744 255.8 558.667 256.717 560.886 258.552C563.147 260.344 564.363 262.84 564.534 266.04H561.654C561.526 263.736 560.63 261.859 558.966 260.408C557.302 258.957 554.998 258.232 552.054 258.232C549.579 258.232 547.531 258.872 545.91 260.152C544.288 261.432 543.478 262.989 543.478 264.824C543.478 266.445 543.926 267.768 544.822 268.792C545.76 269.773 546.891 270.541 548.214 271.096C549.579 271.608 551.371 272.163 553.59 272.76C556.022 273.4 557.963 274.04 559.414 274.68C560.907 275.277 562.166 276.173 563.19 277.368C564.214 278.52 564.726 280.077 564.726 282.04C564.726 283.832 564.235 285.453 563.254 286.904C562.272 288.355 560.907 289.485 559.158 290.296C557.408 291.107 555.446 291.512 553.27 291.512ZM574.97 248.504C574.287 248.504 573.711 248.291 573.242 247.864C572.773 247.395 572.538 246.776 572.538 246.008C572.538 245.283 572.773 244.685 573.242 244.216C573.711 243.747 574.287 243.512 574.97 243.512C575.653 243.512 576.229 243.747 576.698 244.216C577.167 244.685 577.402 245.283 577.402 246.008C577.402 246.776 577.167 247.395 576.698 247.864C576.229 248.291 575.653 248.504 574.97 248.504ZM576.378 256.248V291H573.498V256.248H576.378ZM601.912 255.8C605.581 255.8 608.696 256.696 611.256 258.488C613.816 260.237 615.608 262.499 616.632 265.272V256.248H619.512V292.088C619.512 295.288 618.808 298.083 617.4 300.472C615.992 302.904 614.093 304.76 611.704 306.04C609.314 307.363 606.648 308.024 603.704 308.024C599.352 308.024 595.746 306.979 592.888 304.888C590.029 302.797 588.152 299.981 587.256 296.44H590.135C590.989 299.213 592.589 301.411 594.936 303.032C597.282 304.696 600.205 305.528 603.704 305.528C606.136 305.528 608.333 304.973 610.296 303.864C612.258 302.797 613.794 301.24 614.904 299.192C616.056 297.187 616.632 294.819 616.632 292.088V281.912C615.608 284.685 613.794 286.989 611.192 288.824C608.632 290.616 605.538 291.512 601.912 291.512C598.669 291.512 595.768 290.787 593.208 289.336C590.69 287.843 588.706 285.752 587.256 283.064C585.848 280.333 585.144 277.176 585.144 273.592C585.144 270.008 585.848 266.872 587.256 264.184C588.706 261.496 590.69 259.427 593.208 257.976C595.768 256.525 598.669 255.8 601.912 255.8ZM616.632 273.592C616.632 270.563 615.992 267.896 614.712 265.592C613.474 263.245 611.768 261.453 609.592 260.216C607.416 258.936 604.984 258.296 602.296 258.296C599.48 258.296 597.005 258.915 594.872 260.152C592.738 261.347 591.074 263.096 589.88 265.4C588.685 267.704 588.088 270.435 588.088 273.592C588.088 276.749 588.685 279.48 589.88 281.784C591.074 284.088 592.738 285.859 594.872 287.096C597.048 288.333 599.522 288.952 602.296 288.952C604.984 288.952 607.416 288.333 609.592 287.096C611.81 285.816 613.538 284.024 614.776 281.72C616.013 279.373 616.632 276.664 616.632 273.592ZM645.678 255.544C649.817 255.544 653.187 256.824 655.79 259.384C658.393 261.901 659.694 265.656 659.694 270.648V291H656.878V270.84C656.878 266.701 655.833 263.544 653.742 261.368C651.651 259.149 648.814 258.04 645.23 258.04C641.475 258.04 638.467 259.235 636.206 261.624C633.987 264.013 632.878 267.555 632.878 272.248V291H629.998V256.248H632.878V263.608C633.859 261.005 635.481 259.021 637.742 257.656C640.046 256.248 642.691 255.544 645.678 255.544ZM701.169 271.288C701.169 272.824 701.126 273.976 701.041 274.744H671.025C671.11 277.859 671.793 280.483 673.073 282.616C674.353 284.749 676.038 286.349 678.129 287.416C680.22 288.483 682.502 289.016 684.977 289.016C688.39 289.016 691.249 288.184 693.553 286.52C695.857 284.813 697.308 282.509 697.905 279.608H700.913C700.23 283.149 698.481 286.029 695.665 288.248C692.849 290.424 689.286 291.512 684.977 291.512C681.734 291.512 678.833 290.787 676.273 289.336C673.713 287.885 671.708 285.816 670.257 283.128C668.806 280.397 668.081 277.219 668.081 273.592C668.081 269.965 668.785 266.808 670.193 264.12C671.644 261.432 673.649 259.384 676.209 257.976C678.769 256.525 681.692 255.8 684.977 255.8C688.305 255.8 691.185 256.525 693.617 257.976C696.092 259.384 697.969 261.283 699.249 263.672C700.529 266.019 701.169 268.557 701.169 271.288ZM698.289 272.376C698.417 269.304 697.862 266.701 696.625 264.568C695.43 262.435 693.788 260.856 691.697 259.832C689.606 258.765 687.345 258.232 684.913 258.232C682.481 258.232 680.22 258.765 678.129 259.832C676.081 260.856 674.396 262.435 673.073 264.568C671.793 266.701 671.11 269.304 671.025 272.376H698.289ZM712.753 263.416C713.606 260.856 715.121 258.915 717.297 257.592C719.473 256.227 722.246 255.544 725.617 255.544V258.552H724.657C721.244 258.552 718.406 259.533 716.145 261.496C713.884 263.416 712.753 266.573 712.753 270.968V291H709.873V256.248H712.753V263.416Z" fill="white"/>
<rect x="1" y="45" width="784" height="323" rx="29" stroke="#97E2CF" stroke-width="2" stroke-linecap="round" stroke-dasharray="10 10"/>
<rect x="1" width="80.3259" height="32" rx="8" fill="#2A2B5F"/>
<rect x="18.663" y="6.33704" width="6.09407" height="6.09407" transform="rotate(45 18.663 6.33704)" fill="#97E2CF"/>
<rect x="24.0168" y="11.6908" width="6.09407" height="6.09407" transform="rotate(45 24.0168 11.6908)" fill="#97E2CF"/>
<rect x="13.3092" y="11.6908" width="6.09407" height="6.09407" transform="rotate(45 13.3092 11.6908)" fill="#97E2CF"/>
<rect x="18.663" y="17.0446" width="6.09407" height="6.09407" transform="rotate(45 18.663 17.0446)" fill="#97E2CF"/>
<path d="M42.8458 12.0909V13.7955H36.887V12.0909H42.8458ZM38.485 9.47727H40.6086V19.7969C40.6086 20.2088 40.6701 20.5189 40.7932 20.7273C40.9163 20.9309 41.075 21.0705 41.2691 21.1463C41.4679 21.2173 41.6834 21.2528 41.9154 21.2528C42.0858 21.2528 42.235 21.241 42.3628 21.2173C42.4907 21.1937 42.5901 21.1747 42.6611 21.1605L43.0446 22.9148C42.9215 22.9621 42.7464 23.0095 42.5191 23.0568C42.2918 23.1089 42.0077 23.1373 41.6668 23.142C41.1081 23.1515 40.5873 23.0521 40.1043 22.8438C39.6214 22.6354 39.2307 22.3134 38.9324 21.8778C38.6341 21.4422 38.485 20.8954 38.485 20.2372V9.47727ZM45.1949 23V12.0909H47.3184V23H45.1949ZM46.2673 10.4077C45.898 10.4077 45.5808 10.2846 45.3156 10.0384C45.0552 9.7874 44.925 9.48911 44.925 9.14347C44.925 8.79309 45.0552 8.49479 45.3156 8.24858C45.5808 7.99763 45.898 7.87216 46.2673 7.87216C46.6366 7.87216 46.9515 7.99763 47.2119 8.24858C47.4771 8.49479 47.6096 8.79309 47.6096 9.14347C47.6096 9.48911 47.4771 9.7874 47.2119 10.0384C46.9515 10.2846 46.6366 10.4077 46.2673 10.4077ZM55.2677 12.0909V13.7955H49.3089V12.0909H55.2677ZM50.9069 9.47727H53.0304V19.7969C53.0304 20.2088 53.092 20.5189 53.2151 20.7273C53.3382 20.9309 53.4968 21.0705 53.691 21.1463C53.8898 21.2173 54.1053 21.2528 54.3373 21.2528C54.5077 21.2528 54.6569 21.241 54.7847 21.2173C54.9125 21.1937 55.012 21.1747 55.083 21.1605L55.4665 22.9148C55.3434 22.9621 55.1682 23.0095 54.941 23.0568C54.7137 23.1089 54.4296 23.1373 54.0887 23.142C53.53 23.1515 53.0091 23.0521 52.5262 22.8438C52.0432 22.6354 51.6526 22.3134 51.3543 21.8778C51.056 21.4422 50.9069 20.8954 50.9069 20.2372V9.47727ZM59.9747 8.45455V23H57.8511V8.45455H59.9747ZM67.5333 23.2202C66.4585 23.2202 65.5328 22.9905 64.7563 22.5312C63.9845 22.0672 63.3879 21.4162 62.9665 20.5781C62.5499 19.7353 62.3415 18.7481 62.3415 17.6165C62.3415 16.4991 62.5499 15.5142 62.9665 14.6619C63.3879 13.8097 63.975 13.1444 64.7279 12.6662C65.4855 12.188 66.3709 11.9489 67.3841 11.9489C67.9997 11.9489 68.5963 12.0507 69.1739 12.2543C69.7516 12.4579 70.27 12.7775 70.7293 13.2131C71.1886 13.6487 71.5508 14.2145 71.816 14.9105C72.0811 15.6018 72.2137 16.4422 72.2137 17.4318V18.1847H63.5418V16.5938H70.1327C70.1327 16.035 70.0191 15.5402 69.7918 15.1094C69.5645 14.6738 69.2449 14.3305 68.833 14.0795C68.4258 13.8286 67.9476 13.7031 67.3983 13.7031C66.8017 13.7031 66.2809 13.8499 65.8358 14.1435C65.3955 14.4323 65.0546 14.8111 64.8131 15.2798C64.5764 15.7438 64.458 16.2481 64.458 16.7926V18.0355C64.458 18.7647 64.5858 19.3849 64.8415 19.8963C65.1019 20.4077 65.4642 20.7983 65.9282 21.0682C66.3922 21.3333 66.9343 21.4659 67.5546 21.4659C67.9571 21.4659 68.324 21.4091 68.6554 21.2955C68.9869 21.1771 69.2733 21.0019 69.5148 20.7699C69.7563 20.5379 69.941 20.2514 70.0688 19.9105L72.0787 20.2727C71.9178 20.8646 71.6289 21.383 71.2123 21.8281C70.8003 22.2685 70.2819 22.6117 69.6569 22.858C69.0366 23.0994 68.3287 23.2202 67.5333 23.2202Z" fill="#97E2CF"/>
<rect x="248.5" y="214.5" width="508" height="107" stroke="#97E2CF"/>
<rect x="751.5" y="209.5" width="11" height="11" fill="#030439" stroke="#97E2CF"/>
<rect x="480" y="327" width="46" height="14" rx="2" fill="#97E2CF"/>
<path d="M488.026 338.099C487.609 338.099 487.234 338.017 486.9 337.851C486.566 337.685 486.299 337.458 486.097 337.169C485.896 336.88 485.786 336.551 485.767 336.182H486.619C486.652 336.511 486.802 336.783 487.067 336.999C487.334 337.212 487.654 337.318 488.026 337.318C488.324 337.318 488.589 337.248 488.821 337.109C489.055 336.969 489.239 336.777 489.371 336.533C489.506 336.287 489.574 336.009 489.574 335.699C489.574 335.382 489.504 335.099 489.364 334.85C489.227 334.599 489.038 334.402 488.796 334.257C488.555 334.113 488.279 334.039 487.969 334.037C487.746 334.035 487.518 334.069 487.283 334.14C487.049 334.209 486.856 334.297 486.705 334.406L485.881 334.307L486.321 330.727H490.099V331.509H487.06L486.804 333.653H486.847C486.996 333.535 487.183 333.437 487.408 333.359C487.633 333.281 487.867 333.241 488.111 333.241C488.556 333.241 488.952 333.348 489.3 333.561C489.651 333.772 489.925 334.061 490.124 334.428C490.326 334.795 490.426 335.214 490.426 335.685C490.426 336.149 490.322 336.563 490.114 336.928C489.908 337.29 489.624 337.576 489.261 337.787C488.899 337.995 488.487 338.099 488.026 338.099ZM494.209 338.099C493.674 338.099 493.218 337.954 492.842 337.663C492.465 337.369 492.178 336.944 491.979 336.388C491.78 335.829 491.681 335.154 491.681 334.364C491.681 333.578 491.78 332.906 491.979 332.35C492.18 331.791 492.469 331.365 492.845 331.072C493.224 330.776 493.679 330.628 494.209 330.628C494.739 330.628 495.193 330.776 495.569 331.072C495.948 331.365 496.237 331.791 496.436 332.35C496.637 332.906 496.737 333.578 496.737 334.364C496.737 335.154 496.638 335.829 496.439 336.388C496.24 336.944 495.953 337.369 495.576 337.663C495.2 337.954 494.744 338.099 494.209 338.099ZM494.209 337.318C494.739 337.318 495.151 337.062 495.445 336.551C495.738 336.04 495.885 335.311 495.885 334.364C495.885 333.734 495.818 333.198 495.683 332.755C495.55 332.312 495.358 331.975 495.107 331.743C494.859 331.511 494.559 331.395 494.209 331.395C493.683 331.395 493.273 331.654 492.977 332.173C492.681 332.689 492.533 333.419 492.533 334.364C492.533 334.993 492.599 335.528 492.732 335.969C492.864 336.409 493.055 336.744 493.303 336.974C493.554 337.203 493.856 337.318 494.209 337.318ZM505.175 336.693L501.169 332.688L501.709 332.148L505.715 336.153L505.175 336.693ZM501.709 336.693L501.169 336.153L505.175 332.148L505.715 332.688L501.709 336.693ZM512.619 330.628C512.917 330.63 513.216 330.687 513.514 330.798C513.812 330.91 514.084 331.094 514.331 331.352C514.577 331.608 514.775 331.957 514.924 332.4C515.073 332.843 515.147 333.398 515.147 334.065C515.147 334.712 515.086 335.286 514.963 335.788C514.842 336.287 514.667 336.709 514.437 337.052C514.21 337.395 513.933 337.656 513.606 337.833C513.282 338.011 512.915 338.099 512.505 338.099C512.098 338.099 511.735 338.019 511.415 337.858C511.098 337.695 510.837 337.469 510.634 337.18C510.433 336.888 510.304 336.551 510.247 336.168H511.113C511.191 336.501 511.346 336.777 511.578 336.995C511.813 337.21 512.122 337.318 512.505 337.318C513.066 337.318 513.509 337.073 513.833 336.583C514.16 336.093 514.324 335.401 514.324 334.506H514.267C514.134 334.705 513.977 334.876 513.794 335.021C513.612 335.165 513.41 335.276 513.187 335.354C512.965 335.433 512.728 335.472 512.477 335.472C512.06 335.472 511.678 335.369 511.33 335.163C510.984 334.954 510.707 334.669 510.499 334.307C510.293 333.942 510.19 333.526 510.19 333.057C510.19 332.612 510.289 332.205 510.488 331.835C510.69 331.464 510.971 331.168 511.333 330.947C511.698 330.727 512.127 330.621 512.619 330.628ZM512.619 331.409C512.321 331.409 512.052 331.484 511.813 331.633C511.576 331.78 511.388 331.978 511.248 332.229C511.111 332.478 511.042 332.754 511.042 333.057C511.042 333.36 511.109 333.636 511.241 333.884C511.376 334.13 511.56 334.327 511.792 334.474C512.026 334.618 512.292 334.69 512.591 334.69C512.815 334.69 513.025 334.647 513.219 334.559C513.413 334.469 513.583 334.347 513.727 334.193C513.874 334.037 513.989 333.861 514.071 333.664C514.154 333.465 514.196 333.258 514.196 333.043C514.196 332.759 514.127 332.492 513.99 332.244C513.855 331.995 513.668 331.794 513.429 331.64C513.192 331.486 512.922 331.409 512.619 331.409ZM518.916 338.099C518.381 338.099 517.925 337.954 517.549 337.663C517.172 337.369 516.885 336.944 516.686 336.388C516.487 335.829 516.388 335.154 516.388 334.364C516.388 333.578 516.487 332.906 516.686 332.35C516.887 331.791 517.176 331.365 517.552 331.072C517.931 330.776 518.386 330.628 518.916 330.628C519.446 330.628 519.9 330.776 520.276 331.072C520.655 331.365 520.944 331.791 521.143 332.35C521.344 332.906 521.444 333.578 521.444 334.364C521.444 335.154 521.345 335.829 521.146 336.388C520.947 336.944 520.66 337.369 520.283 337.663C519.907 337.954 519.451 338.099 518.916 338.099ZM518.916 337.318C519.446 337.318 519.858 337.062 520.152 336.551C520.445 336.04 520.592 335.311 520.592 334.364C520.592 333.734 520.525 333.198 520.39 332.755C520.257 332.312 520.065 331.975 519.814 331.743C519.566 331.511 519.266 331.395 518.916 331.395C518.39 331.395 517.98 331.654 517.684 332.173C517.388 332.689 517.24 333.419 517.24 334.364C517.24 334.993 517.306 335.528 517.439 335.969C517.571 336.409 517.762 336.744 518.01 336.974C518.261 337.203 518.563 337.318 518.916 337.318Z" fill="#030439"/>
<rect x="751.5" y="315.5" width="11" height="11" fill="#030439" stroke="#97E2CF"/>
<rect x="242.5" y="315.5" width="11" height="11" fill="#030439" stroke="#97E2CF"/>
<rect x="242.5" y="209.5" width="11" height="11" fill="#030439" stroke="#97E2CF"/>
</svg>
