<svg width="24" height="24" viewBox="0 0 24 24" fill="none" xmlns="http://www.w3.org/2000/svg">
<mask id="mask0_558_124" style="mask-type:alpha" maskUnits="userSpaceOnUse" x="0" y="0" width="24" height="24">
<rect width="24" height="24" fill="#D9D9D9"/>
</mask>
<g mask="url(#mask0_558_124)">
<path d="M18.8496 9.40001L14.5996 5.15001L16.0246 3.72501C16.4079 3.34168 16.8789 3.15001 17.4376 3.15001C17.9956 3.15001 18.4663 3.34168 18.8496 3.72501L20.2746 5.15001C20.6579 5.53335 20.8496 6.00401 20.8496 6.56201C20.8496 7.12068 20.6579 7.59168 20.2746 7.97501L18.8496 9.40001ZM2.99961 21V16.75L7.49961 12.25L2.22461 6.92501L6.94961 2.20001L12.2496 7.52501L14.5996 5.15001L18.8496 9.40001L16.4996 11.75L21.7746 17.075L17.0746 21.775L11.7496 16.475L7.24961 21H2.99961ZM8.92461 10.825L10.8246 8.92501L9.62461 7.72501L8.42461 8.90001L7.02461 7.50001L8.19961 6.30001L6.92461 5.05001L5.04961 6.95001L8.92461 10.825ZM17.0496 18.95L18.9496 17.05L17.6746 15.8L16.4996 16.975L15.0746 15.575L16.2746 14.375L15.0496 13.175L13.1496 15.075L17.0496 18.95ZM4.99961 19H6.39961L16.0246 9.40001L14.5996 7.97501L4.99961 17.6V19Z" fill="#1C1B1F"/>
</g>
</svg>
